<svg width="80" height="77" viewBox="0 0 80 77" fill="none" xmlns="http://www.w3.org/2000/svg">
<g clip-path="url(#clip0_28_86)">
<path d="M66 0H14C6.1782 0 0 6.19269 0 14V63C0 70.8073 6.1782 77 14 77H66C73.8218 77 80 70.8073 80 63V14C80 6.19269 73.8218 0 66 0Z" fill="#470137"/>
<path d="M42 21L32 36L43 53C43.0677 53.1203 43.0333 53.8664 43 54C42.9634 54.1233 43.2134 53.9656 43 54H35C34.7823 54.0217 34.1975 54.0929 34 54C33.8024 53.9072 34.1201 53.1805 34 53C33.2873 51.6312 32.7112 50.3519 32 49C31.2887 47.6493 30.8005 46.4047 30 45C29.2 43.5968 27.7831 42.4398 27 41C26.288 42.4043 25.7641 43.5962 25 45C24.2338 46.4043 23.746 47.6138 23 49C22.2528 50.3872 20.7831 52.6312 20 54C19.9421 54.1466 20.1341 53.9149 20 54C19.8659 54.0851 20.1592 54.0088 20 54H12C11.97 54.003 12.0287 54.0092 12 54C11.9713 53.9908 12.0225 54.0198 12 54C11.9775 53.9802 12.0125 54.0271 12 54C11.9875 53.9729 12.0004 54.0298 12 54C11.9792 53.8717 11.928 53.1088 12 53L22 37L12 20C11.8929 19.8603 11.9296 20.0883 12 20C11.9444 20.0229 12.0394 19.9551 12 20C12.0556 19.9772 12.9399 19.996 13 20H20C20.164 19.9912 20.8478 19.939 21 20C20.9169 19.881 21.1273 20.0715 21 20C21.6408 21.4043 22.2176 22.5968 23 24C23.7824 25.4046 24.1993 26.6315 25 28C25.8007 29.3688 27.3242 31.5957 28 33C28.7112 31.561 29.2709 29.3691 30 28C30.7296 26.6309 31.2352 25.3863 32 24C32.7648 22.6138 33.2873 21.3688 34 20C34.0406 19.8699 34.9006 20.0944 35 20C34.853 19.9856 35.1316 19.9339 35 20H42C41.937 19.9712 42.0674 19.9837 42 20C41.969 19.9387 42.0629 20.0288 42 20C42.0146 19.9331 42.0309 20.0613 42 20C41.9854 20.0669 42.0537 20.9567 42 21Z" fill="#FF61F6"/>
<path d="M57 54C54.5968 54.0365 52.1858 53.9972 50 53C47.9635 52.0594 46.1434 49.9271 45 48C43.7441 45.7504 42.9051 43.5735 43 41C42.9803 38.6086 43.8176 36.0801 45 34C46.2182 31.8814 47.8406 30.1501 50 29C52.5271 27.6866 55.1519 26.9166 58 27C58.1743 27 58.7218 26.9826 59 27C59.2783 27.0179 59.6169 26.966 60 27V18C59.9699 17.7812 59.8672 17.1768 60 17C60.1328 16.8233 60.781 17.0326 61 17H66C66.2501 17.0008 66.8231 16.8235 67 17C67.1768 17.1765 66.9992 17.7504 67 18V48C67 48.5911 66.9481 49.3056 67 50C67.0523 50.6953 66.9651 50.4449 67 51C67.0064 51.1082 67.0558 51.9071 67 52C66.9442 52.093 67.0986 51.9546 67 52C65.3837 52.7047 63.7316 53.6656 62 54C60.3466 54.3045 58.6813 53.9925 57 54ZM60 48V33C59.6701 32.9248 59.3372 33.0288 59 33C58.6442 32.9642 58.3576 32.999 58 33C56.7331 32.9874 55.1356 33.4394 54 34C52.7833 34.5789 51.6797 35.8385 51 37C50.3202 38.1616 49.9074 38.6581 50 40C49.9748 41.1359 50.6123 42.9318 51 44C51.3153 44.8609 51.3521 45.3503 52 46C52.6199 46.5978 54.178 46.7412 55 47C55.8683 47.2807 56.0873 48.0045 57 48C57.4878 48 58.5824 48.0349 59 48C59.4352 47.9704 59.5776 48.109 60 48Z" fill="#FF61F6"/>
</g>
<defs>
<clipPath id="clip0_28_86">
<rect width="80" height="77" fill="white"/>
</clipPath>
</defs>
</svg>
