<svg width="80" height="78" viewBox="0 0 80 78" fill="none" xmlns="http://www.w3.org/2000/svg">
<g clip-path="url(#clip0_28_76)">
<path d="M66 0H14C6.17597 0 0 6.17597 0 14V64C0 71.824 6.17597 78 14 78H66C73.824 78 80 71.824 80 64V14C80 6.17597 73.824 0 66 0Z" fill="#330000"/>
<path d="M39 46.9999H27L24 54.9999C23.9654 55.1422 24.118 54.9122 24 54.9999C23.8819 55.0877 24.1473 55.0069 24 54.9999H17C16.6404 54.9999 16.8919 54.3917 17 53.9999L28 23.9999C28.1078 23.6794 27.8922 23.4096 28 22.9999C28.1409 22.2871 27.9976 20.7263 28 19.9999C27.9836 20.0486 27.9927 19.9491 28 19.9999C27.9634 20.0362 28.0163 19.9513 28 19.9999C28.0366 19.9637 28.9509 20.0162 29 19.9999C28.9487 19.9927 29.0491 19.9837 29 19.9999H37C37.251 19.9999 37.9636 19.8218 38 19.9999L50 53.9999C50.1077 54.3564 50.3232 55.0002 50 54.9999H43C42.8797 55.0132 42.0991 55.0688 42 54.9999C41.9008 54.9311 42.0286 55.1165 42 54.9999L39 46.9999ZM29 39.9999H37C36.7844 39.2879 37.2873 38.8907 37 37.9999C36.712 37.1101 36.3226 36.0156 36 34.9999C35.6766 33.9849 35.3232 33.0151 35 31.9999C34.6767 30.9849 34.2694 29.9438 34 28.9999C33.7305 28.0567 33.2154 26.7841 33 25.9999C32.6966 27.4428 32.4505 28.5954 32 29.9999C31.4965 31.6027 30.5203 33.326 30 34.9999C29.4788 36.6745 29.5026 38.5758 29 39.9999Z" fill="#FF9A00"/>
<path d="M56.9999 25C56.4739 25.022 55.4887 25.2043 54.9999 25C54.5112 24.7956 54.3662 24.3951 53.9999 24C53.6346 23.5877 53.1858 23.5272 52.9999 23C52.814 22.4727 52.9779 21.5614 52.9999 21C52.9812 20.4441 52.8 20.5154 52.9999 20C53.1999 19.4845 53.6161 18.3853 53.9999 18C54.38 17.6187 54.5086 17.1989 54.9999 17C55.4912 16.8011 56.4732 16.9858 56.9999 17C58.2377 17 59.2952 17.2274 59.9999 18C60.3557 18.4014 60.8185 19.4867 60.9999 20C61.1813 20.5133 61.0206 20.4532 60.9999 21C61.0215 21.5636 61.1904 22.4722 60.9999 23C60.8095 23.5277 60.3722 23.5916 59.9999 24C59.6108 24.4009 59.5102 24.7959 58.9999 25C58.4896 25.204 57.5457 25.027 56.9999 25ZM52.9999 54V29C52.9999 28.6766 53.7243 28 53.9999 28H59.9999C60.2747 28 60.9997 28.6766 60.9999 29V54C60.9999 54.3596 60.275 55.0002 59.9999 55H53.9999C53.6906 55 53 54.3593 52.9999 54Z" fill="#FF9A00"/>
</g>
<defs>
<clipPath id="clip0_28_76">
<rect width="80" height="78" fill="white"/>
</clipPath>
</defs>
</svg>
