<svg width="80" height="78" viewBox="0 0 80 78" fill="none" xmlns="http://www.w3.org/2000/svg">
<rect x="0.5" y="0.5" width="79" height="77" rx="9.5" fill="white" stroke="#EDEDED"/>
<path d="M23 63L19 21H62L58 63L40 68L23 63Z" fill="#E44D26"/>
<path d="M40 64L54 60L57 24H40V64Z" fill="#F16529"/>
<path d="M40 40H33V34H40V29H27V30L28 45H40V40ZM40 53L34 52V48H29V56L40 59V53Z" fill="#EBEBEB"/>
<path d="M23 9H26V12H28V9H31V17H28V14H26V17H23V9ZM35 12H32V9H40V12H37V17H35V12ZM41 9H44L45 12L47 9H50V17H47V13L45 16L44 13V17H41V9ZM51 9H54V14H58V17H51V9Z" fill="#222222"/>
<path d="M40 40V45H46V52L40 53V59L51 56V55L52 41V40H51H40ZM40 29V34H53V33V30V29H40Z" fill="white"/>
</svg>
