<svg width="186" height="78" viewBox="0 0 186 78" fill="none" xmlns="http://www.w3.org/2000/svg">
<rect x="0.5" y="0.5" width="185" height="77" rx="9.5" fill="white" stroke="#EDEDED"/>
<g clip-path="url(#clip0_28_115)">
<path d="M76 55C76 55.341 76.0439 55.6315 76 56L77 53V52H78L79 56L80 54C80.0465 53.8201 79.9917 53.1857 80 53C80.0057 52.8144 80.0494 52.179 80 52H81C81.1642 52.7094 81.3344 53.3533 81 54L80 57H78L77 55L76 57H75C75.0691 55.3482 74.1788 53.6435 74 52H76C76.1153 52.8251 76.035 54.1676 76 55ZM84.9999 54C84.3354 54.3575 83.6041 53.6315 82.9999 54V57H81L81.9999 52H83.9999L82.9999 53C83.435 52.7367 84.5317 52.1981 84.9999 52V54ZM85.9999 52H86.9999L85.9999 57H84.9999L85.9999 52ZM85.9999 50H87.9999L86.9999 51L85.9999 52V50ZM89.9999 53L88.9999 56C88.8956 56 88.9999 56.077 88.9999 56C89.2796 55.9765 89.7455 56.1184 89.9999 56L90.9999 57C90.4913 57.2673 89.5744 57.9926 88.9999 58C88.253 58 87.967 57.6105 87.9999 57C88.0037 56.9261 87.9854 56.0726 87.9999 56V53V52H88.9999V51H89.9999V52H90.9999V53H89.9999ZM91.9999 54C92.2526 52.823 92.3852 52 93.9999 52C94.9666 52 96.0384 52.1365 95.9999 53C95.9615 54.001 95.2906 54.6205 93.9999 55C93.3738 55.187 93.4613 55.8845 92.9999 56C92.7473 56 92.9615 56.1925 92.9999 56C93.7007 55.9369 94.3637 56.3007 94.9999 56V57C94.2452 57.4342 93.8702 57.9831 92.9999 58C91.9399 58 90.967 56.8745 90.9999 56C90.9534 56.2042 91.0082 55.7907 90.9999 56L91.9999 54ZM93.9999 54C93.9999 53.8185 94.2691 53 93.9999 53C93.4507 53 93.0878 53.582 92.9999 54C93.2526 53.9395 93.6924 54.0935 93.9999 54C94.4064 53.879 93.989 54.3025 93.9999 54ZM99.9999 50H101L99.9999 57H97.9999L99.9999 50ZM101 54C101.247 52.823 102.385 52 104 52C104.967 52 105.038 52.1365 105 53C104.962 54.001 105.291 54.6205 104 55C103.374 55.187 102.461 55.8845 102 56C101.962 56.1925 102.747 56 103 56C103.702 55.9365 104.362 56.3004 105 56V57C104.234 57.4471 102.887 57.9856 102 58C100.94 58 100.972 56.8745 101 56C100.952 56.204 101.01 55.7906 101 56V54ZM104 54C104 53.8185 104.269 53 104 53C103.451 53 103.088 53.582 103 54C102.692 54.0935 103.253 53.9395 103 54C103.406 53.879 103.989 54.3025 104 54ZM106 57V56C106.438 56.1703 106.53 55.9958 107 56C107.494 56 107.967 56.242 108 56C108.033 55.758 107.566 55.3025 107 55C105.945 54.45 105.819 54.77 106 54C106.236 52.9 106.555 52 108 52C108.512 52.008 109.511 51.8475 110 52L109 54C108.585 53.8947 108.428 53.008 108 53C107.561 53 108.044 53.725 108 54C107.517 53.747 107.956 54.275 108 54C109.153 54.627 109.176 55.197 109 56C108.753 57.155 108.538 57 107 57C106.45 56.9978 106.51 57.2049 106 57ZM110 57V56C110.441 56.1829 110.523 55.9866 111 56C111.494 56 111.972 56.242 112 56C112.027 55.758 111.566 55.3025 111 55C109.951 54.45 109.819 54.77 110 54C110.242 52.9 110.583 52 112 52C112.514 52.008 113.509 51.8475 114 52V54C113.58 53.8882 112.434 53.0125 112 53C111.555 53 112.038 53.725 112 54C111.517 53.747 111.962 54.275 112 54C113.159 54.627 114.176 55.197 114 56C113.747 57.155 112.532 57 111 57C110.448 56.9923 110.511 57.2103 110 57ZM114 59L115 57H114V56H116V58L114 59ZM122 57C121.531 57.3696 120.596 58.0141 120 58C118.901 58 118.736 57.1495 119 56V54C119.253 52.779 119.858 52 122 52C122.208 51.9992 122.795 51.9663 123 52V50H125L123 57H122ZM121 56C120.731 56 120.94 56.275 121 56C121.457 55.9746 121.68 56.3284 122 56L123 53C122.819 52.9689 122.184 52.9982 122 53C121.231 53 121.11 53.505 121 54V56ZM125 56C125.006 55.88 124.977 55.118 125 55V54C125.275 52.6855 126.198 52 128 52C129.379 52 130.033 53.087 130 54C129.998 54.124 129.027 53.879 129 54V55C128.736 56.232 127.862 58 126 58C124.687 57.9725 124.967 56.913 125 56ZM128 54C128 53.626 127.483 53 127 53C126.764 52.978 127.185 53.8524 127 54C126.815 54.1476 126.032 53.765 126 54V56C125.993 55.9305 125.993 56.0695 126 56C126 56.3685 126.517 56 127 56C126.815 56.1476 127.236 56.022 127 56C127.185 55.8524 127.968 56.235 128 56V54C128.007 54.0897 128.007 53.9103 128 54ZM139 54C138.997 54.0541 139.016 53.9482 139 54C139 53.8955 138.143 54 138 54C137.526 54.0885 137.421 53.7643 137 54L136 57H135L136 54C135.995 54.0538 136.013 53.9476 136 54C136 53.8955 135.148 54 135 54C134.53 54.0865 134.417 53.766 134 54L133 57H132L133 52H134V53C134.632 52.6719 135.289 52.0343 136 52C136.192 51.9745 136.84 51.8891 137 52C137.159 52.1109 136.957 52.8105 137 53C137.63 52.6176 138.263 52.0101 139 52C139.686 52 140.022 52.3455 140 53C139.994 53.1982 140.045 53.8069 140 54L139 57H138L139 54ZM141 56C141.006 55.88 140.977 55.118 141 55V54C141.275 52.6855 142.198 52 144 52C145.373 52 146.033 53.087 146 54C145.998 54.124 146.027 53.879 146 54L145 55C144.736 56.232 144.862 58 143 58C141.687 57.9725 140.967 56.913 141 56ZM144 54C144 53.626 143.483 53 143 53C142.764 52.978 143.185 53.8524 143 54C142.815 54.1476 142.032 53.765 142 54V56C141.985 56.0689 142.006 55.9297 142 56C142 56.3685 142.517 56 143 56C142.815 56.1476 143.236 56.022 143 56C143.185 55.8524 143.968 56.235 144 56V54C144.016 53.9111 143.998 54.0904 144 54ZM150 54C149.335 54.3575 148.599 53.6315 148 54L147 57H146L147 52H148V53C148.436 52.7379 149.532 52.1993 150 52V54ZM150 54C150.253 52.823 150.38 52 152 52C152.961 52 154.038 52.1365 154 53C153.967 54.001 153.291 54.6205 152 55C151.374 55.187 151.461 55.8845 151 56C150.725 56 150.962 56.1925 151 56C151.703 55.9377 152.362 56.3015 153 56V57C152.232 57.448 151.889 57.9865 151 58C149.94 58 148.967 56.8745 149 56C149.008 55.7907 149.953 56.2042 150 56V54ZM153 54C153 53.8185 152.275 53 152 53C151.451 53 151.088 53.582 151 54C151.258 53.9395 151.692 54.0935 152 54C152.401 53.879 152.989 54.3025 153 54ZM155 56H156V57H154L155 56ZM19 27C16.4955 30.6024 17.0832 36.1886 19 40C18.9505 39.912 19.0439 40.0935 19 40C18.9663 39.9436 19.0248 40.0608 19 40V41C18.9286 40.89 19.0659 41.11 19 41C19.0933 41.1485 19.8901 41.857 20 42V43H21C20.8736 42.868 21.1153 43.1375 21 43V44C21.0933 44.099 21.8956 43.9065 21.9999 44C21.8626 43.8845 22.1318 44.1265 21.9999 44L22.9999 45H23.9999V46H24.9999C24.8681 45.934 25.1318 46.0715 24.9999 46L26 47H27C26.8242 46.9285 27.1702 47.077 27 47H28V48C28.1801 48.0613 28.8142 47.9587 29 48C41.0829 50.1999 45 41 45 41C42.0451 44.8499 35.9814 45.1275 31 44C30.8187 43.956 31.1867 44.055 31 44H30C29.8242 43.934 29.1702 44.0715 29 44L28 43H27C26.9593 42.9691 27.0468 43.0203 27 43V42H26L24.9999 41C24.8626 40.89 25.1263 41.1155 24.9999 41H23.9999V40C23.8736 39.879 23.1153 40.132 22.9999 40V39C22.8956 38.868 22.0988 38.1375 21.9999 38C19.2538 34.2381 18.7976 29.2404 21 25" fill="#0060A9"/>
<path d="M26 24C24.1849 26.5967 24.5907 30.2667 26 33C26.2333 33.461 26.7039 33.5765 27 34C27.2598 34.4265 27.6477 34.6456 28 35C28.1262 35.1421 27.8575 35.8579 28 36C27.9671 35.9617 28.0329 36.0328 28 36H29C29.1536 36.1367 28.83 36.8743 29 37H30C29.9233 36.9508 30.0713 37.0547 30 37C30.1207 37.082 30.8739 37.9289 31 38C30.8904 37.9453 31.1042 38.0656 31 38H32L33 39C33.1791 39.0635 33.8139 38.9615 34 39C43.3222 40.5416 45 33 45 33C43.0588 35.788 39.0086 37.0387 35 36C34.8191 35.9563 35.192 36.0547 35 36H34L33 35C32.8904 34.9453 32.1042 35.0601 32 35C31.8739 34.9235 32.1152 35.0765 32 35L31 34C29.2004 32.625 27.7004 31.1498 27 29C26.6359 27.8918 26.8848 26.1605 27 25C27.1152 23.8395 27.4251 23.0156 28 22" fill="#0060A9"/>
<path d="M33 22C32.5013 22.7885 32.0739 24.0551 32 25C31.9261 25.9449 31.6305 27.1359 32 28C32.3925 28.9386 33.2898 29.2997 34 30C34.7102 30.7003 36.0862 31.6506 37 32C36.8931 31.9774 37.1069 32.0339 37 32C42.0253 33.0215 43.6311 29.5474 44 29C42.8025 30.8116 40.4538 30.6377 38 30C37.799 29.9453 38.1944 30.0769 38 30C37.758 29.9096 37.2317 30.1164 37 30C36.5639 29.7796 36.385 29.3088 36 29C33.7974 27.2335 32.5673 23.7372 34 21" fill="#0060A9"/>
<path d="M153 29V30C153.01 29.9458 153.017 30.0524 153 30C152.99 30.0542 153.034 30.9565 153 31C152.966 31.0435 153.051 30.9774 153 31C152.949 31.0226 153.055 31.0036 153 31M136 28C135.951 28.2338 136.038 28.8151 136 29L135 37L136 28ZM83 34L82 37L83 34Z" fill="#353332"/>
<path d="M153 31L152 28C151.599 26.3912 150.544 26 148 26H138C137.883 25.9854 137.099 25.9334 137 26C136.901 26.0666 137.035 25.8832 137 26L133 46C132.947 46.1816 132.972 46.8126 133 47C133.027 47.1289 133.756 47 134 47H137C137.276 47.0196 137.726 47.0419 138 47C138.135 46.9439 138.951 46.2522 139 46L140 39L141 32C141.032 31.8746 141.903 31.0816 142 31C141.875 31.0064 142.097 30.9184 142 31H153C153.055 31.0037 152.95 31.0233 153 31C153.05 30.9767 152.966 31.0448 153 31C153.034 30.9552 152.991 31.0559 153 31C153.017 31.054 153.01 30.9441 153 31Z" fill="#353332"/>
<path d="M168 22H164C163.856 22.0283 163.122 22.9179 163 23C162.879 23.0821 163.08 22.8771 163 23L155 35C154.858 35.2032 154.055 35.2416 154 35V32C153.968 31.8772 153.099 32.08 153 32C152.902 31.92 153.127 32.0063 153 32H148C147.945 31.9975 147.05 31.9761 147 32C146.95 32.0239 147.033 31.9554 147 32C146.968 32.0446 147.008 31.9453 147 32C146.981 31.9482 146.992 32.0547 147 32L150 41C150.063 41.2895 150.063 41.7105 150 42L149 46C148.742 46 148.94 46.2416 149 46H154C154.252 46 154.962 46.2416 155 46L156 42C156.084 41.7224 155.83 41.235 156 41L170 23C170.154 22.8023 170.247 22 170 22H168ZM112 26H108C107.753 26 107.044 25.7529 107 26L105 34L104 41C103.951 41.2416 103.252 41 103 41H100C96.8483 41 97.3533 38.9931 98.0001 36L100 26C100.044 25.7529 100.247 26 100 26H95.0001C94.7534 26 94.0549 25.7529 94.0001 26L93.0001 36C92.0737 41.3766 91.7733 45.8407 98.0001 46H108C107.951 46.2471 108.252 46 108 46L110 36L112 26C112.082 26 112 26 112 26ZM64.0001 26H59.0001C58.7479 26 58.0439 25.7584 58.0001 26L57.0001 30C56.9858 30.0528 56.9884 29.9466 57.0001 30C56.9651 29.958 57.0117 30.0534 57.0001 30C57.035 30.042 57.9497 30.9789 58.0001 31C57.9457 31.0046 58.0504 31.0211 58.0001 31H63.0001C63.1286 30.989 62.9018 30.0837 63.0001 30C62.9686 30.1253 63.0983 29.9163 63.0001 30L64.0001 26C64.17 26 64.0001 26 64.0001 26ZM57.0001 32C56.8734 32.0063 57.0986 31.92 57.0001 32C56.9015 32.08 57.0325 31.8772 57.0001 32L56.0001 36L55.0001 43C55.0001 43 54.0823 46.7638 54.0001 47C54.0001 47 52.6719 49.1043 51.0001 49C50.448 48.9544 50.5434 49.1081 50.0001 49C49.5287 48.8572 49.0439 49.7584 49.0001 50L48.0001 54C47.9837 54.0545 47.9901 53.944 48.0001 54C48.01 54.056 47.9659 54.9545 48.0001 55C47.9491 54.9749 48.0342 55.0455 48.0001 55C47.9433 55.0007 48.051 55.0251 48.0001 55C49.2722 55.1761 50.7163 54.9676 52.0001 55C55.9082 55 58.6791 52.2498 60.0001 46L61.0001 39L63.0001 32C63.009 32.0559 63.0172 31.9461 63.0001 32C62.9912 31.9441 63.0331 32.0459 63.0001 32C62.967 31.9541 63.0502 32.0261 63.0001 32C62.95 31.9739 62.0565 32.0008 62.0001 32M125 26C116.23 26 114.162 31.6289 113 37C111.838 42.4809 111.945 46 121 46H129C128.902 46.0847 129.129 45.9887 129 46C128.97 46.1263 129.098 45.9153 129 46L130 42C130.049 41.7529 130.247 42 130 42H122C119.051 42 117.896 41.043 118 39C118 38.7693 117.748 38 118 38H131C131.548 38 132 38 132 38C133.277 32.2225 133.282 26 125 26ZM127 34C127 34.2746 126 35 126 35H119C118.764 35 119.017 34.2197 119 34C118.979 34.1161 119.005 33.8821 119 34C119.548 32.1657 121.506 31 124 31C126.806 31 127 32.4513 127 34ZM87.0001 41C87.0001 41 89.4519 34.4434 90.0001 31C90.762 26.3813 87.9072 20 79.0001 20C70.0929 20 66.469 26.0527 65.0001 33C63.5311 39.9473 65.1861 46.0604 74.0001 46H88.0001C87.9025 46.0782 88.1246 45.9895 88.0001 46C87.9625 46.1194 88.0977 45.9218 88.0001 46L90.0001 42C90.0158 41.9472 90.0102 41.0542 90.0001 41C89.9899 40.9458 90.0338 41.0435 90.0001 41C89.9663 40.9565 89.05 41.0232 89.0001 41C88.9501 40.9768 89.055 40.9977 89.0001 41H87.0001C87.0412 41.0144 86.9569 41.006 87.0001 41C87.0301 41.0317 86.9589 40.9856 87.0001 41C87.0123 41.0419 86.97 40.9683 87.0001 41C86.9918 41.0429 86.9878 40.9581 87.0001 41C86.9952 41.0328 86.9952 40.9672 87.0001 41ZM82.0001 37L81.0001 41C80.9524 41.1209 81.1077 40.9274 81.0001 41C80.8924 41.0726 81.1298 41.0013 81.0001 41H75.0001C71.048 41 70.0189 37.5638 71.0001 33C71.9648 28.3374 74.1193 25.2911 78.0001 25C83.3114 24.5991 84.2882 28.6669 83.0001 33L82.0001 37Z" fill="#353332"/>
</g>
<defs>
<clipPath id="clip0_28_115">
<rect width="153" height="39" fill="white" transform="translate(17 20)"/>
</clipPath>
</defs>
</svg>
