<svg width="80" height="78" viewBox="0 0 80 78" fill="none" xmlns="http://www.w3.org/2000/svg">
<g clip-path="url(#clip0_28_66)">
<path d="M66 0H14C6.17597 0 0 6.17597 0 14V64C0 71.824 6.17597 78 14 78H66C73.824 78 80 71.824 80 64V14C80 6.17597 73.824 0 66 0Z" fill="#001E36"/>
<path d="M18 55V21C18 20.7519 17.7873 20 18 20C18.5667 20 19.2197 20.0183 20 20C20.7796 19.9825 22.0954 20.018 23 20C23.9043 19.9825 24.9896 20.018 26 20C27.0104 19.9825 28.0072 20.0003 29 20C31.6942 20 33.1558 20.3253 35 21C36.6636 21.5636 38.7398 22.7751 40 24C41.0683 25.0617 41.4741 25.5877 42 27C42.4976 28.3744 43.005 30.538 43 32C43 34.8414 42.3119 37.154 41 39C39.6795 40.8536 38.1417 42.2356 36 43C33.7662 43.8348 30.7299 44 28 44C27.2197 44 27.3189 44.0178 27 44C26.681 43.9825 25.6383 44.0002 25 44V55C25.0093 55.0651 25.0208 54.9376 25 55C24.9793 55.0624 25.0465 54.9535 25 55C24.9536 55.0465 25.0624 54.9792 25 55C24.9377 55.0208 25.0651 55.0093 25 55H18C18 55.2846 17.7516 55 18 55ZM25 27V38C25.4604 38.0358 25.6095 38.0003 26 38H28C29.2914 37.9957 30.7715 37.3986 32 37C33.0537 36.6865 34.2828 35.8342 35 35C35.6914 34.1835 35.9999 33.4562 36 32C36.0281 30.9696 35.5317 29.8825 35 29C34.4411 28.1466 33.9469 27.3773 33 27C31.7638 26.5187 30.3257 25.9581 29 26C28.149 26 27.6559 25.9823 27 26C26.3436 26.0183 25.2477 26.9651 25 27Z" fill="#31A8FF"/>
<path d="M64.0001 35.9999C63.0111 35.477 62.0889 34.2317 61.0001 33.9999C59.8003 33.7167 58.2309 34.0046 57.0001 33.9999C56.3342 33.9814 55.6427 33.8198 55.0001 33.9999C54.591 34.0937 54.2536 34.6566 54.0001 34.9999C53.8286 35.2746 54.0003 35.6735 54.0001 35.9999C54.0097 36.3167 53.805 36.7548 54.0001 36.9999C54.3074 37.37 54.578 37.7801 55.0001 37.9999C55.7503 38.4157 57.2081 38.6762 58.0001 38.9999C59.7661 39.6083 61.4283 39.9717 63.0001 40.9999C64.0708 41.6954 64.3783 42.8648 65.0001 43.9999C65.5229 45.0748 66.0217 45.7981 66.0001 46.9999C66.0315 48.5869 65.8538 50.678 65.0001 51.9999C64.0861 53.3418 62.4739 54.3796 61.0001 54.9999C59.4034 55.7218 57.3499 55.9997 55.0001 55.9999C53.5073 56.0155 52.4635 56.3035 51.0001 55.9999C49.847 55.7824 48.0661 54.5017 47.0001 53.9999C46.885 53.9388 47.0653 54.115 47.0001 53.9999C46.9348 53.8848 46.9951 54.1331 47.0001 53.9999V47.9999C46.9769 48.0524 46.9937 47.9427 47.0001 47.9999C46.954 48.0327 47.0233 47.9475 47.0001 47.9999C46.9484 47.9951 47.0452 47.9736 47.0001 47.9999C46.9602 47.9657 47.0518 48.0048 47.0001 47.9999C48.259 48.7639 49.5742 48.6695 51.0001 48.9999C52.2568 49.3241 53.7046 49.9823 55.0001 49.9999C56.2276 49.9999 57.421 49.3249 58.0001 48.9999C58.2616 48.8768 58.8459 49.2498 59.0001 48.9999C59.1542 48.75 59.0031 48.2959 59.0001 47.9999C59.0001 47.5312 58.5263 47.4338 58.0001 46.9999C57.4739 46.5667 56.6139 45.6137 55.0001 44.9999C53.3478 44.4081 51.4382 44.0252 50.0001 42.9999C48.9715 42.2637 48.5977 41.1332 48.0001 39.9999C47.4826 38.9328 46.9839 37.1925 47.0001 35.9999C46.9971 34.5671 47.2746 33.2229 48.0001 31.9999C48.8273 30.6532 50.5946 29.6681 52.0001 28.9999C53.5433 28.2062 54.6844 28.0005 57.0001 27.9999C58.3562 27.9887 59.6592 27.7905 61.0001 27.9999C61.971 28.1267 63.0994 28.6057 64.0001 28.9999C63.9453 28.9483 64.0715 29.021 64.0001 28.9999C64.0548 29.0516 64.9734 28.9285 65.0001 28.9999C65.0356 29.1322 65.0007 29.8627 65.0001 29.9999V34.9999C65.0037 35.0636 65.0278 34.9429 65.0001 34.9999C64.9724 35.057 64.0517 35.9647 64.0001 35.9999C64.0786 35.9999 63.9297 36.036 64.0001 35.9999C64.0704 36.0359 63.9215 35.9999 64.0001 35.9999Z" fill="#31A8FF"/>
</g>
<defs>
<clipPath id="clip0_28_66">
<rect width="80" height="78" fill="white"/>
</clipPath>
</defs>
</svg>
