<svg width="262" height="33" viewBox="0 0 262 33" fill="none" xmlns="http://www.w3.org/2000/svg">
<g clip-path="url(#clip0_41_294)">
<path d="M141.182 18.9614C139.396 18.5079 138.605 17.3741 138.605 16.2284H140.787V14.9873H138.605V13.8655H137.023V14.9873H134.866V16.2284H137.023C137.023 17.4457 136.244 18.663 134.47 19.1523L135.202 20.3696C135.766 20.2331 136.294 19.9769 136.749 19.6185C137.204 19.2601 137.576 18.808 137.839 18.2931C138.124 18.7695 138.503 19.1828 138.955 19.5074C139.406 19.832 139.919 20.0609 140.463 20.18L141.182 18.9614ZM137.994 22.0537H142.237V23.5361H137.994V22.0537ZM136.436 24.7746H143.783V20.8125H136.436V24.7746ZM142.201 13.9013V16.7774H140.536V18.0424H142.201V20.3338H143.783V13.9026L142.201 13.9013ZM151.467 18.4615C150.064 18.7228 148.638 18.8339 147.211 18.793V16.0242H150.58V14.7712H145.641V20.058H146.564C148.259 20.1308 149.957 20.0107 151.625 19.7L151.467 18.4615ZM148.374 21.0167H146.792V24.703H154.307V23.45H148.374V21.0167ZM153.912 16.8994V13.9026H152.33V21.8508H153.912V18.187H155.377V16.8981L153.912 16.8994ZM159.439 14.6319C157.713 14.6319 156.406 15.7657 156.406 17.341C156.406 18.9282 157.713 20.05 159.439 20.05C161.165 20.05 162.483 18.9282 162.483 17.341C162.483 15.7643 161.163 14.6306 159.437 14.6306L159.439 14.6319ZM159.439 15.9805C159.629 15.9608 159.822 15.9815 160.004 16.0412C160.186 16.1008 160.353 16.1981 160.494 16.3266C160.636 16.455 160.748 16.6118 160.825 16.7866C160.901 16.9615 160.939 17.1504 160.937 17.341C160.939 17.5316 160.901 17.7205 160.825 17.8953C160.748 18.0701 160.636 18.2269 160.494 18.3554C160.353 18.4839 160.186 18.5812 160.004 18.6408C159.822 18.7004 159.629 18.7211 159.439 18.7015C159.248 18.7211 159.056 18.7004 158.874 18.6408C158.692 18.5812 158.525 18.4839 158.383 18.3554C158.242 18.2269 158.129 18.0701 158.053 17.8953C157.977 17.7205 157.938 17.5316 157.941 17.341C157.938 17.1502 157.976 16.9611 158.052 16.7861C158.128 16.611 158.241 16.454 158.382 16.3252C158.523 16.1965 158.691 16.099 158.872 16.0391C159.054 15.9792 159.247 15.9584 159.437 15.9778L159.439 15.9805ZM163.514 13.892V24.9179H165.096V13.8907L163.514 13.892ZM156.141 22.6862C158.442 22.7406 160.742 22.5727 163.009 22.1849L162.913 21.0512C160.599 21.3334 158.268 21.4531 155.937 21.4092L156.141 22.6862ZM170.645 20.729H172.576V22.3997H170.645V20.729ZM174.133 22.3997V20.729H175.679V19.4639H169.278V18.2586H175.427V14.6067H167.696V15.8598H173.869V17.0294H167.708V20.729H169.086V22.3997H166.545V23.6886H176.554V22.3997H174.133ZM177.836 15.0364V16.2894H181.518C181.29 18.724 180.067 20.4425 177.25 21.7924L178.076 23.0323C181.996 21.1467 183.137 18.4018 183.137 15.0364H177.836ZM184.824 13.8907V24.8821H186.419V13.8907H184.824ZM188.504 15.0364V16.2894H192.184C191.956 18.724 190.734 20.4425 187.917 21.7924L188.744 23.0323C192.664 21.1467 193.805 18.4018 193.805 15.0364H188.504ZM195.492 13.8907V24.8821H197.086V13.8907H195.492ZM198.98 15.2631V16.5162H201.773C201.569 18.6763 200.634 20.2635 198.417 21.5551L199.34 22.653C202.42 20.8629 203.331 18.3434 203.331 15.2658L198.98 15.2631ZM206.505 13.9026V18.0438H205.522V14.1877H204.048V24.4286H205.522V19.3088H206.505V24.894H208.021V13.9026H206.505ZM213.281 17.9722H211.11V16.8742H213.281V17.9722ZM214.84 14.38H213.281V15.6927H211.11V14.38H209.552V19.2014H214.838L214.84 14.38ZM212.216 22.901H217.921V19.9174H210.631V21.1109H216.358V21.7792H210.64V24.8105H218.228V23.5932H212.216V22.901ZM217.921 16.0269V13.9053H216.339V19.4918H217.921V17.3038H219.372V16.0269H217.921ZM224.166 16.2536H226.444V14.9528H220.259V16.2536H222.56V16.8623C222.56 18.736 221.661 20.7528 219.815 21.5763L220.714 22.8294C221.358 22.5031 221.927 22.0488 222.387 21.4945C222.846 20.9402 223.187 20.2978 223.387 19.6071C223.6 20.2537 223.945 20.8494 224.4 21.3567C224.856 21.8641 225.412 22.272 226.033 22.5549L226.899 21.3137C226.054 20.9223 225.344 20.2909 224.858 19.4989C224.372 18.7069 224.133 17.7896 224.169 16.8623L224.166 16.2536ZM227.462 13.9026V24.894H229.045V13.9026H227.462ZM236.198 20.2874V21.3615H238.271V22.2327H239.851V13.9026H238.269V20.2874H236.198ZM234.076 15.4182C234.809 15.4182 235.323 15.7047 235.323 16.2417C235.323 16.7787 234.807 17.0532 234.076 17.0532C233.333 17.0532 232.818 16.7787 232.818 16.2417C232.818 15.7047 233.333 15.4182 234.076 15.4182ZM234.076 18.1989C235.682 18.1989 236.821 17.4113 236.821 16.2417C236.821 15.0722 235.682 14.2726 234.076 14.2726C232.458 14.2726 231.319 15.0722 231.319 16.2417C231.319 17.4113 232.459 18.1989 234.076 18.1989ZM233.489 23.45V21.9449H235.011V19.8697C235.895 19.8148 236.776 19.7112 237.648 19.5594L237.54 18.4376C235.207 18.6837 232.862 18.7943 230.516 18.7691L230.72 20.0222C231.547 20.0222 232.47 20.0103 233.441 19.9625V21.4304H231.909V24.703H240.096V23.45H233.489ZM250.639 13.9026H249.14V22.1239H250.639V13.9026ZM246.938 21.803H248.412V14.0936H246.938V16.4088H245.631V17.6857H246.938V21.803ZM246.614 19.2491C246.015 18.9623 245.515 18.5057 245.176 17.9367C244.837 17.3676 244.674 16.7115 244.708 16.0508V14.6425H243.177V16.0508C243.201 16.768 243.017 17.477 242.647 18.0929C242.277 18.7088 241.737 19.2055 241.091 19.5236L241.957 20.717C242.879 20.2714 243.598 19.4957 243.97 18.545C244.301 19.3836 244.94 20.0659 245.756 20.4545L246.614 19.2491ZM244.792 23.45V21.1705H243.21V24.703H250.917V23.45H244.792ZM253.974 19.1059H257.138V17.8767H253.974V16.0866H257.509V14.8215H252.403V22.4236H253.302C254.93 22.4611 256.557 22.3653 258.169 22.1372L258.025 20.8722C256.684 21.0731 255.329 21.1689 253.974 21.1586V19.1059ZM259.583 13.8907V17.768H257.689V19.0343H259.583V24.9179H261.165V13.8907H259.583Z" fill="#323232"/>
<path d="M73.1752 30.1072V31.7945C73.163 31.921 73.1986 32.0475 73.2751 32.1493C73.3184 32.1872 73.369 32.216 73.4238 32.2338C73.4787 32.2516 73.5366 32.258 73.5941 32.2527H76.5906V30.1072H73.1752ZM73.961 31.5121V30.6416H75.8069V31.7176H74.1607C74.1332 31.7203 74.1054 31.7167 74.0795 31.7071C74.0535 31.6976 74.0301 31.6823 74.0109 31.6625C73.9917 31.6427 73.9772 31.6188 73.9686 31.5927C73.9599 31.5665 73.9573 31.5387 73.961 31.5114" fill="#77808A"/>
<path d="M73.2984 26.5402V27.0706H72.2683V27.6043H73.2924V27.6514C73.2873 28.0072 73.1772 28.3535 72.9759 28.6475C72.7747 28.9415 72.4911 29.1701 72.1604 29.305C72.1764 29.3375 72.3988 29.7691 72.4148 29.8035C72.696 29.7034 72.957 29.5539 73.1852 29.362C73.4024 29.1908 73.5721 28.9671 73.678 28.7122L73.7146 28.6181L73.7586 28.7083C73.8862 28.9468 74.0627 29.156 74.2766 29.3222C74.4818 29.4924 74.7159 29.6246 74.9679 29.7127C74.9838 29.6789 75.1923 29.2619 75.2063 29.2334C74.8743 29.1237 74.5866 28.9106 74.3857 28.6256C74.1847 28.3406 74.0811 27.9989 74.0902 27.6508V27.6037H75.121V27.07H74.0842V26.5396L73.2984 26.5402Z" fill="#77808A"/>
<path d="M75.8049 26.6675V28.0412H74.8846V28.565H75.8049V29.7584H76.5847V26.6675H75.8049Z" fill="#77808A"/>
<path d="M80.4982 26.6675V28.3913C80.5047 28.4667 80.4942 28.5427 80.4675 28.6136C80.4408 28.6845 80.3985 28.7485 80.3437 28.801C80.1947 28.9045 80.0221 28.9694 79.8416 28.99C79.5111 29.0398 79.177 29.062 78.8428 29.0563C78.6469 29.06 78.4511 29.0496 78.2568 29.0251C78.1902 29.0145 78.0756 28.9675 78.0756 28.7792V27.2874H79.6672V26.747H77.2919V28.935C77.2809 29.0881 77.3114 29.2413 77.3804 29.3785C77.423 29.4375 77.4786 29.4861 77.5428 29.5206C77.6071 29.555 77.6784 29.5745 77.7513 29.5774C77.9515 29.599 78.1527 29.6087 78.354 29.6066C78.8225 29.6183 79.291 29.5829 79.7524 29.5012C80.0039 29.4632 80.2369 29.3472 80.4183 29.1697L80.4955 29.0782V30.4254H81.2813V28.5471H82.1164V28.0034H81.2813V26.6675H80.4982Z" fill="#77808A"/>
<path d="M77.9824 30.2266V31.7051C77.9719 31.8127 78.001 31.9203 78.0644 32.0081C78.101 32.0389 78.1434 32.0622 78.1891 32.0767C78.2348 32.0911 78.2829 32.0964 78.3307 32.0923H81.4292V31.5453H78.9653C78.9388 31.5486 78.9118 31.546 78.8864 31.5375C78.861 31.529 78.8379 31.5149 78.8187 31.4963C78.7995 31.4778 78.7848 31.4551 78.7756 31.4301C78.7664 31.405 78.7629 31.3783 78.7656 31.3517V30.2246L77.9824 30.2266Z" fill="#77808A"/>
<path d="M88.0103 26.7717V27.3121H90.8124V28.0414H87.9997V29.451C87.9883 29.5737 88.0224 29.6963 88.0956 29.7957C88.1425 29.8348 88.1969 29.8641 88.2555 29.8818C88.3141 29.8994 88.3756 29.9051 88.4365 29.8985H88.6489V30.8784H87.4097V31.4221H92.1856V30.8784H90.9456V29.8972H91.6621V29.3575H88.9719C88.9013 29.3575 88.7828 29.3303 88.7828 29.1513V28.5811H91.5962V26.7717H88.0103ZM89.414 30.8559V29.8972H90.1792V30.8771H89.414V30.8559Z" fill="#77808A"/>
<path d="M95.7727 26.6675V30.4267H96.5551V28.4855H97.3929V27.9438H96.5551V26.6675H95.7727Z" fill="#77808A"/>
<path d="M93.4381 26.7397V27.1508C93.4553 27.615 93.3641 28.0769 93.1717 28.5C92.9684 28.8701 92.6601 29.1724 92.2854 29.3692C92.304 29.3984 92.5711 29.8208 92.5937 29.8519C92.8722 29.7136 93.1243 29.528 93.3389 29.3036C93.5467 29.1042 93.7046 28.8589 93.7997 28.5876L93.8376 28.4603L93.8822 28.5842C93.9935 28.8521 94.1608 29.0933 94.373 29.2917C94.569 29.4973 94.8042 29.6618 95.0649 29.7757C95.0842 29.7445 95.3313 29.3381 95.3532 29.3082C94.9819 29.0865 94.6802 28.766 94.482 28.3827C94.2839 27.9994 94.1972 27.5686 94.2318 27.1389V26.7411L93.4381 26.7397Z" fill="#77808A"/>
<path d="M93.3003 30.2265V31.7223C93.2886 31.8253 93.3177 31.9288 93.3815 32.0107C93.4621 32.0725 93.5633 32.1015 93.6645 32.0916H96.7556V31.5446H94.2838C94.2572 31.548 94.2302 31.5454 94.2047 31.537C94.1793 31.5286 94.1561 31.5145 94.1369 31.4959C94.1177 31.4773 94.1029 31.4546 94.0938 31.4295C94.0846 31.4044 94.0813 31.3776 94.084 31.351V30.2239L93.3003 30.2265Z" fill="#77808A"/>
<path d="M62.5661 28.2913C62.5661 28.6637 62.6904 29.0256 62.9194 29.3201C63.1484 29.6146 63.4691 29.825 63.8313 29.9183L63.8473 29.9223L63.8646 29.9428V30.5634H61.8269V31.1058H66.688V30.5634H64.645V29.9263L64.6777 29.9183C64.9832 29.8395 65.2605 29.6769 65.4779 29.449C65.6953 29.2212 65.8442 28.9372 65.9077 28.6294C65.9712 28.3215 65.9467 28.0021 65.837 27.7074C65.7274 27.4127 65.5369 27.1545 65.2873 26.9621C65.0376 26.7698 64.7388 26.651 64.4248 26.6192C64.1108 26.5874 63.7941 26.644 63.5107 26.7824C63.2273 26.9208 62.9885 27.1356 62.8216 27.4023C62.6546 27.669 62.5661 27.977 62.5661 28.2913ZM63.3598 28.2913C63.386 28.1204 63.4608 27.9606 63.5754 27.8308C63.6901 27.701 63.8397 27.6067 64.0066 27.5591C64.1735 27.5115 64.3506 27.5126 64.5168 27.5622C64.6831 27.6118 64.8316 27.7079 64.9447 27.839C65.0577 27.9702 65.1306 28.1309 65.1547 28.3021C65.1787 28.4732 65.1529 28.6477 65.0804 28.8047C65.0078 28.9617 64.8915 29.0947 64.7453 29.1878C64.5991 29.281 64.4291 29.3304 64.2555 29.3302C63.9988 29.3095 63.7607 29.1888 63.5929 28.9942C63.4252 28.7997 63.3414 28.547 63.3598 28.2913Z" fill="#77808A"/>
<path d="M68.9168 26.6562V26.702C68.9168 27.4525 68.3674 27.9577 67.2833 28.2064C67.2993 28.2448 67.4698 28.6937 67.4831 28.7235C67.8794 28.6562 68.2619 28.5242 68.6151 28.333C68.9046 28.191 69.1434 27.9643 69.2997 27.6833L69.3337 27.607L69.3769 27.6826C69.5599 27.9692 69.8183 28.2004 70.1241 28.3509C70.4535 28.5385 70.8146 28.6648 71.1895 28.7235C71.2022 28.6904 71.3607 28.2541 71.376 28.2143C70.934 28.1359 70.5186 27.9491 70.1674 27.6707C70.0264 27.5529 69.9134 27.4055 69.8366 27.239C69.7598 27.0725 69.7211 26.8912 69.7232 26.708V26.6569L68.9168 26.6562Z" fill="#77808A"/>
<path d="M68.9295 28.4783V29.2215H66.8905V29.7519H71.7516V29.2215H69.7086V28.4783H68.9295Z" fill="#77808A"/>
<path d="M67.7515 31.2245C67.8476 31.5646 68.0528 31.8641 68.3357 32.0774C68.6186 32.2907 68.9638 32.4062 69.3187 32.4062C69.6736 32.4062 70.0187 32.2907 70.3016 32.0774C70.5845 31.8641 70.7897 31.5646 70.8859 31.2245C70.7897 30.8843 70.5845 30.5848 70.3016 30.3715C70.0187 30.1582 69.6736 30.0427 69.3187 30.0427C68.9638 30.0427 68.6186 30.1582 68.3357 30.3715C68.0528 30.5848 67.8476 30.8843 67.7515 31.2245ZM68.5079 31.2245C68.4746 31.0578 68.4938 30.885 68.5629 30.7296C68.632 30.5742 68.7477 30.4439 68.8941 30.3565C69.0405 30.2691 69.2104 30.229 69.3806 30.2415C69.5508 30.254 69.713 30.3186 69.8449 30.4264C69.9768 30.5342 70.072 30.68 70.1175 30.8438C70.163 31.0076 70.1565 31.1814 70.0989 31.3414C70.0413 31.5014 69.9355 31.6397 69.7958 31.7375C69.6562 31.8352 69.4897 31.8876 69.319 31.8875C69.1236 31.9046 68.9292 31.8447 68.7776 31.7208C68.6259 31.5968 68.5291 31.4187 68.5079 31.2245Z" fill="#77808A"/>
<path d="M86.0918 26.6675V29.8281C86.0918 30.1881 85.8567 30.4029 85.3913 30.4652C84.8531 30.5133 84.3127 30.5317 83.7725 30.5202H82.4147V31.0613H83.7791C84.3891 31.0613 84.782 31.0526 84.9478 31.0374C85.3346 31.0498 85.7129 30.9229 86.0132 30.68L86.0918 30.5905V32.1817H86.8762V26.6675H86.0918Z" fill="#77808A"/>
<path d="M82.5159 28.2137C82.5184 28.5117 82.6094 28.8022 82.7774 29.0486C82.9455 29.2951 83.183 29.4866 83.4602 29.5989C83.7374 29.7112 84.0417 29.7393 84.3348 29.6796C84.628 29.62 84.8969 29.4753 85.1076 29.2637C85.3183 29.0522 85.4614 28.7833 85.5188 28.4909C85.5763 28.1986 85.5455 27.8958 85.4305 27.6208C85.3154 27.3458 85.1211 27.1109 84.8722 26.9456C84.6232 26.7803 84.3307 26.6921 84.0315 26.6921C83.6279 26.6941 83.2416 26.8554 82.9575 27.1407C82.6733 27.426 82.5145 27.8119 82.5159 28.2137ZM83.2484 28.2137C83.2717 28.0651 83.3373 27.9262 83.4374 27.8135C83.5376 27.7008 83.6681 27.6191 83.8135 27.578C83.9588 27.5369 84.113 27.5382 84.2577 27.5816C84.4024 27.6251 84.5315 27.7089 84.6298 27.8232C84.7281 27.9375 84.7914 28.0775 84.8122 28.2265C84.8331 28.3755 84.8106 28.5274 84.7474 28.6641C84.6842 28.8008 84.583 28.9165 84.4558 28.9977C84.3286 29.0789 84.1806 29.122 84.0295 29.1221C83.8056 29.1029 83.5983 28.997 83.4522 28.8271C83.3061 28.6572 83.2329 28.4369 83.2484 28.2137Z" fill="#77808A"/>
<path d="M101.478 29.9509V30.5026H99.633V29.9509H98.8485V31.8007C98.836 31.927 98.8693 32.0535 98.9424 32.1574C98.9855 32.1957 99.0361 32.2246 99.091 32.2423C99.146 32.26 99.204 32.2661 99.2614 32.2602H102.258V29.9509H101.478ZM99.633 31.513V31.0369H101.478V31.7185H99.8341C99.8066 31.7213 99.7788 31.7178 99.7529 31.7083C99.7269 31.6988 99.7035 31.6837 99.6842 31.6639C99.665 31.6441 99.6505 31.6203 99.6419 31.5941C99.6332 31.568 99.6307 31.5403 99.6343 31.513" fill="#77808A"/>
<path d="M97.8205 28.109C97.8174 28.4744 97.9528 28.8274 98.1997 29.0978C98.4465 29.3681 98.7866 29.5359 99.1522 29.5676C99.5178 29.5993 99.8819 29.4927 100.172 29.2689C100.462 29.0451 100.657 28.7207 100.717 28.3603L100.722 28.3239H101.478V29.6121H102.257V26.675H101.478V27.7822H100.702L100.694 27.7497C100.609 27.404 100.399 27.1015 100.105 26.8997C99.8102 26.6978 99.4515 26.6108 99.0968 26.6551C98.7421 26.6994 98.4161 26.8719 98.1808 27.1398C97.9454 27.4078 97.8172 27.7531 97.8205 28.109ZM98.6016 28.1084C98.6269 27.9803 98.6881 27.8621 98.7783 27.7674C98.8685 27.6727 98.9839 27.6055 99.1109 27.5737C99.238 27.5418 99.3716 27.5465 99.496 27.5873C99.6205 27.6281 99.7308 27.7033 99.814 27.8041C99.8971 27.905 99.9498 28.0272 99.9659 28.1567C99.9819 28.2862 99.9606 28.4176 99.9046 28.5355C99.8485 28.6535 99.7599 28.7531 99.6491 28.8228C99.5383 28.8925 99.4099 28.9294 99.2788 28.9292C99.0808 28.9073 98.8991 28.8092 98.7726 28.6559C98.6461 28.5025 98.5848 28.3061 98.6016 28.1084Z" fill="#77808A"/>
<path d="M107.486 26.6921H106.708V30.4395H107.486V26.6921Z" fill="#77808A"/>
<path d="M104.044 30.2637V31.7475C104.044 31.9988 104.156 32.1181 104.401 32.1181H107.654V31.5685H105.027C105 31.5719 104.973 31.5693 104.948 31.5609C104.923 31.5525 104.899 31.5385 104.88 31.52C104.861 31.5014 104.846 31.4788 104.837 31.4538C104.828 31.4288 104.824 31.402 104.827 31.3755V30.2637H104.044Z" fill="#77808A"/>
<path d="M103.244 26.7771V27.3188H104.223V27.5906C104.233 27.9804 104.126 28.3642 103.916 28.6933C103.706 29.0224 103.402 29.282 103.044 29.4391L103.342 29.929C103.631 29.8107 103.895 29.6404 104.122 29.4265C104.341 29.2391 104.51 29.0003 104.613 28.7317L104.65 28.6229L104.696 28.7297C104.818 28.9891 104.994 29.22 105.211 29.4073C105.415 29.6031 105.653 29.7604 105.913 29.8714C105.933 29.8376 106.194 29.3953 106.2 29.3841C105.839 29.2207 105.533 28.9559 105.321 28.6223C105.132 28.3143 105.034 27.9599 105.038 27.5992V27.3214H106.024V26.7798L103.244 26.7771Z" fill="#77808A"/>
<path d="M112.963 29.4019H108.1V29.9303H112.963V29.4019Z" fill="#77808A"/>
<path d="M110.138 26.4866V26.9832H108.621V27.4877H109.554L109.479 27.5633C109.398 27.6394 109.333 27.7309 109.288 27.8324C109.243 27.9338 109.219 28.0432 109.217 28.154C109.266 28.4557 109.429 28.727 109.674 28.9113C109.919 29.0955 110.225 29.1784 110.53 29.1426C111.254 29.1426 111.845 28.699 111.845 28.154C111.842 28.0429 111.817 27.9334 111.772 27.832C111.726 27.7305 111.66 27.6392 111.579 27.5633L111.504 27.4877H112.428V26.9832H110.919V26.4866H110.138ZM109.938 28.1547C109.918 28.0341 109.936 27.9104 109.989 27.8002C110.042 27.69 110.128 27.5986 110.234 27.5385C110.341 27.4783 110.464 27.4523 110.586 27.4639C110.708 27.4755 110.824 27.5241 110.917 27.6033C111.011 27.6824 111.078 27.7882 111.109 27.9064C111.14 28.0246 111.134 28.1495 111.092 28.2641C111.049 28.3788 110.973 28.4777 110.872 28.5476C110.771 28.6174 110.651 28.6548 110.529 28.6546C110.384 28.6655 110.241 28.619 110.13 28.5255C110.02 28.4319 109.951 28.2987 109.938 28.1547Z" fill="#77808A"/>
<path d="M117.29 26.6941V28.3589H116.795V26.6941H116.137V32.1434H116.795V28.9006H117.29V32.2064H117.963V26.6941H117.29Z" fill="#77808A"/>
<path d="M113.31 26.783V27.3233H114.166V27.5653C114.171 28.1463 114.095 28.7252 113.939 29.2852C113.792 29.7474 113.534 30.1668 113.187 30.5071C113.211 30.5336 113.586 30.8843 113.604 30.9049C113.83 30.7125 114.023 30.485 114.176 30.2313C114.352 29.9754 114.481 29.6902 114.556 29.3893V29.3283L114.547 29.37L114.551 29.3873C114.64 29.6885 114.775 29.9744 114.951 30.2353C115.085 30.4716 115.259 30.6834 115.464 30.8618C115.493 30.832 115.853 30.4852 115.878 30.4574C115.545 30.1297 115.301 29.7241 115.167 29.2779C114.995 28.7224 114.909 28.1444 114.911 27.5633V27.3233H115.759V26.783H113.31Z" fill="#77808A"/>
<path d="M119.38 30.2517V31.7289C119.368 31.8361 119.397 31.9438 119.462 32.0306C119.499 32.0628 119.542 32.0871 119.589 32.102C119.635 32.1168 119.685 32.1218 119.733 32.1168H122.823V31.5704H120.365C120.339 31.5737 120.312 31.5711 120.287 31.5626C120.261 31.5542 120.238 31.5402 120.219 31.5217C120.2 31.5031 120.185 31.4806 120.176 31.4556C120.167 31.4307 120.163 31.404 120.166 31.3775V30.2517H119.38Z" fill="#77808A"/>
<path d="M121.84 26.6941V28.4179C121.846 28.4932 121.836 28.5689 121.809 28.6395C121.782 28.7102 121.74 28.774 121.685 28.8263C121.536 28.9297 121.364 28.995 121.183 29.0166C120.853 29.0668 120.518 29.089 120.184 29.0829C119.989 29.0859 119.793 29.0755 119.599 29.0518C119.542 29.0425 119.491 29.0112 119.457 28.9648C119.423 28.9185 119.409 28.8606 119.417 28.8038V27.3127H121.007V26.771H118.633V28.9589C118.622 29.1123 118.653 29.2657 118.723 29.4032C118.765 29.4624 118.821 29.5111 118.886 29.5456C118.95 29.58 119.022 29.5994 119.095 29.6021C119.294 29.624 119.494 29.6335 119.694 29.6306C120.163 29.6424 120.631 29.6073 121.093 29.5258C121.345 29.4876 121.578 29.3703 121.758 29.191L121.837 29.1002V30.4467H122.621V28.5697H123.458V28.0281H122.625V26.6941H121.84Z" fill="#77808A"/>
<path d="M110.531 30.1562C109.656 30.1562 108.944 30.6608 108.944 31.2834C108.944 31.9059 109.656 32.4105 110.531 32.4105C111.407 32.4105 112.119 31.9053 112.119 31.2834C112.119 30.6615 111.408 30.1562 110.531 30.1562ZM110.531 31.835C110.091 31.835 109.732 31.585 109.732 31.2807C109.732 30.9764 110.088 30.7258 110.531 30.7258C110.974 30.7258 111.33 30.9744 111.33 31.2807C111.33 31.587 110.974 31.835 110.531 31.835Z" fill="#77808A"/>
<mask id="mask0_41_294" style="mask-type:luminance" maskUnits="userSpaceOnUse" x="7" y="2" width="26" height="31">
<path d="M30.2336 29.9779C30.2413 29.9636 30.2465 29.9481 30.2489 29.9321C30.2443 29.9474 30.2389 29.9633 30.2336 29.9779ZM30.1357 2.20439C31.5621 2.54916 27.0113 5.11169 18.5649 8.59117C9.81427 12.1993 6.6339 14.6749 7.2412 19.2928C7.80922 23.6415 18.5157 31.656 25.0049 32.9435C26.1007 33.1139 27.2209 32.8739 28.1493 32.2699C29.601 31.2847 30.0099 30.6349 30.2336 29.9779C30.175 30.0999 29.8967 30.4062 28.6008 30.1768C20.6825 28.7613 13.0852 20.2429 13.3249 17.1937C13.4581 15.5408 14.0807 14.5854 17.5201 12.7708C21.5415 10.6491 25.495 8.743 28.7273 6.94558C31.6713 5.31126 32.7741 3.82081 32.8719 3.20355C33.0184 2.3118 31.5681 2.18384 30.7204 2.18384C30.3781 2.18384 30.1331 2.20439 30.1331 2.20439" fill="white"/>
</mask>
<g mask="url(#mask0_41_294)">
<path d="M25.0779 -9.8486L-7.59192 11.4734L14.5538 45.1108L47.2236 23.7888L25.0779 -9.8486Z" fill="#3E6DAA"/>
</g>
<path d="M6.13513 26.9858L10.6866 5.2749H6.65654C6.2112 5.27548 5.77863 5.42306 5.42654 5.69456C5.07445 5.96606 4.82272 6.34614 4.71076 6.77529L0.165283 28.4929H4.19801C4.64307 28.4912 5.07495 28.3423 5.42565 28.0695C5.77634 27.7966 6.02594 27.4154 6.13513 26.9858Z" fill="#3E6DAA"/>
<mask id="mask1_41_294" style="mask-type:luminance" maskUnits="userSpaceOnUse" x="17" y="14" width="14" height="17">
<path d="M17.1759 16.342C20.3303 20.7178 22.5218 23.4713 23.9928 26.8175C24.6713 28.3351 24.969 29.0134 24.5142 29.6287C26.1044 29.6287 28.2153 30.5715 29.7695 30.5715C29.896 30.3679 30.1691 30.1737 30.2496 29.9337C30.4328 29.4463 30.3062 28.66 29.5245 27.035C27.923 23.6868 23.9695 18.9701 19.5778 14.0884L17.1759 16.342Z" fill="white"/>
</mask>
<g mask="url(#mask1_41_294)">
<path d="M26.0026 7.86702L9.36487 19.6008L21.6026 36.8024L38.2403 25.0686L26.0026 7.86702Z" fill="url(#paint0_linear_41_294)"/>
</g>
<mask id="mask2_41_294" style="mask-type:luminance" maskUnits="userSpaceOnUse" x="14" y="0" width="19" height="17">
<path d="M29.8516 0C24.8126 0.0205533 17.8772 2.71834 15.6138 4.97722C12.9262 7.65047 14.1002 11.9342 17.1767 16.3425L19.5786 14.0883C18.4333 12.7298 14.6656 9.02025 18.4286 6.45772C21.1721 4.59201 29.442 2.2065 32.097 2.59237C32.5844 2.68055 32.8415 2.87349 32.8754 3.20366C32.9548 2.7295 32.9469 2.24491 32.8521 1.77355C32.7633 1.30588 32.5206 0.88101 32.1622 0.566068C31.8038 0.251126 31.3502 0.064076 30.8731 0.0344765C30.5821 0.0125972 30.2811 0 29.9748 0H29.8516Z" fill="white"/>
</mask>
<g mask="url(#mask2_41_294)">
<path d="M30.255 -6.88228L7.27722 2.24365L15.6834 23.2254L38.6611 14.0994L30.255 -6.88228Z" fill="url(#paint1_linear_41_294)"/>
</g>
<mask id="mask3_41_294" style="mask-type:luminance" maskUnits="userSpaceOnUse" x="17" y="27" width="14" height="6">
<path d="M30.2343 29.9779C30.242 29.9636 30.2472 29.9482 30.2496 29.9322C30.245 29.9474 30.2396 29.962 30.2343 29.9779ZM17.337 29.6212C19.6924 31.1412 22.2833 32.2642 25.0056 32.9449C26.1015 33.1162 27.2223 32.8769 28.1514 32.2733C29.603 31.288 30.0119 30.6383 30.2356 29.9812C30.1777 30.1032 29.8994 30.4095 28.6028 30.1801C26.1002 29.6684 23.7245 28.6671 21.6135 27.2344L17.337 29.6212Z" fill="white"/>
</mask>
<g mask="url(#mask3_41_294)">
<path d="M18.7108 23.2696L15.5298 32.449L28.8762 37.0339L32.0573 27.8545L18.7108 23.2696Z" fill="url(#paint2_linear_41_294)"/>
</g>
<path d="M79.8084 23.1569L81.6936 14.0803H79.9662L79.1432 17.998H74.5085L75.3289 14.0803H73.5975L71.5332 23.9419H72.4721C72.6995 23.9449 72.9206 23.8678 73.0965 23.7243C73.2724 23.5808 73.3918 23.3801 73.4337 23.1576L74.2035 19.4938H78.8349L77.9026 23.9426H78.8349C79.0626 23.9449 79.284 23.8677 79.4605 23.7245C79.637 23.5812 79.7575 23.3808 79.8011 23.1583" fill="#921A34"/>
<path d="M96.8448 14.7243C96.7443 14.1693 96.382 14.0679 95.9505 14.0679H94.8897L88.9392 23.9534H90.1212C90.315 23.9719 90.51 23.9345 90.6831 23.8458C90.8562 23.757 91 23.6206 91.0974 23.4528L92.33 21.3311H96.2835L96.683 23.9534H98.4523L96.8448 14.7243ZM93.0678 20.0197L95.4651 15.8129H95.4884L96.099 20.0197H93.0678Z" fill="#921A34"/>
<path d="M106.32 23.1544L106.457 22.4728H101.416L103.172 14.0671H101.43L99.3601 23.9732H105.126C105.39 23.9964 105.654 23.9273 105.873 23.7777C106.091 23.6282 106.251 23.4076 106.324 23.1537" fill="#921A34"/>
<path d="M114.685 14.8024L114.833 14.1301H106.662L106.358 15.6206H109.626L107.887 23.952H109.625L111.356 15.6206H113.499C113.761 15.643 114.023 15.5734 114.239 15.4239C114.455 15.2743 114.611 15.0542 114.681 14.8018" fill="#921A34"/>
<path d="M90.2731 14.7818L90.4189 14.0803H83.2271L81.1688 23.9419H87.5429C87.7861 23.9695 88.0307 23.9037 88.2269 23.758C88.4231 23.6122 88.5562 23.3976 88.599 23.1576L88.7322 22.4468H83.1845L83.7798 19.5614H87.9751C88.4965 19.5614 88.9333 19.4209 89.0551 18.8076L89.1883 18.1598H84.0828L84.6242 15.5741H89.1078C89.6864 15.5741 90.1419 15.405 90.2724 14.7831" fill="#921A34"/>
<path d="M121.983 23.1569L123.875 14.0803H122.144L121.324 17.998H116.688L117.505 14.0803H115.769L113.72 23.9419H114.652C114.879 23.9439 115.099 23.8665 115.275 23.7231C115.45 23.5798 115.57 23.3796 115.612 23.1576L116.379 19.4938H121.016L120.091 23.9426H121.031C121.257 23.9428 121.476 23.8646 121.65 23.7215C121.825 23.5783 121.943 23.3791 121.986 23.1583" fill="#921A34"/>
<path d="M35.0554 8.67139H42.409C46.6708 8.67139 47.3321 10.3859 47.3321 12.1018C47.3321 14.1684 46.228 15.5766 44.4148 15.9711V16.0169C45.08 16.2049 45.662 16.6108 46.0669 17.1689C46.4719 17.727 46.6759 18.4047 46.6462 19.0926C46.6462 22.281 44.0885 24.3483 39.4711 24.3688H31.7645L35.0554 8.67139ZM36.5138 21.1592H39.7348C41.1705 21.1592 42.5409 20.8522 42.5409 19.1609C42.5409 17.7069 41.2151 17.5988 40.1563 17.5988H37.2636L36.5138 21.1592ZM37.8389 14.8487H40.7503C42.409 14.8487 43.2261 14.3182 43.2261 13.1142C43.2261 11.9685 42.0321 11.883 41.1478 11.883H38.4536L37.8389 14.8487Z" fill="#3E6DAA"/>
<path d="M64.013 8.34277C66.7486 8.34277 71.031 9.35453 71.031 14.9815C71.031 20.5004 67.7681 24.7006 62.1079 24.7006C57.7129 24.7006 55.1744 22.1281 55.1744 17.7535C55.1744 12.5429 58.5786 8.34277 64.011 8.34277M62.4421 21.3378C65.4014 21.3378 66.9257 17.8198 66.9257 15.3369C66.9257 13.0051 66.0873 11.7082 63.8765 11.7082C60.6981 11.7082 59.2817 15.1817 59.2817 17.7761C59.2817 19.7989 60.256 21.3371 62.4401 21.3371" fill="#3E6DAA"/>
<path d="M52.0121 22.5688L54.9208 8.67149H52.6567C52.1345 8.66641 51.627 8.84363 51.2224 9.17235C50.8178 9.50107 50.5416 9.96053 50.4419 10.4709L47.5272 24.3702H49.7913C50.3149 24.377 50.8242 24.2003 51.2302 23.871C51.6362 23.5417 51.9129 23.0808 52.0121 22.5688Z" fill="#3E6DAA"/>
<path d="M125.003 23.9458C124.639 23.9459 124.282 23.8384 123.979 23.6368C123.676 23.4352 123.44 23.1486 123.3 22.8132C123.16 22.4778 123.124 22.1088 123.195 21.7527C123.266 21.3967 123.442 21.0696 123.699 20.8129C123.957 20.5562 124.286 20.3814 124.643 20.3106C125.001 20.2398 125.372 20.2762 125.708 20.4152C126.045 20.5542 126.333 20.7895 126.536 21.0914C126.738 21.3933 126.846 21.7482 126.846 22.1113C126.845 22.5976 126.651 23.0638 126.306 23.4077C125.96 23.7516 125.492 23.9451 125.003 23.9458ZM125.003 20.7362C124.73 20.7363 124.464 20.817 124.237 20.9681C124.01 21.1192 123.833 21.3338 123.729 21.5849C123.624 21.8361 123.597 22.1124 123.65 22.3789C123.704 22.6455 123.835 22.8903 124.028 23.0825C124.221 23.2746 124.467 23.4055 124.735 23.4586C125.002 23.5116 125.28 23.4845 125.532 23.3805C125.784 23.2766 126 23.1005 126.152 22.8746C126.303 22.6487 126.384 22.383 126.385 22.1113C126.384 21.7467 126.239 21.3971 125.98 21.1393C125.721 20.8815 125.37 20.7365 125.003 20.7362Z" fill="#921A34"/>
<path d="M125.364 23.0065L124.869 22.2985H124.567V23.0065H124.25V21.2124H124.995C125.079 21.2116 125.164 21.2248 125.244 21.2516C125.317 21.2754 125.385 21.3135 125.444 21.3636C125.5 21.4102 125.545 21.4683 125.577 21.534C125.61 21.603 125.627 21.6788 125.626 21.7554C125.628 21.868 125.589 21.9774 125.516 22.0637C125.443 22.1541 125.347 22.2229 125.237 22.2626L125.755 23.0118L125.364 23.0065ZM125.098 21.9848C125.132 21.9761 125.165 21.9613 125.194 21.9411C125.221 21.9203 125.243 21.8944 125.26 21.8648C125.279 21.8306 125.289 21.7919 125.288 21.7528C125.291 21.7169 125.285 21.6809 125.269 21.6484C125.254 21.6158 125.23 21.5878 125.2 21.5671C125.143 21.5289 125.076 21.5088 125.007 21.5095H124.563V21.9994H124.989C125.025 21.9993 125.061 21.9947 125.095 21.9855" fill="#891B31"/>
</g>
<defs>
<linearGradient id="paint0_linear_41_294" x1="19.8787" y1="16.7841" x2="26.856" y2="28.3849" gradientUnits="userSpaceOnUse">
<stop stop-color="#AF2842"/>
<stop offset="1" stop-color="#791428"/>
</linearGradient>
<linearGradient id="paint1_linear_41_294" x1="11.0136" y1="39.6236" x2="11.748" y2="39.3293" gradientUnits="userSpaceOnUse">
<stop stop-color="#921A34"/>
<stop offset="0.408" stop-color="#951B35"/>
<stop offset="0.72" stop-color="#9E203A"/>
<stop offset="1" stop-color="#AF2842"/>
</linearGradient>
<linearGradient id="paint2_linear_41_294" x1="22.0608" y1="30.1523" x2="26.6081" y2="34.6557" gradientUnits="userSpaceOnUse">
<stop stop-color="#3E6DAA"/>
<stop offset="1" stop-color="#5D8BC0"/>
</linearGradient>
<clipPath id="clip0_41_294">
<rect width="261" height="33" fill="white" transform="translate(0.165283)"/>
</clipPath>
</defs>
</svg>
