<svg width="157" height="29" viewBox="0 0 157 29" fill="none" xmlns="http://www.w3.org/2000/svg">
<g clip-path="url(#clip0_41_54)">
<path d="M4.5885 26.7039H0V2.13965H4.5885V26.7039ZM5.03738 13.5261C5.67744 12.6553 6.35907 11.7514 7.09057 10.806C7.82207 9.86054 8.57019 8.90683 9.32663 7.94483C10.0831 6.97454 10.8229 6.00424 11.5544 5.03395C12.2942 4.05536 12.9758 3.09336 13.6159 2.13965H18.5286C17.9051 3.13482 17.2318 4.14658 16.5003 5.19152C15.7688 6.22816 15.029 7.2565 14.2892 8.25997C13.5411 9.27173 12.8096 10.2254 12.103 11.1377C11.3881 12.0499 10.7398 12.8709 10.1745 13.5924L20.0248 26.7039H14.8877L5.03738 13.5261Z" fill="#FF9D00"/>
<path d="M34.7546 13.2358C35.378 13.41 35.9516 13.6671 36.4836 14.0237C37.0156 14.372 37.4728 14.7949 37.8552 15.3091C38.2375 15.815 38.5368 16.4038 38.7612 17.0755C38.9857 17.739 39.0937 18.4605 39.0937 19.2235C39.0937 20.3016 38.8942 21.305 38.4869 22.2256C38.0879 23.1544 37.4645 23.9588 36.6249 24.6472C35.7854 25.3355 34.7297 25.8745 33.4495 26.2726C32.1777 26.6624 30.6649 26.8614 28.9192 26.8614C28.5369 26.8614 28.0547 26.8448 27.4562 26.8117C26.8577 26.7785 26.2177 26.7453 25.5444 26.7038C24.8627 26.6541 24.1811 26.596 23.4995 26.5214C22.8179 26.4468 22.1944 26.3638 21.6208 26.256V3.18456C22.1944 2.95236 22.8012 2.73674 23.433 2.54599C24.073 2.35525 24.7214 2.18939 25.3864 2.04011C26.0431 1.89084 26.6749 1.78303 27.2983 1.70839C27.9134 1.63375 28.4953 1.59229 29.0522 1.59229C30.3656 1.59229 31.5709 1.74985 32.6682 2.0567C33.7654 2.36355 34.7047 2.80308 35.4778 3.37531C36.2509 3.94753 36.8577 4.64415 37.2982 5.45688C37.7305 6.2779 37.9466 7.19014 37.9466 8.21019C37.9466 8.8073 37.8635 9.37123 37.6889 9.90199C37.5227 10.4327 37.2982 10.9138 37.0073 11.345C36.7164 11.7845 36.3839 12.1577 36.0015 12.4729C35.6191 12.7963 35.2035 13.0534 34.7546 13.2358ZM28.728 11.8426C29.3681 11.8426 29.9666 11.7596 30.5152 11.6021C31.0722 11.4445 31.5543 11.2123 31.9699 10.8972C32.3855 10.5903 32.7097 10.2254 32.9591 9.80247C33.2002 9.37952 33.3249 8.89023 33.3249 8.34288C33.3249 7.77066 33.2085 7.27307 32.9757 6.85842C32.7347 6.44376 32.4271 6.11203 32.0447 5.83836C31.6624 5.57298 31.2218 5.38224 30.7064 5.24955C30.1994 5.12515 29.6674 5.05881 29.1104 5.05881C28.4371 5.05881 27.8552 5.10857 27.3731 5.20809C26.8993 5.29931 26.5086 5.39053 26.2094 5.47346V11.8426H28.728ZM34.472 19.1239C34.472 18.4688 34.3307 17.8966 34.0397 17.4073C33.7571 16.918 33.3747 16.5199 32.8926 16.1965C32.4188 15.8813 31.8702 15.6408 31.2467 15.4833C30.6316 15.3257 29.9915 15.2428 29.3349 15.2428H26.2094V23.1378C26.8079 23.2207 27.3232 23.2788 27.7721 23.312C28.221 23.3451 28.7613 23.3617 29.4014 23.3617C30.1412 23.3617 30.8228 23.2871 31.4462 23.1378C32.0614 22.9885 32.5934 22.7397 33.0339 22.3997C33.4828 22.068 33.8319 21.6285 34.0896 21.0811C34.3473 20.5421 34.472 19.8869 34.472 19.1239Z" fill="#FF9D00"/>
<path d="M70.5732 21.7529V25.2277H43.2666V21.7529H70.5732ZM47.1735 18.1122L45.1868 15.0935C46.2924 14.3637 47.4229 13.6091 48.5866 12.8378C49.742 12.0748 50.7479 11.3036 51.5957 10.5489C52.402 9.86058 53.0172 9.15566 53.4494 8.44246C53.8817 7.72095 54.0978 6.85018 54.0978 5.80524V1.65039H58.7195V5.93793C58.7195 6.47699 58.6946 6.97457 58.6281 7.4307C60.3155 8.58344 61.9531 9.76935 63.5242 10.9884C65.0952 12.2158 66.4419 13.3769 67.5474 14.4798C67.722 14.654 67.8134 14.8447 67.8217 15.0604C67.8301 15.276 67.7386 15.5082 67.5474 15.7487L65.7852 17.6644C65.2864 17.2497 64.7046 16.7605 64.0312 16.2048C63.3579 15.6409 62.6347 15.0521 61.8617 14.4467C61.0969 13.8413 60.2989 13.2359 59.4926 12.6471C58.678 12.05 57.88 11.5275 57.0986 11.0714C56.7495 11.5026 56.3505 11.9339 55.9099 12.3485C55.461 12.7715 54.9623 13.2027 54.397 13.6339C53.9399 13.9988 53.4328 14.3803 52.8675 14.7701C52.3023 15.1599 51.7038 15.5497 51.072 15.9394C50.4486 16.3292 49.8002 16.7107 49.1352 17.0756C48.4785 17.4488 47.8219 17.7888 47.1735 18.1122Z" fill="#64594E"/>
<path d="M86.1093 14.1231H76.7993V17.7306C76.7993 18.3941 76.9572 18.9083 77.2648 19.2566C77.5807 19.5966 78.1625 19.7708 79.0104 19.7708C79.7918 19.7708 80.6563 19.7376 81.5956 19.6629C82.5432 19.58 83.5241 19.4722 84.5465 19.3312C85.5607 19.1902 86.608 19.0244 87.672 18.8336C88.7277 18.6346 89.7917 18.4273 90.8557 18.2116V0.223877H95.3528V10.3912H99.6171V13.8992H95.3528V28.9927H90.8557V21.1723C89.9247 21.4543 88.8773 21.7196 87.7136 21.9684C86.5582 22.2172 85.4027 22.4328 84.2473 22.6153C83.1002 22.7977 82.0029 22.947 80.9638 23.0548C79.9248 23.1626 79.052 23.2124 78.362 23.2124C77.2066 23.2124 76.2423 23.1046 75.461 22.8724C74.6796 22.6485 74.0478 22.3085 73.574 21.8523C73.1002 21.3962 72.7511 20.8406 72.5516 20.1937C72.3438 19.5468 72.2357 18.8005 72.2357 17.9546V2.30545H86.4335V5.74709H76.7993V10.7147H86.1093V14.1231Z" fill="#64594E"/>
<path d="M115.918 13.3768C115.918 13.8743 115.652 14.1231 115.103 14.1231H106.608V17.4653C106.608 17.8965 106.641 18.2697 106.708 18.5683C106.774 18.8751 106.907 19.1322 107.115 19.3312C107.323 19.5385 107.605 19.6878 107.963 19.7873C108.32 19.8869 108.794 19.9366 109.376 19.9366C110.157 19.9366 111.063 19.8869 112.077 19.7873C113.1 19.6878 114.164 19.5634 115.269 19.4142C116.375 19.2649 117.481 19.0907 118.586 18.9C119.7 18.7009 120.714 18.5102 121.654 18.3112V0.223877H126.142V28.9927H121.654V21.0396C120.739 21.3465 119.7 21.6367 118.528 21.9187C117.356 22.2006 116.151 22.4494 114.929 22.6651C113.698 22.8807 112.51 23.0548 111.346 23.1792C110.191 23.3119 109.168 23.3783 108.304 23.3783C107.156 23.3783 106.184 23.2622 105.394 23.0382C104.596 22.806 103.956 22.4743 103.457 22.0265C102.959 21.587 102.601 21.0396 102.377 20.3927C102.161 19.7376 102.053 18.9912 102.053 18.1453V10.7147H111.363V5.58123H102.186V2.13959H114.388C115.411 2.13959 115.918 2.63717 115.918 3.63235V13.3768Z" fill="#64594E"/>
<path d="M156.998 22.0763V25.5511H129.692V22.0763H156.998ZM153.125 4.05534V7.27307H145.377V7.66284C145.377 7.94481 145.352 8.21019 145.311 8.45898C145.269 8.70777 145.228 8.94827 145.178 9.18878C145.959 9.68636 146.749 10.1839 147.539 10.6981C148.337 11.204 149.101 11.7182 149.849 12.2406C150.598 12.7548 151.312 13.2856 151.986 13.8163C152.659 14.3471 153.266 14.8779 153.806 15.4169C154.172 15.7901 154.164 16.2048 153.773 16.6526L152.052 18.5102C151.529 18.0707 150.93 17.5897 150.24 17.0589C149.559 16.5282 148.835 15.9891 148.062 15.4418C147.289 14.8861 146.491 14.3471 145.668 13.8329C144.845 13.3105 144.031 12.846 143.233 12.4314C142.817 12.8626 142.352 13.2856 141.845 13.6836C141.337 14.0817 140.797 14.5047 140.232 14.9359C139.775 15.2759 139.293 15.6242 138.769 15.956C138.245 16.296 137.722 16.6194 137.19 16.9511C136.658 17.2746 136.134 17.5731 135.627 17.8385C135.12 18.1122 134.646 18.3527 134.214 18.5683L132.293 15.5828C133.2 15.0603 134.164 14.4715 135.17 13.7997C136.184 13.128 137.106 12.4646 137.954 11.8177C138.303 11.5357 138.644 11.2455 138.985 10.9552C139.318 10.665 139.617 10.3498 139.874 10.0181C140.14 9.67807 140.348 9.31317 140.515 8.9234C140.672 8.53362 140.756 8.10238 140.756 7.62967V7.27307H133.141V4.05534H140.656C140.722 3.79825 140.781 3.48311 140.839 3.10992C140.889 2.74502 140.914 2.42159 140.914 2.13962V0H145.668V1.91571C145.668 2.30549 145.61 2.68697 145.494 3.06845C145.369 3.44164 145.203 3.77337 144.987 4.05534H153.125Z" fill="#64594E"/>
</g>
<defs>
<clipPath id="clip0_41_54">
<rect width="157" height="29" fill="white"/>
</clipPath>
</defs>
</svg>
