<svg width="282" height="25" viewBox="0 0 282 25" fill="none" xmlns="http://www.w3.org/2000/svg">
<g clip-path="url(#clip0_41_152)">
<path d="M174.851 12.5836C172.757 12.2137 171.05 10.6071 171.05 8.94264V8.15666H169.767V8.94264C169.767 10.5955 168.061 12.2022 165.966 12.5836L166.484 13.5661C167.316 13.4126 168.102 13.0746 168.781 12.5779C169.46 12.0811 170.015 11.4387 170.403 10.6995C170.791 11.4387 171.346 12.0811 172.025 12.5779C172.704 13.0746 173.49 13.4126 174.322 13.5661L174.851 12.5836ZM165.637 15.6004V16.5829H175.263V15.6004H165.637ZM177.676 9.45122H180.253V14.3752H177.676V9.45122ZM176.476 15.323H181.454V8.50341H176.476V15.323ZM185.996 11.5664H184.337V7.48626H183.123V17.9352H184.337V12.5489H185.996V11.5664ZM195.139 12.9997H189.007V11.5664H194.821V10.6302H189.007V9.29183H195.056V8.33247H187.774V13.9615H195.139V12.9997ZM186.585 15.6697V16.6431H196.223V15.6697H186.585ZM204.65 10.0729V11.2404H202.437V10.0729H204.65ZM201.249 12.1328H198.742V10.6071H201.249V12.1328ZM202.437 12.2137H204.65V13.7741H205.862V7.48626H204.65V9.10446H202.437V8.12198H201.249V9.67266H198.742V8.12381H197.542V13.0794H202.435L202.437 12.2137ZM202.32 16.999C200.813 16.999 199.954 16.6291 199.954 15.9471C199.954 15.2652 200.813 14.8953 202.32 14.8953C203.826 14.8953 204.697 15.2652 204.697 15.9471C204.697 16.6291 203.826 16.999 202.32 16.999ZM202.32 13.9706C200.107 13.9706 198.742 14.7104 198.742 15.9471C198.742 17.1955 200.105 17.9237 202.32 17.9237C204.544 17.9237 205.909 17.1936 205.909 15.9471C205.909 14.7104 204.544 13.9706 202.32 13.9706ZM213.04 13.6123V14.4445H215.123V15.4179H216.336V7.4747H215.124V13.6123H213.04ZM210.922 8.7577C211.793 8.7577 212.393 9.12758 212.393 9.71707C212.393 10.3066 211.793 10.6764 210.922 10.6764C210.039 10.6764 209.439 10.3066 209.439 9.71707C209.439 9.12758 210.04 8.76014 210.923 8.76014L210.922 8.7577ZM210.922 11.5561C212.475 11.5561 213.546 10.8261 213.546 9.71828C213.546 8.61048 212.475 7.88047 210.922 7.88047C209.357 7.88047 208.286 8.61048 208.286 9.71828C208.286 10.8261 209.357 11.5549 210.923 11.5549L210.922 11.5561ZM210.439 15.0845H211.652V13.0691C212.566 13.0152 213.478 12.9149 214.382 12.7685L214.288 11.9132C212.024 12.1432 209.75 12.2474 207.474 12.2253L207.627 13.1986C208.475 13.1986 209.428 13.1871 210.44 13.1408L210.439 15.0845ZM210.122 16.7562V14.641H208.91V17.7272H216.583V16.7538L210.122 16.7562ZM226.551 8.36471H224.139V7.39136H222.915V8.36471H220.479V9.23161H226.549L226.551 8.36471ZM222.126 11.1157C222.126 10.6418 222.668 10.3528 223.515 10.3528C224.362 10.3528 224.904 10.6418 224.904 11.1157C224.904 11.578 224.362 11.8554 223.515 11.8554C222.668 11.8554 222.126 11.578 222.126 11.1157ZM226.846 13.0344C225.986 13.1615 225.057 13.2169 224.139 13.2656V12.6183C225.316 12.4796 226.045 11.9363 226.045 11.1157C226.045 10.1423 225.045 9.55525 223.515 9.55525C221.985 9.55525 220.985 10.1447 220.985 11.1157C220.985 11.9363 221.714 12.4911 222.915 12.6183V13.3118C221.938 13.3349 221.008 13.3349 220.208 13.3349L220.349 14.2827C222.554 14.3224 224.758 14.1832 226.94 13.8666L226.846 13.0344ZM221.526 15.9587H227.41V17.9352H228.623V15.0109H221.526V15.9587ZM230.082 10.5724H228.623V7.49782H227.41V14.5486H228.623V11.5549H230.082V10.5724ZM237.037 12.5927C236.32 12.3838 235.689 11.9568 235.234 11.3732C234.779 10.7896 234.525 10.0794 234.507 9.34476V8.11955H233.283V9.3332C233.29 10.1156 233.039 10.8793 232.569 11.5105C232.098 12.1417 231.432 12.6067 230.67 12.8361L231.329 13.7607C231.918 13.5585 232.455 13.2323 232.902 12.805C233.35 12.3778 233.696 11.8598 233.919 11.2872C234.158 11.8104 234.504 12.28 234.935 12.6671C235.366 13.0542 235.873 13.3506 236.425 13.5381L237.037 12.5927ZM233.577 14.4305H232.366V17.7272H239.498V16.7538H233.578L233.577 14.4305ZM239.073 10.6046V7.47227H237.861V15.1727H239.073V11.5896H240.58V10.6071L239.073 10.6046ZM245.169 9.50962H247.535V8.52714H241.58V9.50962H243.949V10.5037C243.946 11.4246 243.69 12.3277 243.207 13.1173C242.724 13.9068 242.033 14.5534 241.207 14.9884L241.901 15.9362C242.547 15.5925 243.116 15.1247 243.574 14.5608C244.032 13.9969 244.37 13.3483 244.568 12.6536C244.786 13.3078 245.135 13.9123 245.597 14.4306C246.058 14.949 246.62 15.3707 247.251 15.6703L247.922 14.7341C247.104 14.3559 246.411 13.758 245.923 13.0094C245.436 12.2608 245.174 11.3921 245.168 10.5037L245.169 9.50962ZM248.771 7.48687V17.9237H249.995V7.48626L248.771 7.48687ZM257.232 13.6129V14.4451H259.315V15.4185H260.528V7.4747H259.315V13.6123L257.232 13.6129ZM255.114 8.75831C255.985 8.75831 256.585 9.12819 256.585 9.71767C256.585 10.3072 255.985 10.677 255.114 10.677C254.231 10.677 253.631 10.3072 253.631 9.71767C253.631 9.12819 254.231 8.76014 255.114 8.76014V8.75831ZM255.114 11.5567C256.667 11.5567 257.738 10.8267 257.738 9.71889C257.738 8.61109 256.667 7.88108 255.114 7.88108C253.549 7.88108 252.478 8.61109 252.478 9.71889C252.478 10.8267 253.549 11.5549 255.114 11.5549V11.5567ZM254.632 15.0851H255.841V13.0691C256.756 13.0152 257.667 12.9149 258.572 12.7685L258.477 11.9132C256.214 12.1432 253.939 12.2474 251.664 12.2253L251.817 13.1986C252.664 13.1986 253.618 13.1871 254.63 13.1408L254.632 15.0851ZM254.314 16.7611V14.641H253.102V17.7272H260.775V16.7538L254.314 16.7611ZM271.19 7.48626H270.037V15.3114H271.19V7.48626ZM267.954 15.0109H269.096V7.68276H267.955V10.006H266.46V10.9885H267.955L267.954 15.0109ZM267.401 12.7107C266.807 12.4437 266.306 12.0132 265.957 11.4715C265.608 10.9298 265.427 10.3002 265.435 9.65927V8.20289H264.258V9.65927C264.254 10.351 264.054 11.0278 263.68 11.6138C263.305 12.1998 262.772 12.6717 262.14 12.9766L262.811 13.8782C263.767 13.4125 264.501 12.6002 264.859 11.6127C265.196 12.4953 265.872 13.2131 266.742 13.6123L267.401 12.7107ZM265.388 16.7562V14.3837H264.164V17.7272H271.484V16.7538L265.388 16.7562ZM274.356 12.2715H277.639V11.3237H274.356V9.36848H278.072V8.386H273.141V15.4964H273.977C275.577 15.5391 277.178 15.4346 278.759 15.1843L278.653 14.2249C277.233 14.4451 275.796 14.5457 274.358 14.5254L274.356 12.2715ZM280.276 7.46558V11.303H278.24V12.2855H280.276V17.9352H281.499V7.46314L280.276 7.46558Z" fill="#626467"/>
<path d="M118.831 18.3989L115.022 13.0223H114.976V18.3989H111.216V7.46753H114.976V12.1378H115.022L118.578 7.46753H122.87L118.876 12.591L123.077 18.3983L118.831 18.3989Z" fill="#626467"/>
<path d="M128.429 13.1957V18.3989H124.623V7.46753H128.429V11.4218H130.83C133.807 11.4218 135.421 12.8946 135.421 15.592V18.4001H131.614V14.8516C131.614 13.7627 131.014 13.1969 129.814 13.1969L128.429 13.1957Z" fill="#FF4D0F"/>
<path d="M137.802 18.3989V7.46753H141.609V18.3989H137.802Z" fill="#FF4D0F"/>
<path d="M156.874 18.3989V7.46753H160.681V18.3989H156.874Z" fill="#626467"/>
<path d="M143.986 7.46753V18.3989H150.193C153.17 18.3989 154.784 16.9249 154.784 14.2299V11.6384C154.784 8.94095 153.17 7.46753 150.193 7.46753H143.986ZM147.793 16.6201V9.23356H149.177C150.376 9.23356 150.977 9.80054 150.977 10.887V14.963C150.977 16.0513 150.376 16.6177 149.177 16.6177L147.793 16.6201Z" fill="#626467"/>
<path d="M135.739 8.26381C135.739 8.69518 135.609 9.1169 135.365 9.47563C135.121 9.83436 134.774 10.114 134.368 10.2792C133.963 10.4443 133.516 10.4876 133.085 10.4035C132.654 10.3194 132.259 10.1118 131.948 9.80678C131.637 9.50179 131.426 9.11319 131.34 8.69011C131.254 8.26704 131.298 7.8285 131.466 7.42995C131.635 7.0314 131.919 6.69076 132.284 6.45109C132.649 6.21142 133.079 6.0835 133.518 6.0835C134.107 6.0835 134.672 6.31319 135.088 6.72206C135.504 7.13093 135.738 7.6855 135.739 8.26381Z" fill="#FF4D0F"/>
<path d="M98.8275 7.90845H98.2081V18.2503H98.8275V7.90845Z" fill="#DDDDDD"/>
<path d="M42.8041 16.1608V17.2917H33.1674V16.1608H37.3255V14.0826H33.9435V8.19629H35.2245V9.7062H40.7372V8.19629H42.0299V14.0826H38.633V16.1608H42.8041ZM40.7353 10.8164H35.2226V12.9749H40.7353V10.8164Z" fill="#464545"/>
<path d="M48.9877 13.448H47.6832V9.20056H43.8429V8.05748H48.9902L48.9877 13.448ZM44.5335 17.8458V14.0825H45.8386V16.7143H53.1247V17.8458H44.5335ZM51.6084 7.75757H52.9135V14.3484H51.6084V11.3359H49.8926V10.2165H51.6084V7.75757Z" fill="#464545"/>
<path d="M64.2517 12.813V13.908H54.615V12.813H58.7755V11.9108H55.3905V7.88477H56.6714V8.8423H62.1841V7.88477H63.4768V11.9108H60.08V12.8112L64.2517 12.813ZM63.4762 14.7524V18.0764H62.1711V15.8371H55.144V14.7524H63.4762ZM62.1835 9.90326H56.6708V10.8383H62.1835V9.90326Z" fill="#464545"/>
<path d="M65.553 9.52373V8.3922H71.8053V9.52373H69.1735L72.0847 16.2533L70.9332 16.7399L68.704 11.4741L66.4828 16.8178L65.3059 16.3311L68.232 9.52129L65.553 9.52373ZM73.3328 7.75952H74.6372V18.0521H73.3328V7.75952Z" fill="#464545"/>
<path d="M76.1844 14.261V15.3919H80.3444V18.0467H81.6488V15.3919H85.8205V14.261H76.1844ZM78.2409 10.3365H83.7536V11.7564H78.2409V10.3365ZM83.7536 7.92383V9.22812H78.2409V7.92383H76.9587V12.8758H85.042V7.92383H83.7536Z" fill="#464545"/>
<mask id="mask0_41_152" style="mask-type:luminance" maskUnits="userSpaceOnUse" x="0" y="0" width="86" height="25">
<path d="M85.82 0H0.5V25H85.82V0Z" fill="white"/>
</mask>
<g mask="url(#mask0_41_152)">
<path d="M20.1519 11.9304C19.6389 11.5808 19.0587 11.3377 18.4467 11.2159C17.8347 11.0941 17.2039 11.0963 16.5928 11.2223C15.9817 11.3482 15.4032 11.5953 14.8927 11.9485C14.3823 12.3016 13.9505 12.7534 13.624 13.2761C13.1454 14.0124 12.4595 14.5964 11.6496 14.9573C10.8396 15.3181 9.94046 15.4403 9.06118 15.3091C8.18189 15.1778 7.36031 14.7987 6.69614 14.2177C6.03197 13.6368 5.55377 12.879 5.31959 12.0363C5.31526 12.0192 5.31154 12.0059 5.30658 11.9894C5.30163 11.973 5.29605 11.9517 5.29172 11.9316C5.11827 11.35 5.03905 10.7452 5.05696 10.1395C5.05696 6.09639 9.27945 1.59462 15.3632 1.59462C17.6813 1.61328 19.9405 2.31352 21.8496 3.60504C23.7587 4.89656 25.23 6.72014 26.074 8.84064C26.0585 8.79501 26.0437 8.74999 26.0275 8.70315C25.0197 5.81889 23.0029 3.37919 20.3359 1.81791C17.6689 0.25663 14.5245 -0.325028 11.4619 0.176374C8.39932 0.677775 5.61706 2.22974 3.60991 4.55626C1.60275 6.88279 0.500793 9.83309 0.5 12.8825C0.5 19.2421 5.17032 24.6844 11.6493 24.6844C13.8621 24.7557 16.0415 24.1406 17.8781 22.9264C19.7147 21.7122 21.1152 19.9605 21.8806 17.9202C22.3309 16.8779 22.405 15.7158 22.0906 14.6265C21.7761 13.5372 21.0921 12.5855 20.1519 11.9304Z" fill="#002B51"/>
<path d="M26.1558 9.0915C25.3525 6.90815 23.8872 5.01901 21.9573 3.67853C20.0275 2.33806 17.7257 1.61064 15.362 1.59424C9.27821 1.59424 5.05572 6.096 5.05572 10.1385C5.03798 10.7442 5.11719 11.349 5.29048 11.9307C5.21104 11.6304 5.16944 11.3217 5.1666 11.0114C5.1666 6.80108 9.45969 3.88345 13.8717 3.88345C15.2922 3.88305 16.6989 4.15749 18.0114 4.69109C19.3239 5.2247 20.5165 6.00702 21.5212 6.99337C22.5258 7.97972 23.3227 9.15078 23.8665 10.4397C24.4103 11.7286 24.6902 13.11 24.6903 14.5052C24.6919 16.6848 24.0741 18.8217 22.9064 20.6753C21.7387 22.5288 20.0674 24.0254 18.0806 24.9967C20.6153 24.095 22.8057 22.4484 24.3538 20.2808C25.902 18.1132 26.7327 15.5298 26.733 12.8821C26.7368 11.5972 26.5418 10.3192 26.1558 9.0915Z" fill="#DA0021"/>
</g>
</g>
<defs>
<clipPath id="clip0_41_152">
<rect width="281" height="25" fill="white" transform="translate(0.5)"/>
</clipPath>
</defs>
</svg>
