<svg width="231" height="31" viewBox="0 0 231 31" fill="none" xmlns="http://www.w3.org/2000/svg">
<g clip-path="url(#clip0_41_93)">
<path d="M47.3829 9.5671C49.2217 9.5671 50.7939 10.2686 52.0544 11.654L52.1271 11.7315L54.4091 9.54948L54.3433 9.47192C52.6846 7.49785 50.1602 6.41211 47.234 6.41211C41.6587 6.41211 37.6106 10.3673 37.6106 15.8207C37.6106 21.2741 41.6483 25.2293 47.2063 25.2293C50.1498 25.2293 52.6846 24.1435 54.3433 22.1694L54.4091 22.0919L52.1271 19.8816L52.0544 19.9627C50.8008 21.3622 49.2321 22.0743 47.3829 22.0743C43.7642 22.0743 41.1393 19.4445 41.1393 15.8242C41.1393 12.2039 43.7642 9.57415 47.3829 9.57415V9.5671Z" fill="#231815"/>
<path d="M60.8398 6.66943H57.3318V24.9684H60.8398V6.66943Z" fill="#231815"/>
<path d="M65.4281 24.9684H68.936V18.0415H77.5171V14.9887H68.936V9.69752H78.6079V6.66943H65.4281V24.9684Z" fill="#231815"/>
<path d="M94.5719 19.9591C93.3184 21.3586 91.7462 22.0706 89.9005 22.0706C86.2852 22.0706 83.6569 19.4409 83.6569 15.8206C83.6569 12.2003 86.2817 9.57052 89.9005 9.57052C91.7393 9.57052 93.3114 10.272 94.5719 11.6574L94.6412 11.7349L96.9233 9.55289L96.8575 9.47534C95.1987 7.50127 92.6743 6.41553 89.7481 6.41553C84.1728 6.41553 80.1247 10.3707 80.1247 15.8241C80.1247 21.2775 84.1624 25.2327 89.7239 25.2327C92.6673 25.2327 95.2022 24.1469 96.8609 22.1729L96.9267 22.0953L94.6447 19.8851L94.5719 19.9661V19.9591Z" fill="#231815"/>
<path d="M27.5855 6.44394C24.7251 3.2819 20.0814 2.21378 16.0506 4.1244C14.236 4.98453 12.7989 6.33113 11.812 7.93859C9.95932 7.64601 8.00277 7.89277 6.17436 8.75995C1.32283 11.0654 -0.813783 16.8995 1.34361 21.8629C1.37131 21.9263 1.39901 21.9862 1.42672 22.0497C0.509047 20.058 0 17.8407 0 15.5C0 6.93746 6.815 0 15.2264 0C20.3134 0 24.8221 2.54162 27.5855 6.44394Z" fill="url(#paint0_linear_41_93)"/>
<path d="M30.4528 15.5C30.4528 24.0626 23.6378 31 15.2264 31C9.11436 31 3.84728 27.3374 1.42325 22.0532C1.45095 22.1132 1.48212 22.1731 1.50982 22.233C3.85767 27.1083 9.61994 29.1916 14.4715 26.8862C16.1891 26.0719 17.5673 24.8134 18.5335 23.3082C20.4762 23.6536 22.54 23.4245 24.462 22.5115C28.2781 20.6996 30.4389 16.7373 30.1965 12.7046C30.3593 13.6141 30.4459 14.5518 30.4459 15.5071L30.4528 15.5Z" fill="#F29544"/>
<path d="M26.4081 16.2578C23.7036 17.541 20.49 16.353 19.2295 13.5999C17.789 10.459 14.9459 8.43206 11.812 7.94207C12.7954 6.33108 14.236 4.98801 16.0506 4.12788C20.0814 2.21725 24.7252 3.28537 27.5855 6.44741C28.1396 7.22999 28.6244 8.06897 29.0295 8.95025H29.0226C30.2831 11.7069 29.1161 14.9782 26.4116 16.2614L26.4081 16.2578Z" fill="#3D62AD"/>
<path d="M11.2163 17.5693C11.1956 17.5235 11.1748 17.4741 11.154 17.4283C9.90044 14.6963 6.70765 13.5119 4.02389 14.788C1.39901 16.0359 0.228551 19.1697 1.34707 21.8629C-0.810321 16.8995 1.32283 11.0654 6.17782 8.76353C8.00624 7.89635 9.96278 7.64959 11.8154 7.94218C10.0978 10.7447 9.75847 14.3509 11.2198 17.5728L11.2163 17.5693Z" fill="url(#paint1_linear_41_93)"/>
<path d="M18.5404 23.3045C17.5742 24.8098 16.196 26.0683 14.4784 26.8826C9.62341 29.188 3.8646 27.1046 1.51675 22.2294C1.48904 22.1695 1.45788 22.1095 1.43017 22.0461C1.40247 21.9826 1.37477 21.9227 1.34706 21.8592C0.228546 19.166 1.39901 16.0322 4.02389 14.7843C6.70764 13.5082 9.9039 14.6927 11.154 17.4246C11.1748 17.4705 11.1956 17.5198 11.2163 17.5656C11.2233 17.5762 11.2267 17.5833 11.2302 17.5938C12.6569 20.7136 15.448 22.7405 18.5404 23.2975V23.3045Z" fill="url(#paint2_linear_41_93)"/>
<path d="M102.876 11.5588C102.876 9.95487 104.081 8.78101 105.702 8.78101C106.526 8.78101 107.239 9.06654 107.728 9.62704L107.232 10.117C106.82 9.67639 106.318 9.47193 105.733 9.47193C104.528 9.47193 103.638 10.3567 103.638 11.5588C103.638 12.7609 104.528 13.6457 105.733 13.6457C106.318 13.6457 106.824 13.4377 107.232 12.9935L107.728 13.4835C107.239 14.0405 106.522 14.3366 105.691 14.3366C104.074 14.3366 102.873 13.1663 102.873 11.5588H102.876Z" fill="#231815"/>
<path d="M107.942 12.218C107.942 10.9912 108.832 10.124 110.044 10.124C111.256 10.124 112.139 10.9912 112.139 12.218C112.139 13.4447 111.256 14.3189 110.044 14.3189C108.832 14.3189 107.942 13.4412 107.942 12.218ZM111.402 12.218C111.402 11.3402 110.823 10.7762 110.044 10.7762C109.265 10.7762 108.68 11.3437 108.68 12.218C108.68 13.0922 109.265 13.6703 110.044 13.6703C110.823 13.6703 111.402 13.0957 111.402 12.218Z" fill="#231815"/>
<path d="M116.69 10.1628V14.2731H115.997V13.6527C115.699 14.0793 115.197 14.319 114.626 14.319C113.58 14.319 112.887 13.7373 112.887 12.5282V10.1628H113.618V12.4436C113.618 13.2509 114.013 13.6527 114.709 13.6527C115.471 13.6527 115.959 13.1733 115.959 12.2885V10.1628H116.69Z" fill="#231815"/>
<path d="M121.686 11.9077V14.2731H120.956V11.9923C120.956 11.1851 120.561 10.7903 119.865 10.7903C119.089 10.7903 118.584 11.2626 118.584 12.1545V14.2731H117.853V10.1628H118.553V10.7832C118.85 10.3637 119.37 10.124 120.007 10.124C120.99 10.124 121.683 10.6986 121.683 11.9077H121.686Z" fill="#231815"/>
<path d="M122.462 12.218C122.462 10.9912 123.352 10.124 124.595 10.124C125.319 10.124 125.922 10.4272 126.24 11.0018L125.683 11.3684C125.423 10.9665 125.028 10.7797 124.585 10.7797C123.792 10.7797 123.2 11.3472 123.2 12.2215C123.2 13.0957 123.795 13.6738 124.585 13.6738C125.028 13.6738 125.423 13.487 125.683 13.0851L126.24 13.4412C125.922 14.0158 125.319 14.326 124.595 14.326C123.352 14.326 122.462 13.4482 122.462 12.225V12.218Z" fill="#231815"/>
<path d="M126.829 8.8938C126.829 8.62237 127.044 8.40381 127.324 8.40381C127.605 8.40381 127.819 8.61179 127.819 8.87618C127.819 9.15466 127.615 9.37322 127.324 9.37322C127.033 9.37322 126.829 9.16524 126.829 8.8938ZM126.957 10.1664H127.688V14.2767H126.957V10.1664Z" fill="#231815"/>
<path d="M128.855 8.52002H129.585V14.2766H128.855V8.52002Z" fill="#231815"/>
<path d="M132.2 12.218C132.2 10.9912 133.09 10.124 134.302 10.124C135.514 10.124 136.397 10.9912 136.397 12.218C136.397 13.4447 135.514 14.3189 134.302 14.3189C133.09 14.3189 132.2 13.4412 132.2 12.218ZM135.659 12.218C135.659 11.3402 135.081 10.7762 134.302 10.7762C133.523 10.7762 132.937 11.3437 132.937 12.218C132.937 13.0922 133.523 13.6703 134.302 13.6703C135.081 13.6703 135.659 13.0957 135.659 12.218Z" fill="#231815"/>
<path d="M141.013 11.9077V14.2731H140.282V11.9923C140.282 11.1851 139.888 10.7903 139.191 10.7903C138.416 10.7903 137.91 11.2626 137.91 12.1545V14.2731H137.18V10.1628H137.879V10.7832C138.177 10.3637 138.693 10.124 139.333 10.124C140.317 10.124 141.01 10.6986 141.01 11.9077H141.013Z" fill="#231815"/>
<path d="M103.312 18.0098H104.074V23.4385H103.312V18.0098Z" fill="#231815"/>
<path d="M109.172 21.073V23.4384H108.441V21.1576C108.441 20.3504 108.046 19.9556 107.35 19.9556C106.574 19.9556 106.069 20.4279 106.069 21.3198V23.4384H105.338V19.3281H106.038V19.9485C106.335 19.529 106.851 19.2893 107.492 19.2893C108.475 19.2893 109.168 19.8639 109.168 21.073H109.172Z" fill="#231815"/>
<path d="M112.569 23.1987C112.347 23.3926 112.011 23.4842 111.686 23.4842C110.868 23.4842 110.404 23.026 110.404 22.1976V19.9415H109.719V19.3281H110.404V18.4292H111.135V19.3281H112.292V19.9415H111.135V22.1694C111.135 22.61 111.364 22.8603 111.769 22.8603C111.983 22.8603 112.188 22.7898 112.34 22.6664L112.569 23.2022V23.1987Z" fill="#231815"/>
<path d="M116.721 21.6335H113.445C113.535 22.3562 114.106 22.8356 114.906 22.8356C115.377 22.8356 115.775 22.6734 116.073 22.3385L116.478 22.818C116.111 23.2516 115.557 23.4842 114.885 23.4842C113.583 23.4842 112.714 22.6065 112.714 21.3832C112.714 20.16 113.576 19.2893 114.74 19.2893C115.903 19.2893 116.735 20.1424 116.735 21.4079C116.735 21.4714 116.728 21.563 116.721 21.6335ZM113.445 21.0977H116.035C115.959 20.4068 115.446 19.9203 114.74 19.9203C114.033 19.9203 113.521 20.3997 113.445 21.0977Z" fill="#231815"/>
<path d="M119.692 19.2893V20.012C119.63 20.0049 119.578 20.0049 119.526 20.0049C118.74 20.0049 118.255 20.4914 118.255 21.3938V23.4419H117.524V19.3316H118.224V20.0225C118.483 19.5431 118.985 19.2928 119.695 19.2928L119.692 19.2893Z" fill="#231815"/>
<path d="M124.194 21.073V23.4384H123.463V21.1576C123.463 20.3504 123.068 19.9556 122.372 19.9556C121.596 19.9556 121.091 20.4279 121.091 21.3198V23.4384H120.36V19.3281H121.06V19.9485C121.358 19.529 121.873 19.2893 122.514 19.2893C123.498 19.2893 124.19 19.8639 124.19 21.073H124.194Z" fill="#231815"/>
<path d="M128.519 20.9568V23.4385H127.826V22.8956C127.584 23.2658 127.134 23.4843 126.5 23.4843C125.586 23.4843 125.007 22.9873 125.007 22.2752C125.007 21.616 125.426 21.0731 126.632 21.0731H127.788V20.9251C127.788 20.2976 127.431 19.931 126.708 19.931C126.226 19.931 125.742 20.1002 125.426 20.3716L125.122 19.8147C125.541 19.4727 126.143 19.2859 126.791 19.2859C127.895 19.2859 128.522 19.8288 128.522 20.9533L128.519 20.9568ZM127.788 22.1835V21.6089H126.659C125.935 21.6089 125.728 21.8945 125.728 22.2435C125.728 22.6559 126.064 22.9097 126.618 22.9097C127.172 22.9097 127.601 22.6524 127.785 22.18L127.788 22.1835Z" fill="#231815"/>
<path d="M131.919 23.1987C131.698 23.3926 131.362 23.4842 131.036 23.4842C130.223 23.4842 129.755 23.026 129.755 22.1976V19.9415H129.069V19.3281H129.755V18.4292H130.486V19.3281H131.642V19.9415H130.486V22.1694C130.486 22.61 130.714 22.8603 131.119 22.8603C131.334 22.8603 131.538 22.7898 131.691 22.6664L131.919 23.2022V23.1987Z" fill="#231815"/>
<path d="M132.442 18.0591C132.442 17.7876 132.657 17.5691 132.937 17.5691C133.218 17.5691 133.433 17.7771 133.433 18.0415C133.433 18.3199 133.228 18.5385 132.937 18.5385C132.647 18.5385 132.442 18.3305 132.442 18.0591ZM132.57 19.3317H133.301V23.442H132.57V19.3317Z" fill="#231815"/>
<path d="M134.098 21.3832C134.098 20.1565 134.988 19.2893 136.2 19.2893C137.412 19.2893 138.295 20.1565 138.295 21.3832C138.295 22.61 137.412 23.4842 136.2 23.4842C134.988 23.4842 134.098 22.6065 134.098 21.3832ZM137.557 21.3832C137.557 20.5055 136.979 19.9415 136.2 19.9415C135.42 19.9415 134.835 20.509 134.835 21.3832C134.835 22.2575 135.42 22.8356 136.2 22.8356C136.979 22.8356 137.557 22.261 137.557 21.3832Z" fill="#231815"/>
<path d="M142.911 21.073V23.4384H142.18V21.1576C142.18 20.3504 141.785 19.9556 141.089 19.9556C140.313 19.9556 139.808 20.4279 139.808 21.3198V23.4384H139.077V19.3281H139.777V19.9485C140.075 19.529 140.59 19.2893 141.231 19.2893C142.215 19.2893 142.907 19.8639 142.907 21.073H142.911Z" fill="#231815"/>
<path d="M147.239 20.9568V23.4385H146.547V22.8956C146.304 23.2658 145.854 23.4843 145.22 23.4843C144.306 23.4843 143.728 22.9873 143.728 22.2752C143.728 21.616 144.147 21.0731 145.352 21.0731H146.509V20.9251C146.509 20.2976 146.152 19.931 145.428 19.931C144.947 19.931 144.462 20.1002 144.147 20.3716L143.842 19.8147C144.261 19.4727 144.864 19.2859 145.511 19.2859C146.616 19.2859 147.243 19.8288 147.243 20.9533L147.239 20.9568ZM146.509 22.1835V21.6089H145.38C144.656 21.6089 144.452 21.8945 144.452 22.2435C144.452 22.6559 144.788 22.9097 145.342 22.9097C145.896 22.9097 146.325 22.6524 146.509 22.18V22.1835Z" fill="#231815"/>
<path d="M148.365 17.6855H149.095V23.4421H148.365V17.6855Z" fill="#231815"/>
<path d="M152.953 18.6867V20.5797H155.626V21.246H152.953V23.4421H152.191V18.0134H155.955V18.6867H152.953Z" fill="#231815"/>
<path d="M156.485 18.0591C156.485 17.7876 156.7 17.5691 156.98 17.5691C157.261 17.5691 157.476 17.7771 157.476 18.0415C157.476 18.3199 157.271 18.5385 156.98 18.5385C156.69 18.5385 156.485 18.3305 156.485 18.0591ZM156.613 19.3317H157.344V23.442H156.613V19.3317Z" fill="#231815"/>
<path d="M162.344 21.073V23.4384H161.614V21.1576C161.614 20.3504 161.219 19.9556 160.523 19.9556C159.747 19.9556 159.242 20.4279 159.242 21.3198V23.4384H158.511V19.3281H159.211V19.9485C159.508 19.529 160.028 19.2893 160.665 19.2893C161.648 19.2893 162.341 19.8639 162.341 21.073H162.344Z" fill="#231815"/>
<path d="M166.673 20.9568V23.4385H165.981V22.8956C165.738 23.2658 165.288 23.4843 164.654 23.4843C163.74 23.4843 163.162 22.9873 163.162 22.2752C163.162 21.616 163.581 21.0731 164.786 21.0731H165.946V20.9251C165.946 20.2976 165.586 19.931 164.865 19.931C164.384 19.931 163.899 20.1002 163.584 20.3716L163.279 19.8147C163.698 19.4727 164.301 19.2859 164.949 19.2859C166.053 19.2859 166.677 19.8288 166.677 20.9533L166.673 20.9568ZM165.942 22.1835V21.6089H164.814C164.09 21.6089 163.885 21.8945 163.885 22.2435C163.885 22.6559 164.221 22.9097 164.775 22.9097C165.329 22.9097 165.759 22.6524 165.942 22.18V22.1835Z" fill="#231815"/>
<path d="M171.632 21.073V23.4384H170.901V21.1576C170.901 20.3504 170.507 19.9556 169.81 19.9556C169.035 19.9556 168.529 20.4279 168.529 21.3198V23.4384H167.799V19.3281H168.498V19.9485C168.796 19.529 169.312 19.2893 169.952 19.2893C170.936 19.2893 171.628 19.8639 171.628 21.073H171.632Z" fill="#231815"/>
<path d="M172.408 21.3832C172.408 20.1565 173.298 19.2893 174.541 19.2893C175.265 19.2893 175.867 19.5925 176.186 20.1671L175.628 20.5337C175.368 20.1318 174.974 19.945 174.53 19.945C173.737 19.945 173.145 20.5125 173.145 21.3868C173.145 22.261 173.741 22.8391 174.53 22.8391C174.974 22.8391 175.368 22.6523 175.628 22.2504L176.186 22.6065C175.867 23.181 175.265 23.4913 174.541 23.4913C173.298 23.4913 172.408 22.6135 172.408 21.3903V21.3832Z" fill="#231815"/>
<path d="M176.774 18.0591C176.774 17.7876 176.989 17.5691 177.27 17.5691C177.55 17.5691 177.765 17.7771 177.765 18.0415C177.765 18.3199 177.56 18.5385 177.27 18.5385C176.979 18.5385 176.774 18.3305 176.774 18.0591ZM176.903 19.3317H177.633V23.442H176.903V19.3317Z" fill="#231815"/>
<path d="M182 20.9568V23.4385H181.307V22.8956C181.065 23.2658 180.615 23.4843 179.981 23.4843C179.067 23.4843 178.489 22.9873 178.489 22.2752C178.489 21.616 178.908 21.0731 180.113 21.0731H181.273V20.9251C181.273 20.2976 180.913 19.931 180.192 19.931C179.711 19.931 179.226 20.1002 178.911 20.3716L178.606 19.8147C179.025 19.4727 179.628 19.2859 180.275 19.2859C181.38 19.2859 182.003 19.8288 182.003 20.9533L182 20.9568ZM181.269 22.1835V21.6089H180.14C179.417 21.6089 179.212 21.8945 179.212 22.2435C179.212 22.6559 179.548 22.9097 180.102 22.9097C180.656 22.9097 181.086 22.6524 181.269 22.18V22.1835Z" fill="#231815"/>
<path d="M183.129 17.6855H183.859V23.4421H183.129V17.6855Z" fill="#231815"/>
<path d="M186.519 20.7241C186.519 19.1202 187.724 17.9463 189.345 17.9463C190.169 17.9463 190.886 18.2318 191.371 18.7923L190.875 19.2823C190.463 18.8417 189.961 18.6372 189.372 18.6372C188.167 18.6372 187.277 19.522 187.277 20.7241C187.277 21.9262 188.171 22.811 189.372 22.811C189.961 22.811 190.463 22.603 190.875 22.1588L191.371 22.6488C190.882 23.2058 190.165 23.5019 189.334 23.5019C187.721 23.5019 186.516 22.3316 186.516 20.7241H186.519Z" fill="#231815"/>
<path d="M191.585 21.3832C191.585 20.1565 192.475 19.2893 193.687 19.2893C194.899 19.2893 195.782 20.1565 195.782 21.3832C195.782 22.61 194.899 23.4842 193.687 23.4842C192.475 23.4842 191.585 22.6065 191.585 21.3832ZM195.045 21.3832C195.045 20.5055 194.466 19.9415 193.687 19.9415C192.908 19.9415 192.323 20.509 192.323 21.3832C192.323 22.2575 192.908 22.8356 193.687 22.8356C194.466 22.8356 195.045 22.261 195.045 21.3832Z" fill="#231815"/>
<path d="M196.194 21.3832C196.194 20.1565 197.084 19.2893 198.296 19.2893C199.508 19.2893 200.391 20.1565 200.391 21.3832C200.391 22.61 199.508 23.4842 198.296 23.4842C197.084 23.4842 196.194 22.6065 196.194 21.3832ZM199.654 21.3832C199.654 20.5055 199.075 19.9415 198.296 19.9415C197.517 19.9415 196.932 20.509 196.932 21.3832C196.932 22.2575 197.517 22.8356 198.296 22.8356C199.075 22.8356 199.654 22.261 199.654 21.3832Z" fill="#231815"/>
<path d="M205.357 21.3832C205.357 22.6488 204.495 23.4842 203.314 23.4842C202.743 23.4842 202.241 23.2586 201.905 22.818V24.9436H201.174V19.3281H201.874V19.9802C202.203 19.522 202.718 19.2893 203.314 19.2893C204.495 19.2893 205.357 20.1283 205.357 21.3832ZM204.62 21.3832C204.62 20.5161 204.034 19.9415 203.255 19.9415C202.476 19.9415 201.898 20.5161 201.898 21.3832C201.898 22.2504 202.483 22.8356 203.255 22.8356C204.027 22.8356 204.62 22.261 204.62 21.3832Z" fill="#231815"/>
<path d="M209.776 21.6335H206.5C206.59 22.3562 207.161 22.8356 207.961 22.8356C208.432 22.8356 208.83 22.6734 209.128 22.3385L209.533 22.818C209.166 23.2516 208.612 23.4842 207.941 23.4842C206.638 23.4842 205.769 22.6065 205.769 21.3832C205.769 20.16 206.632 19.2893 207.795 19.2893C208.959 19.2893 209.79 20.1424 209.79 21.4079C209.79 21.4714 209.783 21.563 209.776 21.6335ZM206.5 21.0977H209.09C209.014 20.4068 208.505 19.9203 207.795 19.9203C207.085 19.9203 206.576 20.3997 206.5 21.0977Z" fill="#231815"/>
<path d="M212.747 19.2893V20.012C212.685 20.0049 212.633 20.0049 212.581 20.0049C211.795 20.0049 211.31 20.4914 211.31 21.3938V23.4419H210.579V19.3316H211.279V20.0225C211.538 19.5431 212.041 19.2928 212.75 19.2928L212.747 19.2893Z" fill="#231815"/>
<path d="M216.612 20.9568V23.4385H215.919V22.8956C215.677 23.2658 215.226 23.4843 214.593 23.4843C213.679 23.4843 213.1 22.9873 213.1 22.2752C213.1 21.616 213.519 21.0731 214.724 21.0731H215.881V20.9251C215.881 20.2976 215.524 19.931 214.8 19.931C214.319 19.931 213.834 20.1002 213.519 20.3716L213.215 19.8147C213.634 19.4727 214.236 19.2859 214.884 19.2859C215.988 19.2859 216.612 19.8288 216.612 20.9533V20.9568ZM215.881 22.1835V21.6089H214.752C214.028 21.6089 213.824 21.8945 213.824 22.2435C213.824 22.6559 214.16 22.9097 214.714 22.9097C215.268 22.9097 215.697 22.6524 215.881 22.18V22.1835Z" fill="#231815"/>
<path d="M220.009 23.1987C219.787 23.3926 219.451 23.4842 219.126 23.4842C218.312 23.4842 217.844 23.026 217.844 22.1976V19.9415H217.159V19.3281H217.844V18.4292H218.575V19.3281H219.732V19.9415H218.575V22.1694C218.575 22.61 218.804 22.8603 219.209 22.8603C219.424 22.8603 219.628 22.7898 219.78 22.6664L220.009 23.2022V23.1987Z" fill="#231815"/>
<path d="M220.532 18.0591C220.532 17.7876 220.746 17.5691 221.027 17.5691C221.307 17.5691 221.522 17.7771 221.522 18.0415C221.522 18.3199 221.318 18.5385 221.027 18.5385C220.736 18.5385 220.532 18.3305 220.532 18.0591ZM220.66 19.3317H221.39V23.442H220.66V19.3317Z" fill="#231815"/>
<path d="M222.187 21.3832C222.187 20.1565 223.077 19.2893 224.289 19.2893C225.501 19.2893 226.384 20.1565 226.384 21.3832C226.384 22.61 225.501 23.4842 224.289 23.4842C223.077 23.4842 222.187 22.6065 222.187 21.3832ZM225.646 21.3832C225.646 20.5055 225.068 19.9415 224.289 19.9415C223.51 19.9415 222.924 20.509 222.924 21.3832C222.924 22.2575 223.51 22.8356 224.289 22.8356C225.068 22.8356 225.646 22.261 225.646 21.3832Z" fill="#231815"/>
<path d="M231 21.073V23.4384H230.269V21.1576C230.269 20.3504 229.875 19.9556 229.179 19.9556C228.399 19.9556 227.897 20.4279 227.897 21.3198V23.4384H227.167V19.3281H227.866V19.9485C228.164 19.529 228.68 19.2893 229.32 19.2893C230.304 19.2893 230.997 19.8639 230.997 21.073H231Z" fill="#231815"/>
</g>
<defs>
<linearGradient id="paint0_linear_41_93" x1="1.88036" y1="18.6444" x2="17.3111" y2="4.78238" gradientUnits="userSpaceOnUse">
<stop stop-color="#3D62AD"/>
<stop offset="1" stop-color="#354792"/>
</linearGradient>
<linearGradient id="paint1_linear_41_93" x1="-1.80071" y1="3.01052" x2="10.5139" y2="19.875" gradientUnits="userSpaceOnUse">
<stop stop-color="#B5B5B6"/>
<stop offset="0.02" stop-color="#BABABB"/>
<stop offset="0.23" stop-color="#E6E6E7"/>
<stop offset="0.33" stop-color="#F7F8F8"/>
<stop offset="0.66" stop-color="#C9CACA"/>
<stop offset="1" stop-color="#9FA0A0"/>
</linearGradient>
<linearGradient id="paint2_linear_41_93" x1="1.84226" y1="11.2698" x2="14.1534" y2="28.1307" gradientUnits="userSpaceOnUse">
<stop stop-color="#B5B5B6"/>
<stop offset="0.02" stop-color="#BABABB"/>
<stop offset="0.23" stop-color="#E6E6E7"/>
<stop offset="0.33" stop-color="#F7F8F8"/>
<stop offset="0.66" stop-color="#C9CACA"/>
<stop offset="1" stop-color="#9FA0A0"/>
</linearGradient>
<clipPath id="clip0_41_93">
<rect width="231" height="31" fill="white"/>
</clipPath>
</defs>
</svg>
