<svg width="167" height="95" viewBox="0 0 167 95" fill="none" xmlns="http://www.w3.org/2000/svg">
<path d="M76.9067 26.2739H67.5907V55.2549H60.8116V26.2739H51.5442V20.1621H76.9067V26.2739Z" fill="#231F20"/>
<path d="M138.646 26.2739L139.11 25.5835V20.1621H116.918V26.2739H128.573H131.111H138.646Z" fill="#231F20"/>
<mask id="mask0_41_13" style="mask-type:luminance" maskUnits="userSpaceOnUse" x="0" y="0" width="167" height="95">
<path d="M0 0.500008H167V94.5H0V0.500008Z" fill="white"/>
</mask>
<g mask="url(#mask0_41_13)">
<path d="M123.258 49.1436L132.875 34.8502L127.526 31.5267L117.455 46.2852C116.783 47.292 116.34 48.2685 116.116 49.2168L122.091 55.2554H139.11V49.1436H123.258Z" fill="#231F20"/>
<path d="M31.3246 69.2951V71.0072H34.3836V74.6284H33.1722V71.968H26.8882V71.0072H30.1008V69.2951H25.912V68.335H32.8892C33.1244 67.2129 33.1483 66.3682 33.1483 65.6162H27.1119V64.6553H34.3366V65.4541C34.3366 66.2412 34.3366 67.1428 34.1014 68.335H35.5365V69.2951H31.3246Z" fill="#28292A"/>
<path d="M45.2137 74.6172H44.0608V64.1695H45.2137V74.6172ZM41.9186 64.3776H43.0599V74.1192H41.9186V68.821H40.354V67.8485H41.9186V64.3776ZM39.377 67.0505C39.377 68.8327 40.0602 70.6375 41.5423 71.4822L40.8368 72.3495C39.8366 71.7713 39.1773 70.7411 38.801 69.5262C38.4247 70.8455 37.7422 71.9677 36.7181 72.6043L35.9886 71.7245C37.4947 70.7996 38.201 68.9137 38.201 67.0505V66.2985H36.3303V65.3151H41.1306V66.2985H39.377V67.0505Z" fill="#28292A"/>
<path d="M53.6667 72.6735C53.6667 72.0251 52.7251 71.6433 51.1605 71.6433C49.5843 71.6433 48.6189 72.0251 48.6189 72.6735C48.6189 73.3327 49.5843 73.7146 51.1605 73.7146C52.7251 73.7146 53.6667 73.3327 53.6667 72.6735ZM53.3259 68.2075C53.5965 67.1781 53.6081 66.4253 53.6081 65.639H47.5131V64.679H54.808V65.558C54.808 66.391 54.808 67.2583 54.5142 68.3345L53.3259 68.2075ZM54.8789 72.6735C54.8789 73.8884 53.4199 74.6287 51.1605 74.6287C48.8656 74.6287 47.419 73.8884 47.419 72.6735C47.419 71.4703 48.8656 70.7292 51.1605 70.7292C53.4199 70.7292 54.8789 71.4703 54.8789 72.6735ZM55.9847 68.9595V69.9195H46.4065V68.9595H50.1719V67.0394H51.3957V68.9595H55.9847Z" fill="#28292A"/>
<path d="M63.8495 72.7314C63.8495 72.0948 62.9666 71.748 61.4135 71.748C59.8604 71.748 58.9898 72.0948 58.9898 72.7314C58.9898 73.379 59.8604 73.7149 61.4135 73.7149C62.9666 73.7149 63.8495 73.379 63.8495 72.7314ZM65.0733 72.7314C65.0733 73.9463 63.6968 74.6406 61.4135 74.6406C59.1425 74.6406 57.7545 73.9463 57.7545 72.7314C57.7545 71.5282 59.1425 70.8339 61.4135 70.8339C63.6968 70.8339 65.0733 71.5282 65.0733 72.7314ZM66.25 69.2255V70.198H56.6487V69.2255H60.8375V68.1844H57.837V64.6442H65.0733V65.5925H59.0369V67.2243H65.1435V68.1844H62.0497V69.2255H66.25Z" fill="#28292A"/>
<path d="M72.4321 66.7034C72.5146 66.9465 72.5493 67.2006 72.5493 67.4788C72.5493 67.7562 72.5146 68.011 72.4321 68.2534H74.4679V66.7034H72.4321ZM75.95 73.4596V74.4314H68.7962V71.1H70.0077V73.4596H75.95ZM69.7964 69.0981C70.7025 69.0981 71.3965 68.4505 71.3965 67.4788C71.3965 66.5296 70.7025 65.882 69.7964 65.882C68.8664 65.882 68.1724 66.5296 68.1724 67.4788C68.1724 68.4505 68.8664 69.0981 69.7964 69.0981ZM71.9147 69.2259C71.4204 69.7924 70.667 70.14 69.7964 70.1283C68.2194 70.1283 67.0195 69.017 67.0195 67.4788C67.0195 65.9397 68.2194 64.8293 69.7964 64.8293C70.667 64.8293 71.4204 65.176 71.9147 65.7316H74.4679V64.1926H75.6793V71.8754H74.4679V69.2259H71.9147Z" fill="#28292A"/>
<path d="M86.7338 70.2669H82.4972V74.6284H81.2742V70.2669H77.1201V69.2834H84.0271C84.3333 67.8254 84.3333 66.7383 84.3333 65.7775H78.273V64.8174H85.5216V65.7315C85.5216 66.715 85.5216 67.8028 85.2509 69.2834H86.7338V70.2669Z" fill="#28292A"/>
<path d="M97.1395 67.4904V68.4738H95.7276V72.0257H94.5038V64.1809H95.7276V67.4904H97.1395ZM90.0683 73.4604H96.0684V74.4321H88.8445V71.3314H90.0683V73.4604ZM91.7863 68.5315C91.9976 67.4094 92.0331 66.588 92.0454 65.9397H87.8914V64.9679H93.2338V65.5695C93.2338 66.2755 93.2338 67.3049 92.9747 68.6593L91.7863 68.5315ZM93.9393 70.0472C91.727 70.429 89.2208 70.4867 87.3739 70.4867L87.2444 69.5149C87.879 69.5149 88.6085 69.5149 89.3619 69.4916V67.3517H90.5626V69.4573C91.6684 69.4105 92.8096 69.3412 93.8568 69.1791L93.9393 70.0472Z" fill="#28292A"/>
<path d="M106.369 74.6514H105.146V64.1577H106.369V74.6514ZM99.4273 71.1805C101.11 71.1696 102.58 71.0886 104.264 70.822L104.393 71.7938C102.569 72.1063 100.98 72.1647 99.1096 72.1647H98.2036V68.0221H101.91V66.0786H98.1804V65.1069H103.134V68.983H99.4273V71.1805Z" fill="#28292A"/>
<path d="M113.857 65.3961H111.41V67.0848H113.857V65.3961ZM110.198 73.6454H116.552V74.5361H108.998V72.037H115.058V71.3084H108.975V70.4286H116.246V72.8584H110.198V73.6454ZM110.198 65.3961H108.692V64.482H116.564V65.3961H115.07V67.0848H116.506V67.9879H108.751V67.0848H110.198V65.3961ZM117.459 69.6657H107.833V68.7173H117.459V69.6657Z" fill="#28292A"/>
<path d="M124.747 70.3711H123.617V64.3778H124.747V66.8192H125.923V64.1814H127.076V71.2502H125.923V67.791H124.747V70.3711ZM124.088 71.0195C124.088 72.257 125.546 73.3908 127.594 73.6682L127.123 74.594C125.488 74.3283 124.158 73.5755 123.499 72.5227C122.84 73.5755 121.499 74.3283 119.852 74.594L119.381 73.6682C121.428 73.3908 122.887 72.257 122.887 71.0195V70.7873H124.088V71.0195ZM123.157 69.9542C121.887 70.1974 120.805 70.2558 119.252 70.2558H118.534V67.1083H121.358V65.9052H118.51V64.9677H122.534V67.999H119.71V69.295C120.981 69.2833 121.946 69.2256 123.04 69.0059L123.157 69.9542Z" fill="#28292A"/>
<path d="M131.893 67.3628H134.341V65.4427H131.893V67.3628ZM130.67 73.5526H135.576V72.1062H130.67V73.5526ZM129.47 71.1579H136.765V74.5017H129.47V71.1579ZM137.941 69.3531V70.3015H128.305V69.3531H132.506V68.3229H129.234V67.3628H130.681V65.4427H129.175V64.4819H137.047V65.4427H135.553V67.3628H136.988V68.3229H133.729V69.3531H137.941Z" fill="#28292A"/>
<path d="M96.186 48.386C90.5228 48.386 85.9315 43.6059 85.9315 37.7084C85.9315 31.8117 90.5228 27.0317 96.186 27.0317C101.849 27.0317 106.441 31.8117 106.441 37.7084C106.441 43.6059 101.849 48.386 96.186 48.386ZM96.186 20.489C87.052 20.489 79.6476 28.1983 79.6476 37.7084C79.6476 47.2186 87.052 54.9287 96.186 54.9287C105.32 54.9287 112.724 47.2186 112.724 37.7084C112.724 28.1983 105.32 20.489 96.186 20.489Z" fill="#231F20"/>
<path d="M38.4493 20.1618H30.2537L26.5315 30.9181L32.7113 32.9028L34.5119 27.0724L38.9999 42.2977H30.2692L30.2106 42.4839V48.6144H40.7095L42.8463 55.2554H50.5931L38.4493 20.1618Z" fill="#231F20"/>
</g>
</svg>
