<svg width="219" height="33" viewBox="0 0 219 33" fill="none" xmlns="http://www.w3.org/2000/svg">
<g clip-path="url(#clip0_41_178)">
<mask id="mask0_41_178" style="mask-type:luminance" maskUnits="userSpaceOnUse" x="0" y="0" width="219" height="33">
<path d="M219 0.711914H0V32.2879H219V0.711914Z" fill="white"/>
</mask>
<g mask="url(#mask0_41_178)">
<mask id="mask1_41_178" style="mask-type:luminance" maskUnits="userSpaceOnUse" x="0" y="0" width="219" height="33">
<path d="M219 0.711914H0V32.2879H219V0.711914Z" fill="white"/>
</mask>
<g mask="url(#mask1_41_178)">
<path d="M46.548 23.6621C46.4618 23.5127 46.3371 23.3891 46.1869 23.3043C46.0367 23.2196 45.8665 23.1766 45.694 23.18C45.5245 23.1782 45.3577 23.2227 45.2117 23.3089C45.0658 23.3951 44.9462 23.5197 44.866 23.6691C44.1381 25.0836 43.0342 26.2701 41.6757 27.098C40.3173 27.9259 38.7569 28.3633 37.166 28.362C33.912 28.362 31.341 26.7211 29.307 23.3491L23.584 13.4851C22.4836 11.5368 20.8851 9.9162 18.9522 8.78914C17.0193 7.66208 14.8215 7.06914 12.584 7.07105H12.371C9.21201 7.14167 6.19365 8.39123 3.90913 10.5742C1.62461 12.7571 0.239139 15.7155 0.0249988 18.868C-0.085186 20.588 0.158446 22.3122 0.740845 23.9343C1.32324 25.5563 2.23204 27.0418 3.41109 28.2988C4.59014 29.5558 6.01441 30.5578 7.59591 31.2427C9.17741 31.9276 10.8826 32.281 12.606 32.2811C15.848 32.2727 18.9636 31.0231 21.313 28.7891V31.717C21.313 31.8613 21.3703 31.9997 21.4723 32.1017C21.5744 32.2037 21.7127 32.2611 21.857 32.2611H24.624C24.7683 32.2611 24.9066 32.2037 25.0087 32.1017C25.1107 31.9997 25.168 31.8613 25.168 31.717V29.223C25.1679 29.165 25.1524 29.1081 25.123 29.058L21.991 23.6411C21.9048 23.4912 21.7798 23.3672 21.6292 23.2823C21.4786 23.1973 21.3079 23.1544 21.135 23.1581C20.9639 23.1574 20.7958 23.2036 20.6491 23.2918C20.5024 23.3799 20.3827 23.5066 20.303 23.6581C19.5558 25.1188 18.4071 26.3358 16.9918 27.166C15.5765 27.9961 13.9536 28.4048 12.314 28.3441C10.1511 28.2614 8.09614 27.3776 6.54853 25.8644C5.00091 24.3511 4.07117 22.3166 3.94 20.156C3.8302 18.1827 4.39726 16.231 5.5474 14.6238C6.69753 13.0166 8.36184 11.8501 10.265 11.3172C12.1682 10.7844 14.1963 10.9172 16.0138 11.6936C17.8312 12.47 19.3292 13.8436 20.26 15.587L26.271 26.0191C27.3595 27.8913 28.9122 29.4513 30.7792 30.5487C32.6463 31.6461 34.7646 32.2437 36.9299 32.2839C39.0952 32.3241 41.2343 31.8055 43.1407 30.7782C45.0472 29.7509 46.6568 28.2496 47.814 26.419C47.8666 26.3349 47.8951 26.2379 47.8965 26.1387C47.8979 26.0394 47.8722 25.9417 47.822 25.856L46.548 23.6621Z" fill="#0083BF"/>
<path d="M50.692 25.8429C51.7993 27.829 53.4273 29.4755 55.4009 30.605C57.3744 31.7345 59.6187 32.3042 61.892 32.2529C64.7697 32.3239 67.5594 31.2575 69.656 29.2849C70.2344 28.7261 70.6925 28.0548 71.0021 27.3124C71.3116 26.57 71.4661 25.7722 71.456 24.9679C71.3828 23.8339 71.0357 22.7345 70.4446 21.7639C69.8535 20.7933 69.036 19.9804 68.062 19.3949L67.951 19.5789L68.051 19.3919C66.4204 18.5161 64.6253 17.9896 62.78 17.8459C62.428 17.7989 62.102 17.7549 61.796 17.7029C59.396 17.4029 56.837 16.1449 56.837 14.3929C56.837 12.5669 59.101 11.0809 61.884 11.0809C64.421 11.0809 66.569 12.3319 66.884 13.9909C66.9053 14.116 66.9702 14.2294 67.0673 14.311C67.1643 14.3927 67.2872 14.4373 67.414 14.4369H70.871C70.9468 14.437 71.0218 14.4212 71.0912 14.3906C71.1605 14.36 71.2228 14.3153 71.2739 14.2593C71.325 14.2033 71.3638 14.1373 71.388 14.0654C71.4121 13.9935 71.4209 13.9174 71.414 13.8419C71.047 10.0709 66.862 7.11193 61.891 7.11193C56.616 7.11193 52.324 10.3759 52.324 14.3869C52.3738 15.5293 52.7134 16.6401 53.3111 17.6149C53.9087 18.5897 54.7446 19.3964 55.74 19.9589C57.795 21.2379 61.567 21.6229 62.008 21.6639C63.7319 21.673 65.3865 22.3438 66.63 23.5379C66.8056 23.7384 66.9369 23.9737 67.0153 24.2283C67.0937 24.483 67.1175 24.7514 67.085 25.0159C66.657 28.2079 62.085 28.2949 62.041 28.2949C60.3554 28.2935 58.7003 27.8456 57.2441 26.9966C55.7879 26.1477 54.5827 24.9281 53.751 23.4619C53.751 23.4619 50.574 18.2329 48.263 13.9179C47.2345 11.8562 45.6501 10.123 43.6887 8.91397C41.7273 7.70498 39.467 7.06834 37.163 7.07593C34.3686 7.07918 31.6544 8.00983 29.446 9.72193V1.25593C29.446 1.18415 29.4318 1.11308 29.4042 1.04682C29.3766 0.980558 29.3362 0.920409 29.2853 0.869842C29.2343 0.819274 29.1739 0.779287 29.1074 0.752185C29.0409 0.725082 28.9698 0.711401 28.898 0.711929H26.13C25.9857 0.711929 25.8474 0.769243 25.7453 0.871263C25.6433 0.973282 25.586 1.11165 25.586 1.25593V11.8049C25.586 11.8628 25.6012 11.9197 25.63 11.9699L27.787 15.6979C27.8984 15.8945 28.0758 16.0453 28.2878 16.1236C28.4997 16.202 28.7325 16.2028 28.945 16.1259C29.1943 16.0305 29.398 15.8439 29.515 15.6039C30.2511 14.2136 31.3526 13.0505 32.7008 12.2399C34.049 11.4293 35.5929 11.002 37.166 11.0039C38.5882 10.9544 39.9986 11.2781 41.2569 11.9428C42.5151 12.6076 43.5774 13.5902 44.338 14.7929C45.438 16.4129 50.692 25.8429 50.692 25.8429Z" fill="#0083BF"/>
<g style="mix-blend-mode:multiply">
<mask id="mask2_41_178" style="mask-type:luminance" maskUnits="userSpaceOnUse" x="0" y="0" width="72" height="33">
<path d="M71.461 0.711914H0V32.2879H71.461V0.711914Z" fill="white"/>
</mask>
<g mask="url(#mask2_41_178)">
<mask id="mask3_41_178" style="mask-type:luminance" maskUnits="userSpaceOnUse" x="-1" y="7" width="49" height="26">
<path d="M46.548 23.6621C46.4618 23.5127 46.3371 23.3891 46.1869 23.3043C46.0367 23.2196 45.8665 23.1766 45.694 23.18C45.5246 23.1782 45.358 23.2228 45.2122 23.3091C45.0664 23.3953 44.947 23.5198 44.867 23.6691C44.139 25.0835 43.0351 26.2699 41.6766 27.0979C40.3182 27.9258 38.7578 28.3632 37.167 28.362C33.914 28.362 31.342 26.721 29.308 23.349L23.585 13.4851C22.4846 11.5368 20.8861 9.9162 18.9532 8.78914C17.0203 7.66208 14.8225 7.06914 12.585 7.07105H12.372C9.21283 7.14142 6.19423 8.39088 3.9095 10.5738C1.62477 12.7568 0.239156 15.7154 0.0249988 18.868C-0.085186 20.588 0.158446 22.3122 0.740845 23.9343C1.32324 25.5563 2.23204 27.0418 3.41109 28.2988C4.59014 29.5558 6.01441 30.5578 7.59591 31.2427C9.17741 31.9276 10.8826 32.281 12.606 32.281C15.848 32.2731 18.9639 31.0234 21.313 28.7891V31.717C21.313 31.8613 21.3703 31.9997 21.4723 32.1017C21.5744 32.2037 21.7127 32.2611 21.857 32.2611H24.624C24.7683 32.2611 24.9066 32.2037 25.0087 32.1017C25.1107 31.9997 25.168 31.8613 25.168 31.717V29.224C25.1681 29.1661 25.1529 29.1092 25.124 29.059L21.992 23.642C21.9057 23.4922 21.7807 23.3684 21.6301 23.2834C21.4795 23.1984 21.3089 23.1555 21.136 23.159C20.965 23.1584 20.7971 23.2047 20.6506 23.2929C20.5041 23.381 20.3846 23.5077 20.305 23.659C19.5577 25.1199 18.4087 26.337 16.9933 27.1671C15.5778 27.9972 13.9548 28.4059 12.315 28.3451C10.1517 28.2627 8.09643 27.3788 6.54858 25.8653C5.00073 24.3519 4.07095 22.3169 3.94 20.156C3.83076 18.1829 4.39819 16.2315 5.54846 14.6245C6.69874 13.0176 8.36299 11.8514 10.266 11.3186C12.1691 10.7859 14.1969 10.9185 16.0144 11.6947C17.8318 12.4708 19.3299 13.8439 20.261 15.587L26.272 26.0191C27.3606 27.891 28.9132 29.4509 30.7801 30.5481C32.6471 31.6453 34.7653 32.2429 36.9304 32.2831C39.0955 32.3233 41.2344 31.8048 43.1408 30.7776C45.0472 29.7505 46.6567 28.2493 47.814 26.419C47.8666 26.3347 47.8952 26.2376 47.8966 26.1382C47.8981 26.0388 47.8722 25.9408 47.822 25.855L46.548 23.6621Z" fill="white"/>
</mask>
<g mask="url(#mask3_41_178)">
<path d="M47.924 7.07007H-0.194031V32.2891H47.924V7.07007Z" fill="url(#paint0_linear_41_178)"/>
</g>
<mask id="mask4_41_178" style="mask-type:luminance" maskUnits="userSpaceOnUse" x="25" y="0" width="47" height="33">
<path d="M50.692 25.8429C51.7993 27.829 53.4273 29.4755 55.4009 30.605C57.3744 31.7345 59.6187 32.3042 61.892 32.2529C64.7697 32.3239 67.5594 31.2575 69.656 29.2849C70.2347 28.7263 70.693 28.0551 71.0025 27.3126C71.3121 26.5702 71.4664 25.7722 71.456 24.9679C71.3829 23.8338 71.0359 22.7344 70.4448 21.7638C69.8536 20.7932 69.036 19.9804 68.062 19.3949L67.951 19.5789L68.051 19.3919C66.4207 18.5163 64.626 17.9898 62.781 17.8459C62.428 17.7989 62.103 17.7549 61.797 17.7029C59.397 17.4029 56.838 16.1449 56.838 14.3929C56.838 12.5669 59.102 11.0809 61.885 11.0809C64.422 11.0809 66.57 12.3319 66.885 13.9909C66.9063 14.116 66.9712 14.2294 67.0683 14.311C67.1653 14.3927 67.2882 14.4373 67.415 14.4369H70.873C70.9495 14.4369 71.0251 14.4209 71.095 14.3899C71.165 14.3589 71.2276 14.3136 71.279 14.2569C71.3293 14.2012 71.3675 14.1356 71.3911 14.0643C71.4146 13.9931 71.4231 13.9177 71.416 13.8429C71.047 10.0709 66.862 7.11193 61.892 7.11193C56.616 7.11193 52.325 10.3759 52.325 14.3869C52.3748 15.5293 52.7144 16.6401 53.3121 17.6149C53.9097 18.5897 54.7456 19.3964 55.741 19.9589C57.796 21.2379 61.568 21.6229 62.009 21.6639C63.7326 21.6733 65.3867 22.3442 66.63 23.5379C66.8057 23.7383 66.9371 23.9736 67.0155 24.2283C67.0939 24.483 67.1176 24.7514 67.085 25.0159C66.657 28.2079 62.085 28.2949 62.042 28.2949C60.3564 28.2935 58.7013 27.8456 57.2451 26.9966C55.7889 26.1477 54.5837 24.9281 53.752 23.4619C53.752 23.4619 50.575 18.2329 48.264 13.9179C47.2356 11.8561 45.6512 10.1228 43.6898 8.91382C41.7284 7.70481 39.4681 7.06823 37.164 7.07593C34.3693 7.07903 31.6547 8.00969 29.446 9.72193V1.25593C29.446 1.18415 29.4318 1.11308 29.4042 1.04682C29.3766 0.980558 29.3362 0.920409 29.2853 0.869842C29.2343 0.819274 29.1739 0.779287 29.1074 0.752185C29.0409 0.725082 28.9698 0.711401 28.898 0.711929H26.13C25.9857 0.711929 25.8474 0.769243 25.7453 0.871263C25.6433 0.973282 25.586 1.11165 25.586 1.25593V11.8049C25.586 11.8628 25.6012 11.9197 25.63 11.9699L27.788 15.6979C27.8993 15.8946 28.0767 16.0456 28.2886 16.1239C28.5006 16.2023 28.7335 16.203 28.946 16.1259C29.1954 16.0306 29.3992 15.844 29.516 15.6039C30.2521 14.2136 31.3536 13.0505 32.7018 12.2399C34.05 11.4293 35.5939 11.002 37.167 11.0039C38.5892 10.9543 39.9996 11.2779 41.2579 11.9427C42.5162 12.6074 43.5785 13.5901 44.339 14.7929C45.439 16.4129 50.692 25.8429 50.692 25.8429Z" fill="white"/>
</mask>
<g mask="url(#mask4_41_178)">
<path d="M71.505 0.711914H25.587V32.2519H71.505V0.711914Z" fill="url(#paint1_linear_41_178)"/>
</g>
</g>
</g>
<path d="M84.031 26.78H84.854V32.025H84.031V26.78ZM86.964 26.78H87.947L84.783 30.262L84.393 29.598L86.964 26.78ZM85.172 29.38L85.801 28.88L88.048 32.022H87.048L85.172 29.38Z" fill="#0038AE"/>
<path d="M91.638 32.082C91.2295 32.0877 90.8258 31.9947 90.461 31.811C90.0947 31.6165 89.7987 31.3118 89.615 30.94C89.4051 30.4548 89.2968 29.9317 89.2968 29.403C89.2968 28.8743 89.4051 28.3512 89.615 27.866C89.7983 27.4932 90.0943 27.1874 90.461 26.992C90.8279 26.8136 91.2305 26.7209 91.6385 26.7209C92.0464 26.7209 92.4491 26.8136 92.816 26.992C93.182 27.1879 93.4775 27.4936 93.661 27.866C93.8706 28.3513 93.9787 28.8744 93.9787 29.403C93.9787 29.9317 93.8706 30.4547 93.661 30.94C93.4771 31.3114 93.1816 31.616 92.816 31.811C92.4511 31.9946 92.0464 32.0876 91.638 32.082ZM91.639 31.346C91.8498 31.3571 92.0602 31.318 92.253 31.2319C92.4458 31.1459 92.6154 31.0153 92.748 30.851C93.0058 30.4125 93.1417 29.9132 93.1417 29.4045C93.1417 28.8959 93.0058 28.3965 92.748 27.958C92.6074 27.8037 92.4361 27.6804 92.2452 27.596C92.0542 27.5116 91.8477 27.468 91.639 27.468C91.4302 27.468 91.2237 27.5116 91.0328 27.596C90.8418 27.6804 90.6705 27.8037 90.53 27.958C90.2725 28.3966 90.1367 28.8959 90.1367 29.4045C90.1367 29.9131 90.2725 30.4124 90.53 30.851C90.6627 31.0152 90.8323 31.1456 91.0251 31.2316C91.2178 31.3176 91.4282 31.3568 91.639 31.346Z" fill="#0038AE"/>
<path d="M95.915 26.7789H96.738V32.0239H95.915V26.7789ZM97.953 26.7789C98.4353 26.7584 98.9117 26.8911 99.314 27.1579C99.4813 27.3086 99.615 27.4928 99.7066 27.6984C99.7981 27.9041 99.8454 28.1268 99.8454 28.3519C99.8454 28.5771 99.7981 28.7997 99.7066 29.0054C99.615 29.2111 99.4813 29.3952 99.314 29.5459C98.911 29.8108 98.4348 29.9424 97.953 29.9219H96.381V29.2069H97.956C98.23 29.223 98.502 29.1508 98.732 29.0009C98.8199 28.9177 98.8899 28.8175 98.9378 28.7064C98.9856 28.5952 99.0103 28.4754 99.0103 28.3544C99.0103 28.2334 98.9856 28.1136 98.9378 28.0025C98.8899 27.8913 98.8199 27.7911 98.732 27.7079C98.502 27.558 98.23 27.4858 97.956 27.5019H96.381V26.7799L97.953 26.7789ZM97.837 29.5679H98.737L100.037 32.0239H99.137L97.837 29.5679Z" fill="#0038AE"/>
<path d="M101.868 26.7788H102.691V32.0238H101.868V26.7788ZM102.186 26.7788H105.293V27.5008H102.186V26.7788ZM102.186 28.9968H105.032V29.7118H102.186V28.9968ZM102.186 31.2968H105.437V32.0188H102.186V31.2968Z" fill="#0038AE"/>
<path d="M106.917 32.025L108.824 26.78H109.612L107.776 32.025H106.917ZM107.878 29.916H110.608V30.616H107.878V29.916ZM110.804 32.025L108.926 26.78H109.726L111.677 32.025H110.804Z" fill="#0038AE"/>
<path d="M115.738 32.025L117.645 26.78H118.433L116.597 32.025H115.738ZM116.699 29.916H119.429V30.616H116.699V29.916ZM119.625 32.025L117.747 26.78H118.547L120.498 32.025H119.625Z" fill="#0038AE"/>
<path d="M122.24 32.0249V26.7799H124.104C124.576 26.7536 125.045 26.8574 125.462 27.0799C125.632 27.1964 125.767 27.3565 125.854 27.5434C125.94 27.7302 125.975 27.937 125.954 28.1419C125.966 28.4044 125.885 28.6627 125.726 28.8719C125.578 29.0572 125.37 29.185 125.138 29.2329C125.43 29.2769 125.695 29.4259 125.885 29.6519C126.085 29.9079 126.187 30.2273 126.171 30.5519C126.188 30.7655 126.151 30.9801 126.062 31.1753C125.974 31.3706 125.837 31.5401 125.665 31.6679C125.263 31.9192 124.794 32.0414 124.321 32.0179L122.24 32.0249ZM124.104 28.9549C124.366 28.9712 124.627 28.9148 124.859 28.7919C124.947 28.7312 125.018 28.6479 125.063 28.5509C125.108 28.4538 125.126 28.3464 125.116 28.2399C125.127 28.1305 125.109 28.0202 125.064 27.92C125.019 27.8198 124.948 27.7332 124.859 27.6689C124.628 27.5438 124.366 27.4862 124.104 27.5029H123.063V28.9549H124.104ZM124.321 31.3029C124.586 31.3207 124.85 31.255 125.076 31.1149C125.168 31.0365 125.239 30.9371 125.284 30.8251C125.329 30.7131 125.346 30.5918 125.333 30.4719C125.345 30.3542 125.327 30.2354 125.282 30.126C125.238 30.0165 125.167 29.9197 125.076 29.8439C124.85 29.7036 124.586 29.6378 124.321 29.6559H123.064V31.3019L124.321 31.3029Z" fill="#0038AE"/>
<path d="M131.112 28.3258C131.064 28.1635 130.984 28.0125 130.877 27.8818C130.767 27.7472 130.627 27.6394 130.469 27.5668C130.294 27.4872 130.104 27.4476 129.912 27.4508C129.641 27.4368 129.371 27.5022 129.136 27.6388C129.045 27.6945 128.971 27.7735 128.92 27.8675C128.87 27.9615 128.846 28.0673 128.85 28.1738C128.843 28.3099 128.884 28.4441 128.966 28.5528C129.073 28.6657 129.209 28.7478 129.359 28.7908C129.544 28.8575 129.832 28.9382 130.222 29.0328C130.545 29.0983 130.859 29.2024 131.157 29.3428C131.377 29.4474 131.565 29.6081 131.703 29.8088C131.836 30.0271 131.901 30.2796 131.891 30.5348C131.903 30.7538 131.861 30.9724 131.77 31.1718C131.679 31.3713 131.54 31.5456 131.367 31.6798C130.937 31.9704 130.423 32.111 129.905 32.0798C129.423 32.1015 128.945 31.9729 128.539 31.7118C128.174 31.4473 127.907 31.0688 127.78 30.6358L128.568 30.3608C128.654 30.6598 128.834 30.9232 129.081 31.1118C129.338 31.2796 129.641 31.3628 129.948 31.3498C130.234 31.366 130.519 31.2993 130.768 31.1578C130.863 31.0977 130.94 31.0135 130.991 30.9139C131.042 30.8143 131.067 30.7028 131.061 30.5908C131.068 30.4484 131.023 30.3084 130.934 30.1968C130.821 30.0799 130.681 29.9929 130.526 29.9438C130.244 29.8464 129.957 29.7633 129.666 29.6948C129.337 29.6182 129.019 29.5045 128.716 29.3558C128.505 29.2539 128.323 29.0997 128.188 28.9078C128.07 28.7148 128.01 28.4912 128.018 28.2648C128.004 28.0464 128.043 27.8278 128.131 27.6274C128.219 27.427 128.354 27.2506 128.524 27.1128C128.936 26.8277 129.432 26.689 129.933 26.7188C130.255 26.713 130.576 26.7758 130.872 26.9028C131.128 27.0119 131.356 27.1786 131.537 27.3898C131.701 27.5846 131.824 27.8109 131.898 28.0548L131.112 28.3258Z" fill="#0038AE"/>
<path d="M136.565 26.7789H137.389V32.0239H136.565V26.7789ZM138.603 26.7789C139.085 26.7584 139.562 26.8911 139.964 27.1579C140.131 27.3086 140.265 27.4928 140.357 27.6984C140.448 27.9041 140.495 28.1268 140.495 28.3519C140.495 28.5771 140.448 28.7997 140.357 29.0054C140.265 29.2111 140.131 29.3952 139.964 29.5459C139.561 29.8108 139.085 29.9424 138.603 29.9219H137.028V29.2069H138.603C138.877 29.223 139.149 29.1508 139.379 29.0009C139.467 28.9177 139.537 28.8175 139.585 28.7064C139.633 28.5952 139.657 28.4754 139.657 28.3544C139.657 28.2334 139.633 28.1136 139.585 28.0025C139.537 27.8913 139.467 27.7911 139.379 27.7079C139.149 27.558 138.877 27.4858 138.603 27.5019H137.028V26.7799L138.603 26.7789ZM138.487 29.5679H139.387L140.687 32.0239H139.787L138.487 29.5679Z" fill="#0038AE"/>
<path d="M142.518 26.7788H143.341V32.0238H142.518V26.7788ZM142.836 26.7788H145.943V27.5008H142.836V26.7788ZM142.836 28.9968H145.682V29.7118H142.836V28.9968ZM142.836 31.2968H146.087V32.0188H142.836V31.2968Z" fill="#0038AE"/>
<path d="M150.985 28.3258C150.937 28.1635 150.857 28.0125 150.75 27.8818C150.64 27.7472 150.5 27.6394 150.342 27.5668C150.167 27.4872 149.977 27.4476 149.785 27.4508C149.514 27.4368 149.244 27.5022 149.009 27.6388C148.918 27.6945 148.844 27.7735 148.793 27.8675C148.743 27.9615 148.719 28.0673 148.723 28.1738C148.716 28.3099 148.757 28.4441 148.839 28.5528C148.947 28.6657 149.082 28.7478 149.232 28.7908C149.417 28.8575 149.705 28.9382 150.095 29.0328C150.418 29.0984 150.732 29.2025 151.03 29.3428C151.25 29.4474 151.438 29.6081 151.576 29.8088C151.709 30.0271 151.774 30.2796 151.764 30.5348C151.776 30.7538 151.734 30.9724 151.643 31.1718C151.552 31.3713 151.413 31.5456 151.24 31.6798C150.81 31.9706 150.295 32.1112 149.777 32.0798C149.295 32.1015 148.817 31.9729 148.411 31.7118C148.046 31.4473 147.779 31.0688 147.652 30.6358L148.44 30.3608C148.526 30.6598 148.706 30.9231 148.953 31.1118C149.21 31.2795 149.513 31.3627 149.82 31.3498C150.106 31.366 150.391 31.2993 150.64 31.1578C150.735 31.0977 150.812 31.0135 150.863 30.9139C150.915 30.8143 150.939 30.7028 150.933 30.5908C150.94 30.4484 150.895 30.3084 150.806 30.1968C150.693 30.08 150.553 29.9931 150.398 29.9438C150.116 29.8464 149.829 29.7633 149.538 29.6948C149.209 29.6182 148.891 29.5045 148.588 29.3558C148.377 29.2539 148.195 29.0997 148.06 28.9078C147.942 28.7147 147.883 28.4911 147.891 28.2648C147.877 28.0464 147.916 27.8278 148.004 27.6274C148.092 27.427 148.227 27.2506 148.397 27.1128C148.809 26.8277 149.305 26.689 149.806 26.7188C150.128 26.713 150.449 26.7758 150.745 26.9028C151.001 27.0119 151.229 27.1786 151.41 27.3898C151.574 27.5846 151.697 27.8109 151.771 28.0548L150.985 28.3258Z" fill="#0038AE"/>
<path d="M153.672 26.7788H154.495V32.0238H153.672V26.7788ZM153.99 26.7788H157.1V27.5008H153.99V26.7788ZM153.99 28.9968H156.836V29.7118H153.99V28.9968ZM153.99 31.2968H157.241V32.0188H153.99V31.2968Z" fill="#0038AE"/>
<path d="M158.722 32.025L160.629 26.78H161.417L159.581 32.025H158.722ZM159.683 29.916H162.413V30.616H159.683V29.916ZM162.609 32.025L160.731 26.78H161.531L163.482 32.025H162.609Z" fill="#0038AE"/>
<path d="M165.224 26.7789H166.047V32.0239H165.224V26.7789ZM167.262 26.7789C167.744 26.7584 168.221 26.8911 168.623 27.1579C168.79 27.3086 168.924 27.4928 169.016 27.6984C169.107 27.9041 169.154 28.1268 169.154 28.3519C169.154 28.5771 169.107 28.7997 169.016 29.0054C168.924 29.2111 168.79 29.3952 168.623 29.5459C168.22 29.8108 167.744 29.9424 167.262 29.9219H165.687V29.2069H167.263C167.537 29.223 167.809 29.1508 168.039 29.0009C168.127 28.9177 168.197 28.8175 168.245 28.7064C168.293 28.5952 168.317 28.4754 168.317 28.3544C168.317 28.2334 168.293 28.1136 168.245 28.0025C168.197 27.8913 168.127 27.7911 168.039 27.7079C167.809 27.558 167.537 27.4858 167.263 27.5019H165.688V26.7799L167.262 26.7789ZM167.146 29.5679H168.046L169.346 32.0239H168.446L167.146 29.5679Z" fill="#0038AE"/>
<path d="M170.808 29.402C170.788 28.8746 170.894 28.3501 171.115 27.871C171.29 27.5031 171.574 27.198 171.928 26.997C172.308 26.8026 172.731 26.7085 173.157 26.7238C173.583 26.739 173.998 26.863 174.363 27.084C174.73 27.3318 175.006 27.6918 175.151 28.11L174.378 28.41C174.309 28.119 174.137 27.8628 173.894 27.6887C173.651 27.5146 173.354 27.4344 173.056 27.463C172.855 27.4525 172.655 27.4919 172.472 27.5775C172.29 27.6632 172.132 27.7925 172.012 27.954C171.772 28.3995 171.646 28.8978 171.646 29.404C171.646 29.9102 171.772 30.4085 172.012 30.854C172.132 31.0155 172.29 31.1449 172.472 31.2306C172.654 31.3162 172.855 31.3555 173.056 31.345C173.361 31.3618 173.662 31.2751 173.912 31.099C174.14 30.9073 174.302 30.6499 174.378 30.362L175.151 30.662C175.017 31.0933 174.743 31.4673 174.371 31.724C174.003 31.9414 173.587 32.0626 173.16 32.0764C172.733 32.0902 172.31 31.9962 171.929 31.803C171.575 31.6022 171.291 31.297 171.116 30.929C170.895 30.4499 170.789 29.9254 170.809 29.398" fill="#0038AE"/>
<path d="M177.013 26.7788H177.836V32.0238H177.013V26.7788ZM177.331 28.9968H180.777V29.7188H177.331V28.9968ZM180.373 26.7788H181.196V32.0238H180.373V26.7788Z" fill="#0038AE"/>
<path d="M185.899 29.402C185.88 28.8746 185.985 28.3501 186.206 27.871C186.381 27.5031 186.665 27.198 187.019 26.997C187.399 26.8026 187.822 26.7085 188.248 26.7238C188.674 26.739 189.089 26.863 189.454 27.084C189.821 27.3318 190.097 27.6918 190.242 28.11L189.469 28.41C189.4 28.119 189.229 27.8628 188.986 27.6887C188.742 27.5146 188.445 27.4344 188.147 27.463C187.946 27.4525 187.746 27.4919 187.563 27.5775C187.381 27.6632 187.223 27.7925 187.103 27.954C186.863 28.3995 186.737 28.8978 186.737 29.404C186.737 29.9102 186.863 30.4085 187.103 30.854C187.223 31.0155 187.381 31.1449 187.563 31.2306C187.746 31.3162 187.946 31.3555 188.147 31.345C188.452 31.3618 188.754 31.2751 189.003 31.099C189.231 30.9073 189.394 30.6499 189.469 30.362L190.242 30.662C190.108 31.0933 189.834 31.4673 189.462 31.724C189.094 31.9414 188.678 32.0626 188.251 32.0764C187.824 32.0902 187.401 31.9962 187.02 31.803C186.666 31.6022 186.382 31.297 186.207 30.929C185.986 30.4499 185.881 29.9254 185.9 29.398" fill="#0038AE"/>
<path d="M192.105 26.7788H192.928V32.0238H192.105V26.7788ZM192.423 26.7788H195.532V27.5008H192.425L192.423 26.7788ZM192.423 28.9968H195.269V29.7118H192.423V28.9968ZM192.423 31.2968H195.674V32.0188H192.423V31.2968Z" fill="#0038AE"/>
<path d="M197.599 32.024V26.78H198.538L200.814 30.674V26.78H201.637V32.025H200.706L198.423 28.131V32.025L197.599 32.024Z" fill="#0038AE"/>
<path d="M203.352 26.7788H207.672V27.5008H203.352V26.7788ZM205.101 26.9378H205.924V32.0238H205.101V26.9378Z" fill="#0038AE"/>
<path d="M209.384 26.7788H210.207V32.0238H209.384V26.7788ZM209.702 26.7788H212.809V27.5008H209.702V26.7788ZM209.702 28.9968H212.548V29.7118H209.702V28.9968ZM209.702 31.2968H212.953V32.0188H209.702V31.2968Z" fill="#0038AE"/>
<path d="M214.882 26.7789H215.705V32.0239H214.882V26.7789ZM216.92 26.7789C217.402 26.7584 217.879 26.8911 218.281 27.1579C218.448 27.3086 218.582 27.4928 218.674 27.6984C218.765 27.9041 218.812 28.1268 218.812 28.3519C218.812 28.5771 218.765 28.7997 218.674 29.0054C218.582 29.2111 218.448 29.3952 218.281 29.5459C217.878 29.8108 217.402 29.9424 216.92 29.9219H215.345V29.2069H216.92C217.194 29.223 217.466 29.1508 217.696 29.0009C217.784 28.9177 217.854 28.8175 217.902 28.7064C217.95 28.5952 217.974 28.4754 217.974 28.3544C217.974 28.2334 217.95 28.1136 217.902 28.0025C217.854 27.8913 217.784 27.7911 217.696 27.7079C217.466 27.558 217.194 27.4858 216.92 27.5019H215.345V26.7799L216.92 26.7789ZM216.804 29.5679H217.704L219.004 32.0239H218.104L216.804 29.5679Z" fill="#0038AE"/>
<path d="M87.259 8.11494V7.63094C87.259 7.33794 87.411 7.18194 87.734 7.18194H88.872C88.9342 7.17276 88.9978 7.17782 89.0578 7.19674C89.1178 7.21566 89.1727 7.24795 89.2184 7.29118C89.2642 7.3344 89.2995 7.38743 89.3218 7.44629C89.344 7.50514 89.3526 7.56827 89.347 7.63094V8.11494H91.947C92.269 8.11494 92.44 8.26994 92.44 8.54594V9.47794C92.44 9.77094 92.269 9.90894 91.947 9.90894H84.223C83.882 9.90894 83.73 9.77094 83.73 9.47794V8.54594C83.73 8.26994 83.882 8.11494 84.223 8.11494H87.259ZM84.05 19.2049C84.05 18.9119 84.202 18.7569 84.525 18.7569H85.663C85.7251 18.7478 85.7886 18.7528 85.8485 18.7717C85.9084 18.7906 85.9633 18.8228 86.009 18.8659C86.0547 18.909 86.0901 18.9619 86.1124 19.0206C86.1347 19.0793 86.1435 19.1424 86.138 19.2049V20.9379L95.892 20.9049C96.215 20.9049 96.386 21.0429 96.386 21.3369V22.2679C96.386 22.5439 96.215 22.6989 95.892 22.6989L84.961 22.7269C84.8363 22.7404 84.7103 22.729 84.5901 22.6933C84.4699 22.6576 84.358 22.5983 84.261 22.5189C84.1839 22.4365 84.1253 22.3385 84.0893 22.2316C84.0532 22.1246 84.0405 22.0112 84.052 21.8989L84.05 19.2049ZM95.629 13.9159V18.0049C95.629 18.3149 95.458 18.4539 95.154 18.4539H94.015C93.693 18.4539 93.541 18.3159 93.541 18.0049V8.14894C93.541 7.85594 93.693 7.69994 94.015 7.69994H95.154C95.2162 7.69076 95.2798 7.69582 95.3398 7.71474C95.3998 7.73366 95.4547 7.76595 95.5004 7.80918C95.5462 7.8524 95.5815 7.90543 95.6038 7.96429C95.626 8.02314 95.6346 8.08627 95.629 8.14894V12.1169H97.546C97.869 12.1169 98.04 12.2719 98.04 12.5479V13.4799C98.04 13.7729 97.869 13.9109 97.546 13.9109L95.629 13.9159Z" fill="#1A1311"/>
<path d="M113.626 13.5349C113.949 13.5349 114.12 13.6899 114.12 13.9659V14.8979C114.12 15.1909 113.949 15.3289 113.626 15.3289H107.344V17.2929H111.31C111.561 17.2721 111.811 17.3463 112.01 17.5009C112.158 17.6722 112.233 17.8948 112.219 18.1209V22.2789C112.225 22.3415 112.216 22.4047 112.194 22.4635C112.171 22.5224 112.136 22.5754 112.09 22.6186C112.045 22.6619 111.99 22.6941 111.93 22.7131C111.87 22.732 111.806 22.737 111.744 22.7279H110.605C110.283 22.7279 110.131 22.5729 110.131 22.2789V19.0879H100.946C100.605 19.0879 100.453 18.9499 100.453 18.6559V17.7249C100.453 17.4489 100.605 17.2939 100.946 17.2939H105.254V15.3289H99.052C98.711 15.3289 98.558 15.1909 98.558 14.8979V13.9659C98.558 13.6899 98.71 13.5349 99.052 13.5349H113.626ZM112.226 8.42386C112.226 7.94086 111.941 7.68286 111.41 7.68286H100.949C100.608 7.68286 100.456 7.83786 100.456 8.11386V9.04586C100.456 9.33886 100.608 9.47686 100.949 9.47686H110.134V12.3279C110.127 12.3956 110.139 12.4639 110.169 12.525C110.199 12.586 110.246 12.6373 110.304 12.6729C110.429 12.7492 110.576 12.7842 110.722 12.7729H111.747C112.047 12.7729 112.222 12.6349 112.222 12.3249L112.226 8.42386Z" fill="#1A1311"/>
<path d="M134.801 7.73389C135.479 7.73561 136.156 7.80258 136.821 7.93389C137.393 8.06452 137.942 8.28492 138.445 8.58689C138.88 8.88889 139.239 9.28725 139.494 9.75089C139.749 10.2864 139.877 10.873 139.87 11.4659C139.875 12.121 139.761 12.7716 139.533 13.3859C139.326 13.9529 138.971 14.4538 138.504 14.8359C139.204 15.1703 139.785 15.7122 140.167 16.3879C140.537 17.1079 140.727 17.9065 140.722 18.7159C140.749 19.4049 140.592 20.0886 140.267 20.6969C139.972 21.2049 139.558 21.6327 139.059 21.9429C138.557 22.2535 138.009 22.4811 137.435 22.6169C136.843 22.7376 136.24 22.7992 135.635 22.8009L130.942 22.7809C130.742 22.7809 130.566 22.7609 130.427 22.7609C130.295 22.7324 130.168 22.6842 130.051 22.6179C129.938 22.5378 129.854 22.423 129.813 22.2909C129.749 22.0932 129.722 21.8853 129.734 21.6779V8.84089C129.726 8.63356 129.752 8.42628 129.813 8.22789C129.855 8.09586 129.938 7.98103 130.051 7.90089C130.168 7.83459 130.295 7.78638 130.427 7.75789C130.566 7.75789 130.744 7.73789 130.942 7.73789L134.801 7.73389ZM131.91 14.0639H135.058C135.418 14.0975 135.782 14.0568 136.126 13.9443C136.47 13.8318 136.787 13.6499 137.058 13.4099C137.276 13.1703 137.444 12.8899 137.553 12.5849C137.662 12.2798 137.709 11.9563 137.692 11.6329C137.695 11.3212 137.606 11.0157 137.435 10.7549C137.241 10.5285 137.006 10.3414 136.742 10.2039C136.423 10.0726 136.091 9.97674 135.752 9.91789C135.371 9.86955 134.987 9.84217 134.603 9.83589L131.91 9.85589V14.0639ZM131.91 16.1639V20.6769H135.375C135.754 20.6824 136.132 20.6489 136.504 20.5769C136.865 20.533 137.214 20.4221 137.534 20.2499C137.827 20.1026 138.078 19.8851 138.266 19.6169C138.463 19.3141 138.56 18.9569 138.543 18.5959C138.546 18.1937 138.456 17.7963 138.282 17.4339C138.1 17.1469 137.865 16.8971 137.589 16.6979C137.278 16.5052 136.936 16.3672 136.579 16.2899C136.175 16.2064 135.763 16.1652 135.351 16.1669L131.91 16.1639Z" fill="#1A1311"/>
<path d="M156.911 17.6549C156.911 17.3619 157.063 17.2069 157.386 17.2069H158.525C158.587 17.1979 158.65 17.203 158.71 17.222C158.77 17.2409 158.825 17.2731 158.87 17.3162C158.916 17.3593 158.951 17.4122 158.973 17.4708C158.996 17.5294 159.005 17.5924 158.999 17.6549V20.8299H168.981C169.304 20.8299 169.475 20.9679 169.475 21.2609V22.1919C169.475 22.4679 169.305 22.6229 168.981 22.6229H157.822C157.697 22.6364 157.571 22.6251 157.451 22.5896C157.331 22.5541 157.219 22.495 157.122 22.4159C157.045 22.3333 156.986 22.2351 156.95 22.128C156.914 22.0209 156.902 21.9073 156.913 21.7949L156.911 17.6549ZM167.192 9.57986V8.14886C167.192 7.85586 167.344 7.69986 167.667 7.69986H168.806C168.868 7.69085 168.932 7.69603 168.991 7.71503C169.051 7.73403 169.106 7.76634 169.152 7.80954C169.197 7.85275 169.233 7.90572 169.255 7.96449C169.277 8.02325 169.286 8.08629 169.28 8.14886V17.9999C169.28 18.3099 169.109 18.4489 168.806 18.4489H167.667C167.344 18.4489 167.192 18.3109 167.192 17.9999V14.5799H164.706C164.364 14.5799 164.212 14.4419 164.212 14.1489V13.2169C164.212 12.9409 164.364 12.7859 164.706 12.7859H167.192V11.3799H164.706C164.364 11.3799 164.212 11.2419 164.212 10.9489V10.0179C164.212 9.74186 164.364 9.58686 164.706 9.58686L167.192 9.57986Z" fill="#1A1311"/>
<path d="M186.312 15.5758C186.635 15.5758 186.806 15.7308 186.806 16.0068V16.9378C186.806 17.2308 186.636 17.3688 186.312 17.3688H180.031V22.3038C180.037 22.3665 180.028 22.4296 180.006 22.4885C179.984 22.5473 179.948 22.6004 179.902 22.6436C179.857 22.6868 179.802 22.7191 179.742 22.738C179.682 22.7569 179.618 22.762 179.556 22.7528H178.418C178.096 22.7528 177.943 22.5978 177.943 22.3038V17.3688H171.743C171.401 17.3688 171.249 17.2308 171.249 16.9378V16.0058C171.249 15.7298 171.4 15.5748 171.743 15.5748L186.312 15.5758ZM185.154 8.36383C185.154 7.87983 184.87 7.62183 184.338 7.62183H173.352C173.01 7.62183 172.858 7.77683 172.858 8.05283V8.98483C172.858 9.27783 173.01 9.41583 173.352 9.41583H183.068V14.0908C183.061 14.1585 183.073 14.2269 183.103 14.2879C183.133 14.349 183.18 14.4003 183.238 14.4358C183.363 14.5122 183.51 14.5472 183.656 14.5358H184.68C184.98 14.5358 185.154 14.3978 185.154 14.0868V8.36383Z" fill="#1A1311"/>
<path d="M192.054 14.256L189.36 16.067C189.208 16.167 189.094 16.188 188.999 16.119C188.937 16.0967 188.88 16.0624 188.831 16.0179C188.782 15.9735 188.743 15.9198 188.715 15.86L188.145 14.98C188.032 14.842 188.032 14.738 188.107 14.652C188.195 14.5524 188.296 14.4652 188.407 14.393L191.045 12.564V8.09705C191.045 7.80405 191.197 7.64805 191.519 7.64805H192.657C192.719 7.63887 192.783 7.64393 192.843 7.66285C192.903 7.68177 192.958 7.71406 193.003 7.75728C193.049 7.80051 193.085 7.85354 193.107 7.91239C193.129 7.97125 193.138 8.03438 193.132 8.09705V12.566L195.694 14.395C195.827 14.495 195.941 14.585 196.017 14.654C196.074 14.74 196.055 14.843 195.96 14.982L195.391 15.862C195.325 15.9753 195.225 16.0657 195.106 16.121C195.049 16.1544 194.982 16.1674 194.917 16.1579C194.852 16.1485 194.791 16.1172 194.746 16.069L192.054 14.256ZM189.91 17.741C189.91 17.448 190.061 17.292 190.384 17.292H191.518C191.58 17.2829 191.644 17.2879 191.704 17.3069C191.764 17.3258 191.819 17.3581 191.864 17.4013C191.91 17.4445 191.946 17.4975 191.968 17.5564C191.99 17.6152 191.999 17.6784 191.993 17.741V20.933H202.165C202.487 20.933 202.659 21.071 202.659 21.364V22.296C202.659 22.572 202.488 22.727 202.165 22.727H190.818C190.693 22.7407 190.567 22.7294 190.447 22.6939C190.327 22.6583 190.215 22.5992 190.118 22.52C190.041 22.4374 189.983 22.3392 189.947 22.2321C189.911 22.125 189.898 22.0114 189.91 21.899V17.741ZM197.235 10.771V8.07105C197.235 7.77805 197.387 7.62205 197.709 7.62205H198.847C198.909 7.61287 198.973 7.61793 199.033 7.63685C199.093 7.65577 199.148 7.68806 199.193 7.73128C199.239 7.77451 199.275 7.82754 199.297 7.88639C199.319 7.94525 199.328 8.00838 199.322 8.07105V18.004C199.322 18.314 199.152 18.453 198.847 18.453H197.709C197.387 18.453 197.235 18.315 197.235 18.004V12.565H195.166C194.825 12.565 194.672 12.427 194.672 12.134V11.202C194.672 10.926 194.824 10.771 195.166 10.771H197.235ZM202.472 18C202.472 18.31 202.302 18.449 201.998 18.449H200.86C200.537 18.449 200.386 18.311 200.386 18V8.06805C200.386 7.77505 200.537 7.61905 200.86 7.61905H201.998C202.06 7.61004 202.124 7.61522 202.183 7.63422C202.243 7.65322 202.298 7.68553 202.344 7.72873C202.389 7.77194 202.425 7.82491 202.447 7.88368C202.469 7.94244 202.478 8.00548 202.472 8.06805V18Z" fill="#1A1311"/>
<path d="M207.206 15.0839V18.3969H212.577C212.899 18.3969 213.071 18.5519 213.071 18.8279V19.7589C213.071 20.0529 212.9 20.1909 212.577 20.1909H206.032C205.907 20.2045 205.781 20.1932 205.661 20.1576C205.541 20.1221 205.429 20.063 205.332 19.9839C205.255 19.9013 205.196 19.8031 205.16 19.696C205.124 19.5889 205.112 19.4753 205.123 19.3629V8.90789C205.123 8.61489 205.275 8.45889 205.598 8.45889H212.582C212.904 8.45889 213.076 8.61389 213.076 8.88989V9.82089C213.076 10.1149 212.905 10.2529 212.582 10.2529H207.211V13.2889H212.011C212.333 13.2889 212.505 13.4439 212.505 13.7199V14.6529C212.505 14.9459 212.334 15.0839 212.011 15.0839H207.206ZM218.782 22.2839C218.788 22.3465 218.779 22.4095 218.757 22.4683C218.735 22.527 218.699 22.58 218.654 22.6232C218.608 22.6664 218.553 22.6987 218.493 22.7177C218.434 22.7367 218.37 22.7419 218.308 22.7329H217.169C216.847 22.7329 216.695 22.5779 216.695 22.2839V15.0839H214.208C213.867 15.0839 213.715 14.9459 213.715 14.6529V13.7209C213.715 13.4449 213.866 13.2899 214.208 13.2899H216.695L216.634 8.08989C216.634 7.79689 216.786 7.64189 217.108 7.64189H218.247C218.309 7.63274 218.373 7.63778 218.433 7.65665C218.492 7.67551 218.547 7.70771 218.593 7.75082C218.639 7.79393 218.674 7.84683 218.696 7.90556C218.719 7.96428 218.728 8.0273 218.722 8.08989L218.782 22.2839Z" fill="#1A1311"/>
<path d="M88.204 10.241C87.4157 10.241 86.645 10.4747 85.9895 10.9127C85.334 11.3507 84.8231 11.9732 84.5214 12.7016C84.2197 13.4299 84.1408 14.2314 84.2946 15.0046C84.4484 15.7778 84.828 16.488 85.3855 17.0455C85.9429 17.6029 86.6532 17.9826 87.4264 18.1364C88.1996 18.2902 89.001 18.2112 89.7294 17.9096C90.4577 17.6079 91.0803 17.097 91.5183 16.4415C91.9562 15.786 92.19 15.0153 92.19 14.227C92.19 13.1698 91.7701 12.156 91.0225 11.4084C90.275 10.6609 89.2612 10.241 88.204 10.241ZM88.204 16.401C87.774 16.401 87.3537 16.2735 86.9962 16.0346C86.6387 15.7957 86.36 15.4562 86.1955 15.0589C86.031 14.6617 85.9879 14.2246 86.0718 13.8028C86.1557 13.3811 86.3627 12.9938 86.6668 12.6897C86.9708 12.3857 87.3582 12.1786 87.7799 12.0947C88.2016 12.0109 88.6387 12.0539 89.036 12.2185C89.4332 12.383 89.7728 12.6616 90.0116 13.0192C90.2505 13.3767 90.378 13.797 90.378 14.227C90.378 14.8035 90.149 15.3565 89.7413 15.7642C89.3336 16.1719 88.7806 16.401 88.204 16.401Z" fill="#1A1311"/>
<path d="M159.737 7.83496C158.949 7.83496 158.178 8.06874 157.522 8.50672C156.867 8.94471 156.356 9.56724 156.054 10.2956C155.753 11.0239 155.674 11.8254 155.828 12.5986C155.981 13.3718 156.361 14.082 156.918 14.6395C157.476 15.1969 158.186 15.5766 158.959 15.7304C159.733 15.8842 160.534 15.8052 161.262 15.5035C161.991 15.2019 162.613 14.691 163.051 14.0355C163.489 13.38 163.723 12.6093 163.723 11.821C163.723 10.7638 163.303 9.74995 162.556 9.00243C161.808 8.25491 160.794 7.83496 159.737 7.83496ZM159.737 13.995C159.307 13.995 158.887 13.8675 158.529 13.6286C158.172 13.3897 157.893 13.0502 157.728 12.6529C157.564 12.2557 157.521 11.8185 157.605 11.3968C157.689 10.9751 157.896 10.5878 158.2 10.2837C158.504 9.97967 158.891 9.77262 159.313 9.68873C159.735 9.60485 160.172 9.6479 160.569 9.81245C160.966 9.97699 161.306 10.2556 161.545 10.6132C161.783 10.9707 161.911 11.391 161.911 11.821C161.911 12.3975 161.682 12.9505 161.274 13.3582C160.867 13.7659 160.314 13.995 159.737 13.995Z" fill="#1A1311"/>
<path d="M128.098 22.8088C128.149 22.8112 128.2 22.8011 128.247 22.7796C128.293 22.758 128.334 22.7255 128.365 22.6849C128.397 22.6442 128.418 22.5967 128.427 22.5462C128.436 22.4957 128.432 22.4438 128.417 22.3948L123.517 8.40684C123.438 8.20684 123.338 8.04384 123.26 7.88184C123.194 7.81255 123.114 7.75868 123.025 7.7241C122.936 7.68952 122.84 7.67509 122.745 7.68184H121.597C121.501 7.67087 121.405 7.68335 121.315 7.7182C121.225 7.75304 121.145 7.80921 121.082 7.88184C120.981 8.04872 120.895 8.22443 120.825 8.40684L115.911 22.3948C115.896 22.4439 115.892 22.4959 115.901 22.5464C115.91 22.597 115.932 22.6447 115.963 22.6853C115.994 22.726 116.035 22.7584 116.082 22.7799C116.129 22.8014 116.18 22.8113 116.231 22.8088H117.888C117.957 22.8102 118.025 22.79 118.083 22.7509C118.14 22.7119 118.184 22.6559 118.208 22.5908L119.458 19.0008H124.923L126.15 22.5898C126.174 22.655 126.218 22.7111 126.275 22.7503C126.332 22.7896 126.401 22.81 126.47 22.8088H128.098ZM120.172 16.8828L122.211 10.8488L124.231 16.8828H120.172Z" fill="#1A1311"/>
<path d="M144.622 15.0549C145.892 15.6249 148.495 15.9789 150.162 17.0359C150.38 17.1476 150.573 17.3017 150.731 17.4893C150.888 17.6768 151.007 17.894 151.079 18.128C151.151 18.3621 151.176 18.6082 151.151 18.8518C151.127 19.0955 151.054 19.3319 150.937 19.5469C150.51 20.4259 149.037 20.7189 147.952 20.7299C146.518 20.7449 144.226 20.3299 144.111 17.6659C144.096 17.3259 143.933 17.1449 143.616 17.1449H142.428C142.092 17.1449 141.933 17.3249 141.933 17.6659C141.915 18.44 142.078 19.2077 142.408 19.9079C143.062 21.1458 144.18 22.0744 145.517 22.4909C146.538 22.7911 147.609 22.8838 148.667 22.7636C149.724 22.6434 150.747 22.3127 151.675 21.7909C152.176 21.4666 152.591 21.0257 152.884 20.506C153.177 19.9863 153.34 19.4033 153.358 18.8069C153.352 18.0769 153.581 15.2879 147.634 13.9069C145.747 13.4669 143.764 12.8769 144.482 10.9749C145.105 9.32594 147.917 9.28394 149.704 10.1139C150.139 10.3973 150.5 10.7804 150.756 11.2315C151.013 11.6825 151.158 12.1884 151.18 12.7069C151.192 13.0469 151.358 13.2279 151.675 13.2279H152.863C153.199 13.2279 153.357 13.0479 153.357 12.7069C153.353 11.9351 153.191 11.1722 152.882 10.4649C152.584 9.83324 152.151 9.27454 151.614 8.82825C151.077 8.38196 150.449 8.05893 149.773 7.88194C148.137 7.37194 142.173 6.98194 141.932 11.5669C141.817 13.7609 143.781 14.6839 144.621 15.0609" fill="#1A1311"/>
</g>
</g>
</g>
<defs>
<linearGradient id="paint0_linear_41_178" x1="-0.00155877" y1="32.2891" x2="0.431503" y2="32.2891" gradientUnits="userSpaceOnUse">
<stop stop-color="#0038AE"/>
<stop offset="1" stop-color="#FEFEFE"/>
</linearGradient>
<linearGradient id="paint1_linear_41_178" x1="0.0106492" y1="32.2835" x2="0.469829" y2="32.2835" gradientUnits="userSpaceOnUse">
<stop stop-color="#0038AE"/>
<stop offset="1" stop-color="#FEFEFE"/>
</linearGradient>
<clipPath id="clip0_41_178">
<rect width="219" height="31.576" fill="white" transform="translate(0 0.711914)"/>
</clipPath>
</defs>
</svg>
