<svg width="247" height="55" viewBox="0 0 247 55" fill="none" xmlns="http://www.w3.org/2000/svg">
<g clip-path="url(#clip0_39_12)">
<mask id="mask0_39_12" style="mask-type:luminance" maskUnits="userSpaceOnUse" x="-47" y="-118" width="216" height="302">
<path d="M-46.9965 -117.844H168.031V183.227H-46.9965V-117.844Z" fill="white"/>
</mask>
<g mask="url(#mask0_39_12)">
<mask id="mask1_39_12" style="mask-type:luminance" maskUnits="userSpaceOnUse" x="73" y="3" width="1" height="1">
<path d="M73.1587 3.17512H73.1605V3.17822H73.1587V3.17512Z" fill="white"/>
</mask>
<g mask="url(#mask1_39_12)">
<path d="M73.1587 3.17512V3.17822C73.1606 3.17636 73.1606 3.17636 73.1606 3.17512H73.1587Z" fill="#FAB20B"/>
</g>
<mask id="mask2_39_12" style="mask-type:luminance" maskUnits="userSpaceOnUse" x="73" y="3" width="1" height="1">
<path d="M73.1517 3.17585H73.1591V3.18555H73.1517V3.17585Z" fill="white"/>
</mask>
<g mask="url(#mask2_39_12)">
<path d="M73.1588 3.1778V3.17586C73.146 3.19215 73.1522 3.1844 73.1588 3.1778Z" fill="#FAB20B"/>
</g>
<mask id="mask3_39_12" style="mask-type:luminance" maskUnits="userSpaceOnUse" x="73" y="3" width="1" height="1">
<path d="M73.1588 3.16693H73.1681V3.17627H73.1588V3.16693Z" fill="white"/>
</mask>
<g mask="url(#mask3_39_12)">
<path d="M73.1588 3.17627H73.1599C73.1677 3.16849 73.1743 3.16033 73.1588 3.17627Z" fill="#FAB20B"/>
</g>
</g>
<mask id="mask4_39_12" style="mask-type:luminance" maskUnits="userSpaceOnUse" x="72" y="1" width="1" height="1">
<path d="M72.4708 1.33096H72.4736V1.33276H72.4708V1.33096Z" fill="white"/>
</mask>
<g mask="url(#mask4_39_12)">
<path d="M72.4708 1.33094C72.4736 1.33094 72.4736 1.33276 72.4736 1.33276V1.33094H72.4708Z" fill="#FAB20B"/>
</g>
<mask id="mask5_39_12" style="mask-type:luminance" maskUnits="userSpaceOnUse" x="71" y="1" width="1" height="1">
<path d="M71.092 1.33137H71.0999V1.34155H71.092V1.33137Z" fill="white"/>
</mask>
<g mask="url(#mask5_39_12)">
<path d="M71.1001 1.33281C71.1001 1.33281 71.1001 1.33124 71.0989 1.33124C71.0871 1.34652 71.0934 1.34221 71.1001 1.33281Z" fill="#FAB20B"/>
</g>
<mask id="mask6_39_12" style="mask-type:luminance" maskUnits="userSpaceOnUse" x="71" y="1" width="1" height="1">
<path d="M71.7791 1.3246H71.7886V1.33228H71.7791V1.3246Z" fill="white"/>
</mask>
<g mask="url(#mask6_39_12)">
<path d="M71.7791 1.33228H71.7802C71.7884 1.32644 71.7942 1.3175 71.7791 1.33228Z" fill="#FAB20B"/>
</g>
<path d="M122.554 50.1639C121.723 50.2819 120.951 50.4861 120.482 51.1466C119.819 52.0821 120.144 53.1839 119.951 54.3229C120.523 54.3478 121.095 54.3054 121.657 54.1967C122.765 53.9671 123.561 53.6045 123.94 52.8274C124.151 52.4044 124.241 51.8611 124.29 51.2807C124.313 50.8155 124.362 50.3284 124.429 49.8149C123.958 49.9508 123.435 50.1045 122.554 50.1639Z" fill="#EC0772"/>
<path d="M125.639 39.4483C124.441 39.5652 123.476 39.5752 122.53 39.8656C122.731 40.2872 122.881 40.731 122.977 41.1877C123.193 42.2087 123.199 43.18 123.168 43.7732C121.789 43.7732 120.312 43.9063 119.023 43.3781C118.927 43.7541 118.877 44.14 118.873 44.5278C118.824 45.9579 118.891 47.2321 118.722 48.5935C121.114 48.2495 123.247 48.8564 125.356 47.3905C126.947 46.2923 127.651 44.4849 127.718 42.4715C127.718 40.4596 127.906 38.9476 127.906 38.9476C127.17 39.189 126.242 39.3903 125.639 39.4483Z" fill="#66C430"/>
<path d="M121.018 40.6415C121.476 40.3035 121.987 40.0414 122.53 39.8655C122.223 39.1992 121.765 38.5877 121.192 38.1607C120.161 37.4112 119.029 37.4423 117.824 37.4466C117.824 37.4466 117.324 37.487 116.583 37.3632C116.583 37.3632 116.637 37.757 116.613 38.1607C116.613 39.2618 116.673 39.9996 116.673 39.9996C116.811 41.2036 117.167 42.2089 118.259 42.9649C118.498 43.1286 118.754 43.2671 119.023 43.3779C119.306 42.2758 119.975 41.4064 121.018 40.6415Z" fill="#50ADE5"/>
<path d="M123.168 43.7732C123.199 43.1795 123.193 42.2086 122.976 41.1873C122.881 40.7306 122.732 40.2869 122.53 39.8655C121.987 40.0414 121.476 40.3035 121.017 40.6415C119.975 41.4065 119.306 42.2755 119.023 43.378C120.312 43.9062 121.789 43.7732 123.168 43.7732Z" fill="#059B4E"/>
<path d="M19.8043 26.6579C21.1781 26.134 21.967 26.2785 23.2265 26.0668C24.022 25.9313 25.1367 25.5661 26.0827 24.4039C27.053 23.2127 27.1133 22.1567 27.2098 20.0164C27.2036 19.211 27.3001 18.4758 27.2759 17.7419C27.2759 17.7419 25.8115 18.3384 24.5945 18.4758C23.5097 18.7676 22.8166 18.6578 21.8705 19.29C20.9487 19.8973 20.0994 21.2093 20.0756 22.2847C20.0572 23.4137 20.1655 24.3581 19.9665 25.5894C19.9546 25.7074 19.8282 26.684 19.8043 26.6579Z" fill="#B3DB18"/>
<path d="M17.1826 27.1449C16.0079 27.3098 14.9351 27.603 14.2784 28.5221C13.3504 29.837 13.8081 31.3855 13.5372 32.9783C17.2372 32.7258 18.4845 31.7016 18.9786 30.701C19.2795 30.1081 19.4063 29.3403 19.4609 28.5382C19.5024 27.8669 19.7076 27.2507 19.8044 26.6578C19.1535 26.8424 18.418 27.0687 17.1826 27.1449Z" fill="#F25A30"/>
<mask id="mask7_39_12" style="mask-type:luminance" maskUnits="userSpaceOnUse" x="0" y="15" width="1" height="1">
<path d="M0.555237 15.1375H0.558582V15.1423H0.555237V15.1375Z" fill="white"/>
</mask>
<g mask="url(#mask7_39_12)">
<path d="M0.558366 15.1376C0.550227 15.1462 0.558366 15.1419 0.558366 15.1376V15.1376Z" fill="#FAB20B"/>
</g>
<mask id="mask8_39_12" style="mask-type:luminance" maskUnits="userSpaceOnUse" x="0" y="15" width="1" height="1">
<path d="M0.557739 15.127H0.568029V15.1389H0.557739V15.127Z" fill="white"/>
</mask>
<g mask="url(#mask8_39_12)">
<path d="M0.557739 15.1389C0.57101 15.1265 0.57101 15.1211 0.557739 15.1389V15.1389Z" fill="#FAB20B"/>
</g>
<path d="M8.78297 18.7801C8.8014 17.9268 8.98779 17.1852 9.31903 16.5214C8.5117 16.0969 7.60792 15.8162 6.62575 15.7018C4.384 15.4346 2.96186 15.788 0.557922 14.9465C1.06978 15.9281 1.05208 18.2727 1.05208 18.4239C1.29879 21.9625 0.389231 25.2254 4.14306 27.267C6.01095 28.2801 9.43354 28.2411 10.6993 28.5218C10.868 28.5637 12.6636 29.094 12.6636 29.2017V24.646C12.6636 24.1829 12.6697 23.7044 12.6636 23.2177C11.3682 23.3207 10.0364 23.2317 8.62006 23.4373C8.8014 21.876 8.74035 20.4219 8.78297 18.7801Z" fill="#FAB20B"/>
<path d="M9.31908 16.5217C8.98784 17.1855 8.80109 17.9268 8.78303 18.7804C8.7404 20.4219 8.80109 21.8759 8.62012 23.4373C10.0361 23.232 11.3679 23.321 12.6636 23.218C12.6394 21.5197 12.4646 19.7152 11.434 18.3352C10.8719 17.5845 10.1499 16.9653 9.31908 16.5217Z" fill="#609C33"/>
<path d="M13.2419 16.279C13.3686 15.6332 13.2845 14.5357 13.2845 14.4502C13.2903 14.0386 13.2845 13.6913 13.2964 13.3677C13.2903 13.3723 13.278 13.3723 13.278 13.3723C12.5909 13.5494 11.9404 13.839 11.2414 14.3443C10.3615 14.9916 9.72896 15.7 9.31897 16.5215C10.1498 16.9652 10.8718 17.5844 11.4339 18.3353C12.4645 19.715 12.6393 21.5195 12.6635 23.2178C13.8686 23.1226 15.0375 22.8666 16.2006 22.0627C18.014 20.8021 18.822 18.7397 18.8943 16.4324C18.8943 15.797 18.912 15.2065 18.9362 14.6848C18.9362 14.6025 18.9423 14.5203 18.9423 14.4427C18.0989 14.8604 16.7486 15.1275 15.8452 15.4125C14.9053 15.7072 14.2544 15.8492 13.2419 16.279Z" fill="#66C430"/>
<path d="M17.5807 7.7331C17.6587 8.85314 17.6045 9.99965 17.6045 11.1154C16.7307 11.1501 15.3386 11.0424 13.8503 10.7385C13.8503 10.7385 13.8265 10.737 13.8084 10.7277C13.8019 10.7277 13.7846 10.7231 13.7723 10.722C13.7362 10.8114 13.712 10.9023 13.682 11.001C13.682 11.0049 13.682 11.007 13.6758 11.0142C13.4468 11.8002 13.3327 12.4697 13.3023 13.1248C13.3023 13.2049 13.3023 13.2886 13.2962 13.3676C14.2668 13.1248 15.2847 13.1019 16.5263 12.9771C17.2129 12.9156 18.2735 12.6828 19.1112 12.4057C19.1112 12.4057 19.0147 13.2049 18.9425 14.4426C18.9483 14.4369 18.9602 14.4369 18.9667 14.4276C19.0205 14.4069 19.087 14.3758 19.1412 14.3489C20.4549 13.5869 20.9368 12.1239 21.0816 10.1534C21.2745 7.61544 21.3829 6.79794 21.3829 6.79794C21.3829 6.79794 18.599 7.45273 17.5807 7.7331Z" fill="#50ADE5"/>
<path d="M16.5262 12.9772C15.2847 13.102 14.2667 13.1249 13.2961 13.3677C13.2842 13.6914 13.29 14.039 13.2842 14.4502C13.2842 14.5357 13.3684 15.6332 13.2419 16.2791C14.2545 15.8492 14.905 15.7076 15.8449 15.4126C16.7487 15.1279 18.0986 14.8608 18.9424 14.4427C19.0147 13.205 19.1111 12.4058 19.1111 12.4058C18.2734 12.6829 17.2129 12.9161 16.5262 12.9772Z" fill="#059B4E"/>
<path d="M17.3391 7.7988C17.3756 7.78878 17.4237 7.77376 17.4782 7.75731C17.5082 7.75267 17.5443 7.74086 17.5804 7.733C17.5743 7.67936 17.5743 7.61963 17.5743 7.56778C17.5743 7.56778 17.4179 5.5723 16.0438 3.85576C15.1704 2.8641 13.7659 2.05733 11.7174 1.54844C10.8136 1.30705 8.31903 0.631166 8.31903 0.631166C8.42704 1.60995 8.49964 3.28143 8.49964 3.28143C8.49964 5.03517 8.55383 6.41913 9.57211 7.97617C10.5062 9.4127 11.9703 10.2238 13.7721 10.7219C14.3446 9.2575 15.8328 8.26083 17.3391 7.7988Z" fill="#EC0772"/>
<path d="M13.8502 10.7382C15.3384 11.0425 16.7306 11.1498 17.6047 11.1154C17.6047 9.99968 17.6586 8.85318 17.5805 7.73278C17.5444 7.74064 17.5079 7.75245 17.4783 7.75709C17.4238 7.77355 17.3754 7.78856 17.3392 7.79858C15.8329 8.26061 14.3443 9.25728 13.7722 10.7217C13.7844 10.7231 13.8018 10.7274 13.8083 10.7274C13.8263 10.7367 13.8383 10.7367 13.8502 10.7382Z" fill="#50ADE5"/>
<path d="M13.8502 10.7382C15.3384 11.0425 16.7306 11.1498 17.6047 11.1154C17.6047 9.99968 17.6586 8.85318 17.5805 7.73278C17.5444 7.74064 17.5079 7.75245 17.4783 7.75709C17.4238 7.77355 17.3754 7.78856 17.3392 7.79858C15.8329 8.26061 14.3443 9.25728 13.7722 10.7217C13.7844 10.7231 13.8018 10.7274 13.8083 10.7274C13.8263 10.7367 13.8383 10.7367 13.8502 10.7382Z" fill="#562A75"/>
<path d="M41.1279 28.866C41.1254 28.5828 41.0103 28.312 40.8074 28.1123C40.6045 27.9127 40.3303 27.8003 40.0442 27.7996H30.9739V29.4063H39.1589C39.1589 31.125 38.9277 32.6137 38.5426 33.8783H28.4703V35.4056H35.1655V38.5694H30.8005V40.119H39.6389V44.5183H41.5119V39.639C41.512 39.4986 41.4841 39.3596 41.4299 39.2299C41.3757 39.1001 41.2963 38.9822 41.196 38.8829C41.0958 38.7835 40.9768 38.7047 40.8458 38.651C40.7148 38.5972 40.5744 38.5695 40.4325 38.5694H37.1541V35.4056H43.7887V33.8783H40.4156C40.7826 32.4578 41.1279 31.3199 41.1279 28.866Z" fill="#00452A"/>
<path d="M59.6998 27.2268H57.8445V36.6177H59.6998V27.2268Z" fill="#00452A"/>
<path d="M56.7251 34.0366C54.8904 34.2848 52.2221 34.4933 50.6013 34.4933H48.8013V32.6194H53.9816V28.9113C53.9813 28.6267 53.867 28.3538 53.6638 28.1525C53.4606 27.9512 53.1851 27.8378 52.8976 27.8374H46.8901V29.349H52.0675V31.1846H46.8901V34.9692C46.89 35.2543 47.0041 35.5277 47.2074 35.7295C47.4107 35.9313 47.6866 36.045 47.9745 36.0457H49.4407C51.7023 36.0457 55.1404 35.7957 56.7251 35.5078V34.0366Z" fill="#00452A"/>
<path d="M57.8293 42.7022H52.4388V40.5226H57.8293V42.7022ZM57.8293 39.0296H52.4384V37.4822H50.5651V43.1568C50.5651 43.7504 51.0528 44.2292 51.6484 44.2292H59.7059V37.4822H57.8293V39.0296Z" fill="#00452A"/>
<path d="M75.6569 31.1458H73.6926V27.476H71.8908V36.5482H73.6926V32.8126H75.6569V37.0063H77.476V27.265H75.6569V31.1458Z" fill="#00452A"/>
<path d="M70.316 36.2947L71.3888 34.905C69.4627 33.5465 68.2198 31.9358 68.2198 29.1385V27.8375H66.3277V29.1385C66.3277 32.0177 64.8041 33.7732 63.0565 35.2852L64.2207 36.637C65.801 35.4608 67.1181 33.5061 67.3044 32.8277C67.4973 33.525 68.7678 35.2662 70.316 36.2947Z" fill="#00452A"/>
<path d="M83.2154 37.3059V34.0613H87.3471V32.5726H83.2154V29.6527H87.4031V28.0867H81.3782V37.7326C81.3782 38.3226 81.8565 38.8161 82.459 38.8115H84.7224C86.3165 38.8115 87.4251 38.6556 88.5268 38.47V37.0163C87.5046 37.1675 86.2728 37.3059 84.6466 37.3059H83.2154Z" fill="#00452A"/>
<path d="M93.0476 32.5284H91.14V27.5315H89.3364V43.7907H91.14V34.05H93.0476V44.2295H94.8649V27.2651H93.0476V32.5284Z" fill="#00452A"/>
<path d="M104.118 38.9514V36.5425C106.104 36.4449 108.115 36.2933 109.177 36.1406V34.7055C107.365 34.9143 103.616 35.1428 101.006 35.1428H97.7994V36.6176L101.683 36.5983H102.206V38.9514H104.118Z" fill="#00452A"/>
<path d="M104.095 42.6424V39.8516H102.223V43.157C102.223 43.4414 102.337 43.714 102.54 43.9151C102.743 44.1162 103.019 44.2293 103.306 44.2295H112.001V42.6424H104.095Z" fill="#00452A"/>
<path d="M106.396 39.0819H110.031V40.5203H111.881V27.2464H110.031V37.6275H106.396V39.0819Z" fill="#00452A"/>
<path d="M72.9004 43.3264C71.557 43.3264 70.4697 42.3229 70.4697 41.0859C70.4697 39.8489 71.557 38.8455 72.9004 38.8455C74.242 38.8455 75.3311 39.8489 75.3311 41.0859C75.3311 42.3229 74.242 43.3264 72.9004 43.3264ZM72.8993 37.2126C70.3643 37.2126 68.6177 38.946 68.6177 41.0859C68.6177 43.2255 70.3643 44.9592 72.8993 44.9592C75.4337 44.9592 77.1823 43.2255 77.1823 41.0859C77.1823 38.946 75.4347 37.2126 72.8993 37.2126Z" fill="#00452A"/>
<path d="M103.208 28.6891C104.488 28.6891 105.527 29.6446 105.527 30.8258C105.527 32.0052 104.488 32.9622 103.208 32.9622C101.928 32.9622 100.89 32.0052 100.89 30.8258C100.89 29.6446 101.928 28.6891 103.208 28.6891ZM103.208 34.6079C105.683 34.6079 107.389 32.9153 107.389 30.8258C107.389 28.7356 105.683 27.0426 103.208 27.0426C100.73 27.0426 99.0249 28.7356 99.0249 30.8258C99.0249 32.9153 100.73 34.6079 103.208 34.6079Z" fill="#00452A"/>
<path d="M28.4703 54.3079V50.5758H29.2535L30.2266 52.1761C30.478 52.5913 30.6962 53.0237 30.8696 53.4274H30.8808C30.836 52.9289 30.8194 52.4472 30.8194 51.8768V50.5758H31.4569V54.3079H30.7468L29.7621 52.6686C29.5219 52.2591 29.2701 51.7996 29.0855 51.3787L29.0685 51.384C29.0967 51.8657 29.1021 52.3589 29.1021 52.9733V54.3079H28.4703Z" fill="#00452A"/>
<path d="M34.0849 52.7351L33.7883 51.816C33.7157 51.5889 33.6543 51.3343 33.5983 51.1187H33.5871C33.5311 51.3343 33.4751 51.5947 33.4083 51.816L33.1172 52.7351H34.0849ZM33.0055 53.2497L32.6812 54.3079H31.9706L33.1789 50.5758H34.0571L35.2816 54.3079H34.5436L34.2023 53.2497H33.0055Z" fill="#00452A"/>
<path d="M36.0753 51.1462H35.0018V50.5758H37.8482V51.1462H36.7631V54.3079H36.0753V51.1462Z" fill="#00452A"/>
<path d="M38.9778 54.3074H38.29V50.5753H38.9778V54.3074Z" fill="#00452A"/>
<path d="M40.2973 52.4586C40.2973 53.2168 40.6831 53.8204 41.343 53.8204C42.0087 53.8204 42.383 53.2114 42.383 52.4307C42.383 51.7277 42.0311 51.0636 41.343 51.0636C40.6607 51.0636 40.2973 51.6891 40.2973 52.4586ZM43.1105 52.4036C43.1105 53.6545 42.3443 54.3687 41.304 54.3687C40.2413 54.3687 39.5701 53.5658 39.5701 52.4694C39.5701 51.3232 40.2973 50.5147 41.3596 50.5147C42.4614 50.5147 43.1105 51.3404 43.1105 52.4036Z" fill="#00452A"/>
<path d="M43.7024 54.3079V50.5758H44.4855L45.4587 52.1761C45.7101 52.5913 45.9282 53.0237 46.1016 53.4274H46.1128C46.068 52.9289 46.0514 52.4472 46.0514 51.8768V50.5758H46.689V54.3079H45.9788L44.9945 52.6686C44.7539 52.2591 44.5021 51.7996 44.3176 51.3787L44.3009 51.384C44.3288 51.8657 44.3342 52.3589 44.3342 52.9733V54.3079H43.7024Z" fill="#00452A"/>
<path d="M49.3174 52.7351L49.0204 51.816C48.9482 51.5889 48.8868 51.3343 48.8308 51.1187H48.8196C48.7632 51.3343 48.7076 51.5947 48.6408 51.816L48.3496 52.7351H49.3174ZM48.2377 53.2497L47.9133 54.3079H47.2031L48.4114 50.5758H49.2892L50.5141 54.3079H49.7758L49.4348 53.2497H48.2377Z" fill="#00452A"/>
<path d="M51.0389 50.5758H51.7271V53.7375H53.2764V54.3079H51.0389V50.5758Z" fill="#00452A"/>
<path d="M55.6417 54.3074H54.9536V50.5753H55.6417V54.3074Z" fill="#00452A"/>
<path d="M56.4298 54.3079V50.5758H57.2126L58.1857 52.1761C58.4371 52.5913 58.6553 53.0237 58.8287 53.4274H58.8399C58.7951 52.9289 58.7785 52.4472 58.7785 51.8768V50.5758H59.416V54.3079H58.7062L57.7215 52.6686C57.481 52.2591 57.2292 51.7996 57.0443 51.3787L57.028 51.384C57.0562 51.8657 57.0616 52.3589 57.0616 52.9733V54.3079H56.4298Z" fill="#00452A"/>
<path d="M60.1931 53.5659C60.4721 53.7196 60.7856 53.8014 61.1048 53.8037C61.5466 53.8037 61.7926 53.5995 61.7926 53.2945C61.7926 53.012 61.6022 52.846 61.1214 52.6747C60.5005 52.453 60.1035 52.1262 60.1035 51.589C60.1035 50.98 60.6183 50.5148 61.4346 50.5148C61.8428 50.5148 62.1448 50.6035 62.3406 50.7032L62.173 51.2518C62.0386 51.1792 61.7753 51.0744 61.4231 51.0744C60.9871 51.0744 60.7967 51.3069 60.7967 51.5229C60.7967 51.8108 61.0152 51.9434 61.5184 52.1373C62.173 52.3808 62.4912 52.7073 62.4912 53.2444C62.4912 53.8431 62.0332 54.363 61.06 54.363C60.6627 54.363 60.2487 54.2522 60.0421 54.1306L60.1931 53.5659Z" fill="#00452A"/>
<path d="M63.8333 51.1462H62.7593V50.5758H65.6061V51.1462H64.521V54.3079H63.8333V51.1462Z" fill="#00452A"/>
<path d="M66.7357 54.3074H66.0479V50.5753H66.7357V54.3074Z" fill="#00452A"/>
<path d="M68.2456 51.1462H67.172V50.5758H70.0177V51.1462H68.9333V54.3079H68.2456V51.1462Z" fill="#00452A"/>
<path d="M71.1417 50.5758V52.7519C71.1417 53.4825 71.4491 53.8204 71.9137 53.8204C72.4111 53.8204 72.7073 53.4825 72.7073 52.7519V50.5758H73.3961V52.7072C73.3961 53.8591 72.7972 54.3687 71.8906 54.3687C71.0193 54.3687 70.454 53.8873 70.454 52.7129V50.5758H71.1417Z" fill="#00452A"/>
<path d="M74.9052 51.1462H73.8316V50.5758H76.6784V51.1462H75.5937V54.3079H74.9052V51.1462Z" fill="#00452A"/>
<path d="M79.228 52.6522H77.8077V53.7487H79.3964V54.3076H77.1192V50.5756H79.3122V51.1349H77.8077V52.0986H79.228V52.6522Z" fill="#00452A"/>
<path d="M81.6882 52.4586C81.6882 53.2168 82.0743 53.8204 82.7343 53.8204C83.3993 53.8204 83.7743 53.2114 83.7743 52.4307C83.7743 51.7277 83.4221 51.0636 82.7343 51.0636C82.0523 51.0636 81.6882 51.6891 81.6882 52.4586ZM84.5014 52.4036C84.5014 53.6545 83.7349 54.3687 82.6942 54.3687C81.6326 54.3687 80.9611 53.5658 80.9611 52.4694C80.9611 51.3232 81.6882 50.5147 82.7509 50.5147C83.8519 50.5147 84.5014 51.3404 84.5014 52.4036Z" fill="#00452A"/>
<path d="M85.0928 50.5758H87.2684V51.1348H85.7813V52.1647H87.1687V52.7244H85.7813V54.3079H85.0928V50.5758Z" fill="#00452A"/>
<path d="M91.2056 52.6522H89.7853V53.7487H91.374V54.3076H89.0968V50.5756H91.2898V51.1349H89.7853V52.0986H91.2056V52.6522Z" fill="#00452A"/>
<path d="M94.6781 54.197C94.5163 54.2803 94.1587 54.3633 93.705 54.3633C92.509 54.3633 91.7819 53.6212 91.7819 52.4862C91.7819 51.2571 92.6423 50.5147 93.7946 50.5147C94.2476 50.5147 94.5719 50.6091 94.7121 50.6813L94.5611 51.2238C94.3819 51.1462 94.136 51.0797 93.8231 51.0797C93.0566 51.0797 92.5025 51.556 92.5025 52.4533C92.5025 53.2726 92.9891 53.7983 93.8166 53.7983C94.0966 53.7983 94.3874 53.7428 94.5665 53.6595L94.6781 54.197Z" fill="#00452A"/>
<path d="M95.6512 52.4586C95.6512 53.2168 96.0369 53.8204 96.6965 53.8204C97.3623 53.8204 97.7361 53.2114 97.7361 52.4307C97.7361 51.7277 97.385 51.0636 96.6965 51.0636C96.0153 51.0636 95.6512 51.6891 95.6512 52.4586ZM98.4644 52.4036C98.4644 53.6545 97.6978 54.3687 96.6579 54.3687C95.5952 54.3687 94.924 53.5658 94.924 52.4694C94.924 51.3232 95.6512 50.5147 96.7139 50.5147C97.816 50.5147 98.4644 51.3404 98.4644 52.4036Z" fill="#00452A"/>
<path d="M99.0569 50.5758H99.7447V53.7375H101.294V54.3079H99.0569V50.5758Z" fill="#00452A"/>
<path d="M102.126 52.4586C102.126 53.2168 102.512 53.8204 103.172 53.8204C103.838 53.8204 104.212 53.2114 104.212 52.4307C104.212 51.7277 103.86 51.0636 103.172 51.0636C102.49 51.0636 102.126 51.6891 102.126 52.4586ZM104.939 52.4036C104.939 53.6545 104.174 54.3687 103.133 54.3687C102.071 54.3687 101.4 53.5658 101.4 52.4694C101.4 51.3232 102.126 50.5147 103.189 50.5147C104.291 50.5147 104.939 51.3404 104.939 52.4036Z" fill="#00452A"/>
<path d="M108.553 54.1363C108.162 54.2719 107.752 54.3428 107.338 54.3462C106.701 54.3462 106.22 54.1856 105.862 53.8484C105.526 53.5323 105.331 53.0398 105.336 52.4752C105.336 51.2961 106.186 50.5373 107.433 50.5373C107.898 50.5373 108.262 50.6313 108.434 50.7143L108.284 51.2625C108.077 51.1738 107.825 51.1019 107.428 51.1019C106.623 51.1019 106.058 51.5722 106.058 52.4419C106.058 53.2887 106.583 53.7926 107.366 53.7926C107.612 53.7926 107.797 53.7597 107.887 53.7154V52.7856H107.221V52.2477H108.553V54.1363Z" fill="#00452A"/>
<path d="M110.112 54.3079V52.7519L108.921 50.5758H109.704L110.157 51.5331C110.286 51.8107 110.381 52.0209 110.481 52.2755H110.492C110.587 52.0377 110.693 51.8053 110.822 51.5331L111.275 50.5758H112.052L110.8 52.7351V54.3079H110.112Z" fill="#00452A"/>
</g>
<g clip-path="url(#clip1_39_12)">
<path fill-rule="evenodd" clip-rule="evenodd" d="M168.411 33.3705H171.826V31.2136H168.411V24.0879H166.106V43.5144H168.411V33.3705ZM188.588 38.1333H186.328V24.0879H188.588V38.1333ZM206.52 35.9764H208.78V24.0879H206.52V28.4826H204.363V24.5296H202.096V35.1225H204.363V30.6026H206.52V35.9764ZM227.912 43.5144H225.667V32.9435H223.399V42.1893H221.14V24.5148H223.399V30.7867H225.667V24.0879H227.912V43.5144ZM244.026 39.0976H246.271V24.0879H244.026V35.4906H239.668V37.5812H244.026V39.0976ZM152.083 36.5064H133.79V34.3569H141.711V33.0098C140.911 32.8773 140.207 32.6074 139.598 32.2001C139.348 32.0283 139.113 31.8344 138.892 31.6185C138.573 31.3093 138.322 30.9658 138.141 30.5879C137.886 30.0726 137.758 29.4935 137.758 28.8507C137.758 28.2225 137.876 27.6459 138.111 27.1207C138.116 27.1109 138.121 27.0987 138.126 27.0839C138.244 26.8337 138.384 26.6006 138.546 26.3846C138.727 26.1392 138.941 25.9135 139.186 25.7074C139.628 25.3246 140.15 25.0228 140.754 24.8019C141.358 24.5811 142.015 24.4707 142.727 24.4707C143.429 24.4707 144.084 24.5786 144.692 24.7946C145.303 25.0081 145.841 25.3025 146.297 25.6927C146.513 25.8742 146.707 26.073 146.879 26.2889C147.07 26.5245 147.234 26.7821 147.372 27.0619C147.406 27.1306 147.438 27.1993 147.468 27.268C147.468 27.268 147.468 27.2704 147.468 27.2753C147.669 27.7514 147.769 28.2691 147.769 28.8286C147.769 29.3586 147.676 29.8518 147.49 30.3082C147.313 30.745 147.053 31.1474 146.709 31.5155C146.518 31.7216 146.312 31.9081 146.091 32.0749C145.497 32.5166 144.798 32.8135 143.993 32.9656V34.3569H152.083V36.5064ZM240.235 30.3229C240.47 29.8371 240.588 29.3071 240.588 28.7402C240.588 28.144 240.47 27.5992 240.235 27.106C239.999 26.6202 239.668 26.1932 239.241 25.8325C238.829 25.4792 238.336 25.2068 237.761 25.0154C237.187 24.824 236.554 24.7283 235.87 24.7283C235.202 24.7283 234.589 24.8314 234.029 25.0375C233.462 25.2436 232.977 25.5233 232.564 25.8767C232.159 26.2374 231.85 26.657 231.615 27.1355C231.394 27.6213 231.276 28.144 231.276 28.6961C231.276 29.2776 231.401 29.815 231.637 30.3008C231.74 30.5168 231.863 30.7229 232.005 30.9192C232.177 31.1498 232.375 31.3633 232.601 31.5596C233.028 31.913 233.524 32.1878 234.088 32.3841C234.655 32.5755 235.266 32.6712 235.936 32.6712C236.603 32.6712 237.222 32.5755 237.791 32.3841C238.365 32.1853 238.851 31.913 239.263 31.5596C239.469 31.3879 239.653 31.2014 239.815 31.0002C239.977 30.794 240.117 30.5683 240.235 30.3229ZM199.961 34.99L201.522 33.3926L197.407 29.204C197.532 28.7697 197.635 28.3133 197.709 27.8495C197.79 27.3931 197.834 26.9367 197.834 26.495V24.9418H195.478V26.495C195.478 27.3784 195.343 28.1906 195.073 28.9316C194.808 29.6678 194.462 30.3376 194.028 30.9413C193.591 31.5253 193.098 32.0307 192.548 32.4577C191.996 32.8847 191.444 33.2086 190.892 33.4368L192.453 35.1446C193.076 34.8403 193.648 34.4747 194.168 34.0477C194.359 33.8907 194.543 33.7263 194.72 33.5545C195.382 32.9067 195.949 32.1927 196.42 31.405L199.961 34.99ZM182.758 30.1315C182.758 30.6026 182.689 31.0517 182.552 31.4786C182.493 31.6406 182.426 31.8001 182.353 31.9571C182.08 32.5166 181.72 33.0098 181.263 33.4368C180.807 33.849 180.284 34.1729 179.688 34.4232C179.092 34.6587 178.451 34.7765 177.781 34.7765C177.126 34.7765 176.515 34.6661 175.926 34.4379C175.345 34.2097 174.83 33.8932 174.388 33.4809C174.319 33.4171 174.253 33.3509 174.189 33.2822H174.182C173.838 32.9239 173.559 32.5019 173.343 32.016C173.085 31.4418 172.96 30.8088 172.96 30.1315C172.96 29.4837 173.085 28.8875 173.343 28.328C173.6 27.7612 173.939 27.268 174.366 26.841C174.807 26.4288 175.323 26.0975 175.904 25.8546C176.022 25.8006 176.142 25.754 176.265 25.7147C176.741 25.5577 177.247 25.4792 177.781 25.4792C178.424 25.4792 179.028 25.5822 179.592 25.7884C179.597 25.7884 179.602 25.7884 179.607 25.7884V25.7957C179.641 25.8055 179.673 25.8178 179.703 25.8325C180.306 26.0607 180.829 26.3846 181.285 26.7969C181.442 26.9392 181.587 27.0889 181.72 27.2459L181.727 27.2533C181.977 27.5575 182.191 27.8961 182.368 28.2691C182.625 28.8359 182.758 29.4616 182.758 30.1315ZM145.215 27.8569C145.083 27.587 144.886 27.3465 144.626 27.1355C144.469 27.0079 144.3 26.8999 144.118 26.8116V26.8042C143.706 26.5981 143.242 26.495 142.727 26.495C142.113 26.495 141.583 26.6324 141.137 26.9073C141.024 26.976 140.918 27.052 140.82 27.1355C140.59 27.3318 140.413 27.5502 140.29 27.7906C140.138 28.09 140.062 28.4286 140.062 28.8065C140.062 29.4616 140.312 29.9917 140.82 30.4039C140.899 30.4726 140.985 30.5339 141.078 30.5879C141.534 30.8824 142.084 31.0296 142.727 31.0296C143.335 31.0296 143.87 30.8996 144.332 30.6395C144.435 30.5806 144.533 30.5168 144.626 30.4481C144.837 30.291 145.006 30.1094 145.134 29.9033C145.325 29.5941 145.421 29.2285 145.421 28.8065C145.421 28.4581 145.352 28.1415 145.215 27.8569ZM220.138 37.8977H211.533V26.6275H219.388V28.777H213.815V31.0443H219.152V33.2233H213.815V35.7408H220.138V37.8977ZM154.049 38.1333H164.509V35.9985H156.367V33.3926H162.352V26.6496H153.938V28.777H159.974V31.2431H154.049V38.1333ZM237.614 27.2385C238.078 27.5845 238.306 28.0777 238.306 28.7182C238.306 29.3144 238.078 29.7929 237.622 30.1389C237.563 30.188 237.499 30.2321 237.43 30.2714C237.013 30.5315 236.515 30.6615 235.936 30.6615C235.281 30.6615 234.721 30.4922 234.25 30.161C233.779 29.8224 233.551 29.3365 233.551 28.6961C233.551 28.3378 233.627 28.0213 233.779 27.7465C233.887 27.56 234.034 27.3931 234.221 27.2459C234.67 26.8925 235.229 26.7085 235.892 26.7085C236.495 26.7085 237.013 26.8459 237.445 27.1207C237.504 27.1551 237.56 27.1944 237.614 27.2385ZM180.454 30.1315C180.454 29.4469 180.196 28.8433 179.688 28.328C179.487 28.117 179.261 27.9477 179.011 27.8201C178.648 27.6385 178.238 27.5477 177.781 27.5477C177.06 27.5477 176.449 27.8054 175.956 28.3133C175.681 28.6077 175.482 28.9267 175.36 29.2703C175.271 29.5304 175.227 29.8076 175.227 30.1021C175.227 30.4947 175.298 30.8554 175.441 31.1842V31.1916C175.563 31.4713 175.735 31.7289 175.956 31.9645C176.449 32.4724 177.06 32.7301 177.781 32.7301C178.262 32.7301 178.692 32.6319 179.07 32.4356C179.295 32.3178 179.502 32.1632 179.688 31.9719C180.196 31.4713 180.454 30.8529 180.454 30.1315ZM241.913 34.7618C242.311 34.7029 242.73 34.6366 243.172 34.563V32.4135C242.009 32.6712 240.787 32.8552 239.521 32.973C238.255 33.0834 236.716 33.1349 234.913 33.1349H230.061V35.2256H234.979V37.7505H237.239V35.1887C237.965 35.174 238.601 35.1421 239.145 35.093C239.69 35.0415 240.198 34.99 240.654 34.9311C241.096 34.8722 241.516 34.8207 241.913 34.7618ZM207.47 41.8581C207.735 41.3281 207.867 40.7539 207.867 40.1429C207.867 39.5466 207.735 38.9798 207.47 38.4498C207.205 37.9272 206.844 37.4707 206.388 37.088C206.358 37.0634 206.329 37.0364 206.299 37.007C205.877 36.6438 205.391 36.3592 204.842 36.1531C204.586 36.05 204.326 35.9715 204.061 35.9175C203.713 35.8439 203.357 35.8071 202.994 35.8071C202.346 35.8071 201.72 35.9175 201.132 36.1531C200.577 36.3592 200.091 36.6438 199.674 37.007C199.645 37.0364 199.615 37.0634 199.586 37.088C199.129 37.4707 198.769 37.9272 198.511 38.4498C198.261 38.9798 198.128 39.5466 198.128 40.1429C198.128 40.7539 198.253 41.3281 198.496 41.8581C198.746 42.3955 199.092 42.8592 199.534 43.2567C199.961 43.6395 200.476 43.9487 201.073 44.1695C201.078 44.1744 201.085 44.1769 201.095 44.1769C201.684 44.4026 202.317 44.5155 202.994 44.5155C203.357 44.5155 203.713 44.4787 204.061 44.4051C204.326 44.3462 204.586 44.2677 204.842 44.1695C205.431 43.9487 205.946 43.6395 206.388 43.2567C206.844 42.8592 207.205 42.3955 207.47 41.8581ZM188.846 44.0444H178.208V36.8966H180.49V41.8654H188.846V44.0444ZM148.535 44.0223H137.817V37.5959H140.062V41.8434H148.535V44.0223ZM204.731 38.5455C204.996 38.7516 205.195 38.9921 205.327 39.2669C205.45 39.5319 205.512 39.8239 205.512 40.1429C205.512 40.8054 205.261 41.3502 204.753 41.7624C204.245 42.1746 203.664 42.3807 202.994 42.3807C202.258 42.3807 201.647 42.1673 201.176 41.7329C200.697 41.2986 200.462 40.7686 200.462 40.1429C200.462 39.5466 200.705 39.024 201.19 38.5823C201.684 38.1406 202.28 37.9198 202.994 37.9198C203.264 37.9198 203.522 37.9566 203.767 38.0302C204.11 38.1333 204.432 38.305 204.731 38.5455ZM235.811 44.0444H246.44V41.8654H238.093V38.2584H235.811V44.0444Z" fill="#033B20"/>
</g>
<defs>
<clipPath id="clip0_39_12">
<rect width="127.351" height="53.7376" fill="white" transform="translate(0.555176 0.631104)"/>
</clipPath>
<clipPath id="clip1_39_12">
<rect width="112.655" height="20.4305" fill="white" transform="translate(133.79 24.0879)"/>
</clipPath>
</defs>
</svg>
