<svg width="251" height="27" viewBox="0 0 251 27" fill="none" xmlns="http://www.w3.org/2000/svg">
<g clip-path="url(#clip0_33_10)">
<path d="M18.9274 12.3606H14.901V25.8128H18.9274V12.3606Z" fill="#00165E"/>
<path d="M32.7134 15.3923H36.539V25.8128H40.5726V15.3923H44.4606V12.3596H32.7134V15.3923Z" fill="#00165E"/>
<path d="M50.3811 20.5441H55.7628V17.6283H50.3775V15.3134H56.4066V12.3596H46.3593V25.8118H56.4111V22.859H50.3821L50.3811 20.5441Z" fill="#00165E"/>
<path d="M8.92622 12.3606L4.27148 19.0862L8.92622 25.8128H13.3323L8.66942 19.0862L13.3323 12.3606H8.92622Z" fill="#00165E"/>
<path d="M3.97946 12.3596H0.00106812V25.8137H3.97946V12.3596Z" fill="#00165E"/>
<path d="M63.225 12.3596H58.2647V25.8118H62.2431V15.0748H63.2992C64.8119 15.0748 65.1727 15.7526 65.1727 16.7462C65.1727 17.9041 64.8553 18.6238 63.2992 18.6238H62.2431L63.6545 21.3436C68.7749 21.2581 69.1538 18.0731 69.1538 16.6673C69.1583 15.2939 68.5416 12.3596 63.225 12.3596Z" fill="#00165E"/>
<path d="M0.00012207 4.31082V7.84589C22.7872 2.76579 46.3703 2.76579 69.1574 7.84589V4.31082C46.3704 -0.770272 22.7871 -0.770272 0.00012207 4.31082Z" fill="#EC4115"/>
<path d="M27.7422 17.6692C25.8498 17.0303 25.0496 16.7508 25.0496 16.072C25.0496 15.4722 25.7178 15.0748 26.9402 15.0748C28.3206 15.0455 29.6925 15.3039 30.9729 15.8343V12.8155C29.6966 12.3349 28.3435 12.1055 26.9845 12.1395C23.2033 12.1395 20.9564 13.9772 20.9564 16.3525C20.9564 18.3684 22.6481 19.6266 25.1843 20.4233C26.8733 20.9433 27.5406 21.3231 27.5406 21.962C27.5406 22.6407 26.8733 23.0762 25.4954 23.0762C23.99 23.1104 22.4938 22.8259 21.1001 22.2405V25.3048C22.4479 25.7274 23.8424 25.973 25.2503 26.0356C29.632 26.0356 31.6357 24.0587 31.6357 21.741C31.6348 19.8653 30.4331 18.5439 27.7422 17.6692Z" fill="#00165E"/>
<path d="M121.016 13.8195V9.67061C121.016 9.53597 120.855 9.50347 120.855 9.50347C120.855 9.50347 119.009 9.33446 118.532 9.29175V19.6964L118.476 19.714C117.556 19.9694 116.605 20.0928 115.652 20.0808H112.496V14.813C112.496 14.6895 112.347 14.6598 112.35 14.6598L110.169 14.463V20.0808H107.888C107.978 20.4021 108.233 21.2573 108.233 21.2573C108.26 21.3418 108.3 21.4616 108.649 21.4616H115.529C116.518 21.464 117.499 21.2714 118.417 20.8943L118.528 20.845V25.8333H121.012V15.1919H123.675V13.8195H121.012H121.016Z" fill="#313133"/>
<path d="M104.012 15.7192L104.109 15.5883C104.531 14.7848 104.749 13.8847 104.741 12.9716V9.37891H93.5685C93.6589 9.70019 93.9103 10.5554 93.9103 10.5554C93.9374 10.6334 93.9772 10.7532 94.3271 10.7532H102.238V13.0365C102.271 13.9264 102.163 14.8157 101.918 15.67L101.899 15.7229H91.7493L92.0901 16.8994C92.1173 16.9783 92.1607 17.0981 92.5097 17.0981H97.8751V19.9368H93.5043C93.5947 20.259 93.8461 21.1133 93.8461 21.1133C93.8741 21.1922 93.9148 21.3101 94.2629 21.3101H102.194V25.8332H104.698V19.9368H100.378V17.0888H106.649V15.7173L104.012 15.7192Z" fill="#313133"/>
<path d="M137.959 12.694V9.65107C137.959 9.51364 137.796 9.48207 137.796 9.48207L135.455 9.26758V18.8105H137.959V14.085H140.62V12.6921H137.959V12.694Z" fill="#313133"/>
<path d="M133.284 15.1324C133.276 14.6154 133.154 14.1069 132.927 13.6456C132.699 13.1843 132.372 12.7823 131.971 12.4702L131.796 12.3263H133.896V10.9938H130.522V9.38365C130.522 9.249 130.361 9.21558 130.361 9.21558L128.019 9.00293V10.9938H124.673C124.764 11.3086 125.002 12.1331 125.002 12.1331C125.032 12.2121 125.069 12.3244 125.407 12.3244H125.779H126.741L126.571 12.4665C126.178 12.7852 125.858 13.1893 125.634 13.6499C125.411 14.1105 125.289 14.6161 125.278 15.1306C125.388 16.142 125.857 17.0763 126.596 17.7548C127.334 18.4333 128.29 18.8084 129.281 18.8084C130.272 18.8084 131.229 18.4333 131.967 17.7548C132.706 17.0763 133.175 16.142 133.285 15.1306L133.284 15.1324ZM127.643 15.1324C127.643 13.8399 128.393 12.7506 129.281 12.7506C130.169 12.7506 130.918 13.8399 130.918 15.1324C130.918 16.4584 130.184 17.5374 129.281 17.5374C128.393 17.5365 127.645 16.4352 127.645 15.1324H127.643Z" fill="#313133"/>
<path d="M126.771 21.2525C126.798 21.3361 126.839 21.4503 127.186 21.4503H127.745H135.454V25.8146H137.958V20.0825H126.428C126.522 20.401 126.771 21.2525 126.771 21.2525Z" fill="#313133"/>
<path d="M241.87 15.918C244.07 15.918 245.795 14.4462 245.795 12.5668C245.795 10.7096 244.033 9.19604 241.87 9.19604C239.706 9.19604 237.926 10.7087 237.926 12.5668C237.926 14.4462 239.659 15.918 241.87 15.918ZM241.87 10.509C242.722 10.509 243.39 11.4125 243.39 12.5668C243.39 13.721 242.721 14.6273 241.87 14.6273C241.018 14.6273 240.333 13.7228 240.333 12.5668C240.333 11.4107 241.009 10.509 241.87 10.509Z" fill="#313133"/>
<path d="M84.1894 15.4157C84.1791 14.8598 84.0408 14.3142 83.7857 13.8237C83.5307 13.3332 83.1661 12.9118 82.7219 12.5938L82.5284 12.4452H84.7617V11.0737H81.3882V9.46543C81.3882 9.32986 81.2264 9.29736 81.2264 9.29736C81.2264 9.29736 79.3638 9.12557 78.8846 9.08472V11.0747H75.512V12.4461H77.7661L77.5717 12.5947C77.1271 12.9124 76.7622 13.3337 76.507 13.8243C76.2517 14.3148 76.1134 14.8605 76.1033 15.4166C76.2166 16.4362 76.6912 17.3774 77.4368 18.0607C78.1823 18.744 79.1466 19.1216 80.1459 19.1216C81.1452 19.1216 82.1095 18.744 82.855 18.0607C83.6006 17.3774 84.0752 16.4362 84.1885 15.4166L84.1894 15.4157ZM78.4704 15.4157C78.4704 14.1157 79.2535 12.9717 80.1477 12.9717C81.0573 12.9717 81.825 14.086 81.825 15.4157C81.825 16.7454 81.0573 17.8801 80.1477 17.8801C79.2535 17.8792 78.4704 16.7278 78.4704 15.4157Z" fill="#313133"/>
<path d="M164.511 13.1796L164.581 13.0292L164.654 13.1786C165.389 14.6792 168.289 15.7285 170.449 15.7378L171.54 14.7238C168.811 14.6235 165.843 12.8778 165.843 10.5889V9.67051C165.843 9.53308 165.681 9.49966 165.681 9.49966L163.322 9.28516V10.5852C163.322 12.8732 160.356 14.6198 157.625 14.7201L158.716 15.7341C160.9 15.7276 163.808 14.6792 164.511 13.1796Z" fill="#313133"/>
<path d="M245.233 20.1327C245.257 20.2024 245.291 20.2999 245.59 20.2999H248.499V21.8348H251.001V9.66587C251.001 9.53123 250.839 9.49872 250.839 9.49872L248.499 9.28516V19.1104H244.934C245.019 19.4029 245.233 20.1309 245.233 20.1327Z" fill="#313133"/>
<path d="M80.9959 24.4413V20.9583C80.9959 20.8218 80.8304 20.7893 80.834 20.7893L78.4913 20.5757V24.0801C78.4797 24.3169 78.5176 24.5535 78.6026 24.7739C78.6875 24.9944 78.8174 25.1936 78.9837 25.3582C79.1499 25.5227 79.3485 25.6487 79.5661 25.7278C79.7838 25.8069 80.0154 25.8371 80.2454 25.8165H89.3984V24.445L80.9959 24.4413Z" fill="#313133"/>
<path d="M109.101 11.197H114.527V14.7312C114.527 16.6951 114.498 17.8038 113.876 18.9311H116.002C116.769 17.6176 117.128 16.0952 117.031 14.5668V9.82275H108.342C108.432 10.145 108.685 10.9993 108.685 10.9993C108.714 11.0828 108.753 11.197 109.101 11.197Z" fill="#313133"/>
<path d="M88.8251 13.1128V9.64742C88.8251 9.51 88.6606 9.47842 88.6633 9.47842L86.3206 9.26392V21.4524H88.8251V14.5057H91.4861V13.1128H88.8251Z" fill="#313133"/>
<path d="M218.664 9.53677L216.323 9.32227V11.9223H214.114V13.2511H216.323V14.5854H214.114V15.916H216.323V18.8225H218.827V9.7039C218.827 9.56833 218.662 9.53677 218.664 9.53677Z" fill="#313133"/>
<path d="M142.344 10.9938C142.374 11.0783 142.412 11.1925 142.759 11.1925H143.197H147.281V11.6178C147.281 15.9366 145.11 18.6666 141.172 19.3249L142.451 20.2832C146.18 20.0371 149.942 16.9199 149.942 11.42V9.82471H142.003C142.097 10.1432 142.344 10.9938 142.344 10.9938Z" fill="#313133"/>
<path d="M213.974 18.8086C211.583 18.8086 209.634 20.5376 209.634 22.6631C209.634 24.7886 211.581 26.5 213.974 26.5C216.367 26.5 218.314 24.7802 218.314 22.6631C218.314 20.546 216.368 18.8086 213.974 18.8086ZM213.974 25.0885C213.419 25.0075 212.915 24.7108 212.566 24.2595C212.218 23.8083 212.051 23.2369 212.1 22.6631C212.1 21.351 212.976 20.1996 213.974 20.1996C214.972 20.1996 215.85 21.351 215.85 22.6631C215.892 23.2357 215.723 23.8037 215.375 24.2533C215.027 24.703 214.527 25.0013 213.974 25.0885Z" fill="#313133"/>
<path d="M215.06 16.5681H213.421V11.213H214.941V9.86377H205.384C205.475 10.1804 205.721 11.0161 205.721 11.0161C205.749 11.0988 205.789 11.2093 206.129 11.2093H206.239H206.836V16.5643H205.286C205.377 16.881 205.623 17.7186 205.623 17.7186C205.652 17.8021 205.691 17.9154 206.032 17.9154H215.061L215.06 16.5681ZM210.958 11.2966V16.5681H209.301V11.213H210.958V11.2966Z" fill="#313133"/>
<path d="M233.594 13.0923V9.66587C233.594 9.53123 233.429 9.49872 233.432 9.49872L231.09 9.28516V25.8332H233.594V14.4657H236.255V13.0932H233.594V13.0923Z" fill="#313133"/>
<path d="M240.51 17.9459H240.588V20.4224H243.093V17.9459H247.178V16.6672H236.988C237.078 16.9718 237.304 17.7537 237.304 17.7537C237.33 17.8289 237.366 17.9459 237.686 17.9459H240.51Z" fill="#313133"/>
<path d="M220.882 9.82202C220.972 10.1433 221.223 10.9967 221.223 10.9967C221.252 11.0793 221.292 11.1944 221.64 11.1944H226.18V11.6197C226.18 15.9367 224.005 18.6648 220.053 19.3269L221.351 20.2852C225.067 20.0391 228.821 16.9219 228.821 11.4219V9.82665H220.883L220.882 9.82202Z" fill="#313133"/>
<path d="M157.393 17.9042C157.422 17.9868 157.463 18.1001 157.803 18.1001H163.342V19.414H159.208C159.298 19.7353 159.548 20.5868 159.548 20.5868C159.577 20.6694 159.617 20.7837 159.963 20.7837H160.588H167.701V21.9565H159.358V24.0922C159.35 24.3298 159.391 24.5664 159.479 24.7865C159.566 25.0066 159.698 25.2052 159.866 25.3692C160.034 25.5332 160.233 25.6589 160.451 25.7381C160.67 25.8173 160.902 25.8481 161.133 25.8286H170.52V24.4571H161.861V23.25H170.204V19.414H165.845V18.1001H172.136V16.749H157.057C157.151 17.0657 157.393 17.9042 157.393 17.9042Z" fill="#313133"/>
<path d="M173.618 10.9938C173.648 11.0783 173.688 11.1925 174.035 11.1925H174.531H178.556V11.6178C178.556 15.9366 176.386 18.6666 172.447 19.3249L173.726 20.2832C177.453 20.0371 181.217 16.9199 181.217 11.42V9.82471H173.278C173.371 10.1432 173.618 10.9938 173.618 10.9938Z" fill="#313133"/>
<path d="M202.631 9.64544C202.631 9.5108 202.468 9.47829 202.469 9.47829L200.134 9.26379V17.9747L200.082 17.9942C199.113 18.3208 198.096 18.4732 197.076 18.4446H195.163V17.1306L195.221 17.1139C195.893 16.9693 196.5 16.6023 196.949 16.0692C197.398 15.5361 197.664 14.8664 197.707 14.1629C197.704 13.7973 197.627 13.4363 197.482 13.1025C197.336 12.7687 197.125 12.4693 196.862 12.2232L196.721 12.082H198.693V10.7514H195.167V10.6687L195.161 9.87573V9.46158C195.161 9.32508 194.999 9.29351 194.999 9.29351L192.663 9.08179V10.7532H189.16L189.49 11.8926C189.518 11.9743 189.557 12.0839 189.895 12.0839H191.084L190.943 12.225C190.68 12.4713 190.469 12.7708 190.324 13.1045C190.179 13.4383 190.102 13.7992 190.099 14.1648C190.149 14.8693 190.42 15.5381 190.872 16.0704C191.324 16.6027 191.932 16.9696 192.605 17.1158L192.663 17.1344V18.4474H188.98C189.071 18.7594 189.308 19.5681 189.308 19.5681C189.335 19.648 189.375 19.7539 189.706 19.7539H196.982C198.03 19.7562 199.067 19.5322 200.025 19.0964L200.137 19.0426V19.9981H202.642L202.635 10.1654L202.631 9.64544ZM193.9 16.1222C193.126 16.1222 192.421 15.189 192.421 14.1629C192.421 13.1369 193.125 12.2036 193.9 12.2036C194.324 12.315 194.699 12.568 194.967 12.9227C195.236 13.2775 195.381 13.7138 195.381 14.1629C195.381 14.612 195.236 15.0484 194.967 15.4031C194.699 15.7579 194.324 16.0109 193.9 16.1222Z" fill="#313133"/>
<path d="M154.889 9.49872L152.548 9.28516V25.8332H155.052V9.66587C155.052 9.53123 154.887 9.49872 154.889 9.49872Z" fill="#313133"/>
<path d="M186.162 9.49872L183.82 9.28516V25.8332H186.325V9.66587C186.327 9.53123 186.16 9.49872 186.162 9.49872Z" fill="#313133"/>
<path d="M191.267 22.1858C191.294 22.2676 191.335 22.3808 191.677 22.3808H200.134V25.8166H202.638V21.0344H190.93L191.267 22.1858Z" fill="#313133"/>
<path d="M242.502 24.4412H242.423V21.8106C242.423 21.6732 242.258 21.6407 242.26 21.6407L239.918 21.429V24.0977C239.91 24.3353 239.951 24.5718 240.039 24.7919C240.127 25.0119 240.259 25.2104 240.426 25.3744C240.594 25.5383 240.793 25.6641 241.011 25.7433C241.23 25.8225 241.462 25.8535 241.692 25.8341H251V24.4412H242.502Z" fill="#313133"/>
</g>
<defs>
<clipPath id="clip0_33_10">
<rect width="251" height="26" fill="white" transform="translate(0 0.5)"/>
</clipPath>
</defs>
</svg>
