<svg width="261" height="35" viewBox="0 0 261 35" fill="none" xmlns="http://www.w3.org/2000/svg">
<g clip-path="url(#clip0_41_243)">
<path d="M257.845 11.0264V15.8745H260.248V17.9256H257.845V23.8787H255.345V11.0264H257.845ZM244.433 20.9436V12.4491H252.444V14.438H246.913V18.9339C250.138 18.9201 251.906 18.8096 253.888 18.3883L254.15 20.3842C251.913 20.84 249.862 20.9436 245.918 20.9436H244.433ZM246.312 28.4919V22.5043H248.798V26.4822H258.48V28.4919H246.312Z" fill="#222222"/>
<path d="M241.513 11.04V24.4723H239.013V23.0496H235.615V21.3507H239.013V11.04H241.513ZM226.382 18.9198C229.648 18.8922 234.04 18.8507 237.797 18.3742L237.942 20.1629C236.54 20.3977 235.083 20.5565 233.647 20.667V24.0441H231.147V26.4819H241.906V28.4916H228.654V23.1808H231.147V20.8121C229.551 20.8742 228.032 20.888 226.679 20.888L226.382 18.9198ZM227.701 14.8314C227.701 12.9391 229.531 11.6339 232.169 11.6408C234.759 11.6339 236.603 12.9391 236.609 14.8314C236.603 16.7375 234.759 17.9668 232.169 17.9668C229.531 17.9668 227.701 16.7375 227.701 14.8314ZM230.063 14.8314C230.056 15.6947 230.905 16.1643 232.169 16.1643C233.371 16.1643 234.234 15.6947 234.241 14.8314C234.234 13.9474 233.371 13.464 232.169 13.464C230.905 13.464 230.056 13.9474 230.063 14.8314Z" fill="#222222"/>
<path d="M216.051 15.8603C216.051 18.7401 217.535 21.8133 220.512 23.0495L219.172 25.0039C217.073 24.12 215.629 22.352 214.828 20.1973C214.027 22.5385 212.556 24.486 210.457 25.4459L209.041 23.4915C211.983 22.1724 213.509 18.8783 213.516 15.8603V14.7691H209.739V12.7318H219.773V14.7691H216.051V15.8603ZM221.527 28.8023V11.0122H224.048V28.8023H221.527Z" fill="#222222"/>
<path d="M202.433 12.6147V14.5692H191.88V12.6147H195.92V10.9297H198.407V12.6147H202.433ZM192.751 18.4228C192.744 16.4683 194.581 15.1493 197.164 15.1424C199.739 15.1493 201.535 16.4683 201.535 18.4228C201.535 20.3772 199.739 21.6962 197.164 21.6962C194.581 21.6962 192.744 20.3772 192.751 18.4228ZM194.021 24.9076V22.9186H205.989V28.8026H203.489V24.9076H194.021ZM195.175 18.4228C195.175 19.3274 195.969 19.7971 197.164 19.7971C198.351 19.7971 199.166 19.3274 199.173 18.4228C199.166 17.5111 198.351 17.0208 197.164 17.0139C195.969 17.0208 195.175 17.5111 195.175 18.4228ZM203.489 22.1728V11.0125H205.989V15.6396H208.379V17.67H205.989V22.1728H203.489Z" fill="#222222"/>
<path d="M184.588 12.794V14.2236C184.581 15.8948 184.581 18.0841 184.105 21.0399L181.653 20.8465C182.061 18.2636 182.102 16.3575 182.109 14.7829H175.375V12.794H184.588ZM174.443 23.1807C175.444 23.1738 176.549 23.1669 177.71 23.1393V17.8907H180.161V23.0633C181.909 22.9874 183.683 22.8631 185.32 22.6559L185.465 24.4998C181.819 25.1213 177.793 25.1835 174.678 25.1697L174.443 23.1807ZM186.156 28.8023V11.0122H188.67V18.16H191.094V20.2457H188.67V28.8023H186.156Z" fill="#222222"/>
<path d="M172.676 11.0122V28.8023H170.321V11.0122H172.676ZM156.944 23.6089C159.561 21.9929 160.535 18.8023 160.535 15.7774V14.8313H157.621V12.8354H165.632V14.8313H162.938V15.7774C162.931 18.7401 163.857 21.7236 166.454 23.2084L164.996 25.0385C163.401 24.1061 162.365 22.5178 161.764 20.6048C161.143 22.6835 160.072 24.4376 158.449 25.4459L156.944 23.6089ZM164.368 19.12V17.1172H166.709V11.3092H169.043V27.9736H166.709V19.12H164.368Z" fill="#222222"/>
<path d="M154.148 12V13.1948C154.141 14.6796 154.141 16.7376 153.671 19.6657H156.247V21.6754H152.387V28.8025H149.907V21.6754H146.213V28.8025H143.72V21.6754H140.032V19.6657H151.151C151.613 17.2624 151.696 15.4185 151.71 14.0235H141.959V12H154.148Z" fill="#222222"/>
<path d="M77.7271 31.9023V33.6902C77.7271 33.867 77.7631 33.9932 77.8334 34.067C77.9013 34.139 78.015 34.1762 78.1709 34.1762H81.3383V31.9023H77.7271ZM78.5567 33.3914V32.4688H80.5093V33.6097H78.7694C78.6312 33.6097 78.5567 33.5322 78.5567 33.3914Z" fill="#8B929C"/>
<path d="M77.8571 28.125V28.6891H76.7676V29.2549H77.851V29.3049C77.8326 30.0891 77.3943 30.7245 76.6509 31.0568C76.668 31.0909 76.904 31.5507 76.9199 31.5842C77.2213 31.4763 77.4952 31.319 77.7348 31.1172C77.9873 30.9056 78.1615 30.6745 78.2563 30.4287L78.2942 30.3293L78.3413 30.4245C78.4611 30.6586 78.6445 30.8775 78.8903 31.0757C79.1195 31.2641 79.3659 31.4019 79.6208 31.4897C79.638 31.4537 79.8587 31.0123 79.8739 30.9818C79.5029 30.8263 79.2094 30.6123 79.0077 30.3403C78.7931 30.0458 78.7038 29.5995 78.6928 29.3049L78.6904 29.2549H79.7804V28.6891H78.6861V28.125H77.8571Z" fill="#8B929C"/>
<path d="M80.5094 28.2578V29.7139H79.5361V30.2688H80.5094V31.5359H81.3335V28.2578H80.5094Z" fill="#8B929C"/>
<path d="M85.4742 28.2578V30.0834C85.4742 30.2816 85.4192 30.4261 85.3116 30.5176C85.2083 30.6041 85.0304 30.6724 84.7803 30.7176C84.5376 30.7615 84.1806 30.7852 83.7233 30.7852C83.4567 30.7852 83.2495 30.7749 83.104 30.7529C83.0318 30.7413 82.9126 30.6913 82.9126 30.4913V28.9139H84.5926V28.3419H82.083V30.6633C82.083 30.8773 82.1136 31.0346 82.1765 31.1334C82.2499 31.2517 82.3832 31.3224 82.5697 31.3474C82.7359 31.3676 82.9493 31.3785 83.2067 31.3785C83.848 31.3785 84.3475 31.3401 84.6862 31.2657C85.0181 31.1913 85.2559 31.0724 85.3935 30.9121L85.4748 30.8145V32.242H86.3056V30.2474H87.1897V29.6742H86.3056V28.2584L85.4742 28.2578Z" fill="#8B929C"/>
<path d="M82.813 32.0293V33.5951C82.813 33.747 82.8423 33.8549 82.9004 33.9165C82.956 33.975 83.052 34.0061 83.1853 34.0061H86.4554V33.4256H83.8553C83.7172 33.4256 83.642 33.353 83.642 33.2207V32.0293H82.813Z" fill="#8B929C"/>
<path d="M93.4206 28.3687V28.9412H96.3832V29.7126H93.4078V31.2059C93.4078 31.3754 93.442 31.4986 93.5086 31.5711C93.5765 31.6443 93.6975 31.6803 93.8699 31.6803H94.0949V32.7187H92.7842V33.2949H97.8358V32.7187H96.5238V31.6803H97.2825V31.1077H94.4367C94.3621 31.1077 94.2361 31.0797 94.2361 30.8894V30.2851H97.2122V28.3687H93.4206ZM94.9056 32.6961V31.6803H95.7144V32.7187H94.9056V32.6961Z" fill="#8B929C"/>
<path d="M101.631 28.2578V32.2414H102.459V30.184H103.344V29.6096H102.459V28.2578H101.631Z" fill="#8B929C"/>
<path d="M99.162 28.3345V28.7705C99.162 29.3546 99.0673 29.8351 98.8826 30.2004C98.695 30.5656 98.3789 30.8748 97.9448 31.1217C97.9644 31.1522 98.2468 31.6004 98.2713 31.6339C98.5574 31.4924 98.8252 31.2967 99.0599 31.0528C99.31 30.7937 99.4732 30.5388 99.5478 30.2943L99.5881 30.1595L99.6358 30.2906C99.7226 30.5296 99.8969 30.7808 100.154 31.0406C100.397 31.2833 100.644 31.4546 100.886 31.5528C100.907 31.5205 101.17 31.0894 101.191 31.0577C100.404 30.6022 100.005 29.8302 100.005 28.7583V28.3351L99.162 28.3345Z" fill="#8B929C"/>
<path d="M99.0156 32.0293V33.6146C99.0156 33.761 99.0444 33.8646 99.1012 33.9195C99.1599 33.9774 99.2596 34.0061 99.4008 34.0061H102.67V33.4256H100.056C99.9198 33.4256 99.844 33.353 99.844 33.2207V32.0293H99.0156Z" fill="#8B929C"/>
<path d="M66.506 29.9785C66.506 30.7913 67.0575 31.4993 67.8467 31.7029L67.8639 31.7066L67.8822 31.7291V32.3859H65.7241V32.9609H70.8687V32.3859H68.7051V31.7102L68.7393 31.7023C69.5292 31.4986 70.08 30.7907 70.08 29.9779C70.08 28.9962 69.2779 28.1968 68.293 28.1968C67.3081 28.1968 66.506 28.9968 66.506 29.9785ZM67.3454 29.9785C67.3454 29.373 67.7697 28.8803 68.293 28.8803C68.8164 28.8803 69.2419 29.373 69.2419 29.9785C69.2419 30.584 68.8151 31.0797 68.293 31.0797C67.7709 31.0797 67.3454 30.5852 67.3454 29.9785Z" fill="#8B929C"/>
<path d="M73.2239 28.2456V28.2938C73.2239 29.0889 72.6425 29.6243 71.4956 29.8877C71.5127 29.9292 71.6937 30.4048 71.7053 30.4359C72.1516 30.3548 72.5551 30.2164 72.9042 30.0218C73.2612 29.8218 73.5027 29.592 73.6274 29.3334L73.6635 29.2523L73.7093 29.3328C73.8518 29.5895 74.1183 29.8279 74.4992 30.0408C74.8672 30.2469 75.2457 30.3786 75.6241 30.4359C75.6369 30.3999 75.8051 29.9383 75.8216 29.8956C75.272 29.7749 74.8409 29.5804 74.5426 29.3194C74.2314 29.0456 74.0731 28.7029 74.0731 28.2993V28.2456H73.2239Z" fill="#8B929C"/>
<path d="M73.2368 30.1763V30.9641H71.0806V31.5245H76.2251V30.9641H74.0609V30.1763H73.2368Z" fill="#8B929C"/>
<path d="M71.9912 33.0859C71.9912 33.7749 72.7358 34.3371 73.6492 34.3371C74.5626 34.3371 75.3066 33.7749 75.3066 33.0859C75.3066 32.3969 74.5632 31.8335 73.6492 31.8335C72.7352 31.8335 71.9912 32.395 71.9912 33.0859ZM72.7915 33.0859C72.7915 32.6987 73.1766 32.3847 73.6498 32.3847C74.123 32.3847 74.5082 32.6987 74.5082 33.0859C74.5082 33.4731 74.1224 33.7865 73.6498 33.7865C73.1772 33.7865 72.7915 33.4731 72.7915 33.0859Z" fill="#8B929C"/>
<path d="M91.3901 28.2578V31.6072C91.3901 31.9895 91.1418 32.2164 90.6491 32.2822C90.3813 32.3206 89.8048 32.3401 88.9361 32.3401H87.5V32.9133H88.9434C89.5884 32.9133 90.0047 32.9042 90.1796 32.8883C90.7549 32.8383 91.1345 32.7121 91.3069 32.5097L91.3894 32.4145V34.0999H92.2191V28.2578H91.3901Z" fill="#8B929C"/>
<path d="M87.6089 29.896C87.6089 30.7838 88.3266 31.507 89.2119 31.507C90.0971 31.507 90.8142 30.7832 90.8142 29.896C90.8142 29.0088 90.0947 28.2832 89.2119 28.2832C88.3291 28.2832 87.6089 29.0064 87.6089 29.896ZM88.3853 29.896C88.3853 29.3643 88.7564 28.932 89.2119 28.932C89.6673 28.932 90.0372 29.3643 90.0372 29.896C90.0372 30.4277 89.6673 30.8582 89.2119 30.8582C88.7564 30.8582 88.3853 30.4259 88.3853 29.896Z" fill="#8B929C"/>
<path d="M107.665 31.7373V32.322H105.714V31.7373H104.884V33.697C104.884 33.8745 104.917 34.0025 104.984 34.0757C105.049 34.147 105.162 34.1842 105.321 34.1842H108.489V31.7373H107.665ZM105.714 33.3928V32.8885H107.665V33.6098H105.926C105.788 33.6098 105.714 33.533 105.714 33.3928Z" fill="#8B929C"/>
<path d="M103.796 29.7849C103.796 30.6429 104.489 31.3392 105.339 31.3392C106.094 31.3392 106.733 30.7977 106.861 30.052L106.865 30.013H107.665V31.3789H108.489V28.2666H107.665V29.4404H106.845L106.836 29.4063C106.662 28.716 106.047 28.2349 105.339 28.2349C104.489 28.2349 103.796 28.9306 103.796 29.7861V29.7849ZM104.623 29.7849C104.623 29.3075 104.945 28.9154 105.339 28.9154C105.734 28.9154 106.057 29.3075 106.057 29.7849C106.057 30.2624 105.738 30.6551 105.339 30.6551C104.941 30.6551 104.623 30.266 104.623 29.7849Z" fill="#8B929C"/>
<path d="M113.199 28.2832V32.254H114.022V28.2832H113.199Z" fill="#8B929C"/>
<path d="M110.38 32.068V33.64C110.38 33.907 110.499 34.0327 110.758 34.0327H114.2V33.4503H111.419C111.282 33.4503 111.207 33.379 111.207 33.2454V32.0674H110.379L110.38 32.068Z" fill="#8B929C"/>
<path d="M109.533 28.3726V28.9464H110.57V29.2348C110.57 30.1117 110.149 30.7708 109.322 31.1928C109.343 31.2275 109.618 31.6794 109.637 31.7123C109.935 31.5915 110.211 31.4141 110.462 31.1806C110.725 30.9373 110.897 30.6903 110.981 30.4446L111.021 30.3287L111.069 30.4415C111.168 30.6751 111.35 30.9178 111.614 31.1592C111.864 31.3891 112.113 31.5507 112.357 31.6495C112.378 31.6129 112.654 31.1446 112.66 31.1324C112.255 30.9385 111.943 30.6684 111.731 30.3263C111.532 30.0031 111.431 29.6379 111.431 29.2415V28.947H112.475V28.3732H109.534L109.533 28.3726Z" fill="#8B929C"/>
<path d="M114.671 31.1548V31.7152H119.814V31.1548H114.671Z" fill="#8B929C"/>
<path d="M116.826 28.0664V28.5926H115.222V29.1274H116.21L116.131 29.2078C115.949 29.3908 115.854 29.6054 115.854 29.8335C115.854 30.4103 116.475 30.881 117.243 30.881C118.01 30.881 118.634 30.4103 118.634 29.8335C118.634 29.6054 118.536 29.3902 118.355 29.2078L118.276 29.1274H119.255V28.5926H117.658V28.0664H116.827H116.826ZM116.618 29.8335C116.618 29.5408 116.898 29.3036 117.243 29.3036C117.587 29.3036 117.868 29.5402 117.868 29.8335C117.868 30.1268 117.589 30.3633 117.243 30.3633C116.896 30.3633 116.618 30.1249 116.618 29.8335Z" fill="#8B929C"/>
<path d="M124.391 28.2832V30.0479H123.868V28.2832H123.17V34.0571H123.868V30.6235H124.391V34.1272H125.104V28.2832H124.391Z" fill="#8B929C"/>
<path d="M120.181 28.38V28.952H121.086V29.2087C121.086 29.9801 120.974 30.5941 120.847 31.0313C120.697 31.5124 120.43 31.9466 120.051 32.3264C120.077 32.3545 120.472 32.7258 120.493 32.7496C120.72 32.5588 120.924 32.3216 121.098 32.0362C121.283 31.7337 121.449 31.4337 121.5 31.1441L121.502 31.0789L121.492 31.1228L121.497 31.1417C121.559 31.424 121.732 31.7252 121.92 32.0392C122.095 32.3319 122.279 32.5533 122.463 32.7039C122.494 32.6716 122.873 32.3045 122.901 32.2746C122.555 31.9368 122.301 31.5179 122.148 31.0252C122 30.5447 121.877 29.9356 121.877 29.2081V28.9514H122.775V28.3794L120.181 28.38Z" fill="#8B929C"/>
<path d="M126.602 32.0558V33.621C126.602 33.7747 126.63 33.8808 126.689 33.9412C126.745 34.0022 126.841 34.0326 126.976 34.0326H130.244V33.4503H127.643C127.507 33.4503 127.43 33.379 127.43 33.2454V32.0552H126.601L126.602 32.0558Z" fill="#8B929C"/>
<path d="M129.206 28.2833V30.1102C129.206 30.3071 129.151 30.4516 129.043 30.5431C128.94 30.6303 128.761 30.6986 128.512 30.7449C128.269 30.7895 127.911 30.8126 127.454 30.8126C127.189 30.8126 126.979 30.801 126.835 30.7797C126.764 30.7681 126.642 30.7175 126.642 30.5175V28.94H128.324V28.3663H125.812V30.6882C125.812 30.901 125.845 31.0602 125.908 31.159C125.981 31.2767 126.113 31.3486 126.301 31.373C126.467 31.3943 126.682 31.4035 126.937 31.4035C127.581 31.4035 128.079 31.3669 128.417 31.2919C128.75 31.2175 128.988 31.0986 129.124 30.9376L129.207 30.8407V32.2669H130.036V30.273H130.921V29.6986H130.036V28.2827H129.207L129.206 28.2833Z" fill="#8B929C"/>
<path d="M117.243 31.9541C116.317 31.9541 115.563 32.4883 115.563 33.1456C115.563 33.8029 116.317 34.3371 117.243 34.3371C118.169 34.3371 118.922 33.8017 118.922 33.1456C118.922 32.4895 118.169 31.9541 117.243 31.9541ZM117.243 33.7328C116.778 33.7328 116.4 33.4681 116.4 33.1456C116.4 32.823 116.778 32.5578 117.243 32.5578C117.708 32.5578 118.086 32.8212 118.086 33.1456C118.086 33.47 117.709 33.7328 117.243 33.7328Z" fill="#8B929C"/>
<path d="M35.0999 3.39426C34.9953 4.04854 33.8295 5.62722 30.7159 7.35956C27.2965 9.26263 23.1149 11.2859 18.8605 13.531C15.2192 15.4542 14.5577 16.467 14.4202 18.2177C14.1683 21.4494 22.2027 30.4751 30.5783 31.9745C32.262 32.2745 32.3225 31.7166 32.3225 31.7166C32.089 32.4294 31.6714 33.1258 30.1008 34.1941C28.8372 35.0411 27.3993 35.0289 26.7744 34.9081C19.9101 33.5435 8.58356 25.0507 7.98504 20.4439C7.34251 15.5499 10.7056 12.9267 19.9627 9.10348C28.8977 5.41624 33.7109 2.70218 32.2021 2.33571C32.2021 2.33571 35.3175 2.06681 35.0999 3.39426Z" fill="url(#paint0_linear_41_243)"/>
<path d="M6.81469 28.595L11.6297 5.58984H7.36675C6.37696 5.58984 5.54674 6.26485 5.30831 7.17705L0.5 30.1919H4.76543C5.75216 30.1919 6.58115 29.5102 6.81469 28.595Z" fill="#5A7FB7"/>
<path d="M25.7031 28.4155C26.4215 30.0241 26.7363 30.7424 26.2546 31.3942C27.9364 31.3942 30.1691 32.3936 31.8136 32.3936C31.9469 32.1771 32.233 31.9698 32.3217 31.7168C32.5149 31.2009 32.3816 30.3674 31.555 28.6454C29.8597 25.0978 25.6781 20.0996 21.0336 14.9263L18.4922 17.316C21.829 21.9526 24.1472 24.871 25.7025 28.4143L25.7031 28.4155Z" fill="url(#paint1_linear_41_243)"/>
<path d="M32.9813 0.0377239C27.6167 -0.377525 19.4006 2.71764 16.8403 5.27377C13.9987 8.10673 15.2392 12.6489 18.4928 17.3172L21.0342 14.9275C19.8231 13.4934 15.8383 9.55858 19.8182 6.8433C22.7185 4.86705 31.4682 2.33836 34.2768 2.74812C34.7915 2.84142 35.0636 3.04508 35.1003 3.39569C35.1003 3.39569 35.2452 2.65849 35.0758 1.87982C34.8447 0.801148 34.0127 0.121871 32.9813 0.0377239Z" fill="url(#paint2_linear_41_243)"/>
<path d="M18.6636 31.3864C21.4819 33.1071 24.4042 34.4327 26.775 34.9084C27.3998 35.0291 28.8378 35.0419 30.1014 34.1943C31.672 33.126 32.0889 32.4297 32.3231 31.7169C32.3231 31.7169 32.2626 32.2748 30.5789 31.9748C28.0057 31.5144 25.468 30.3443 23.187 28.8564L18.6636 31.3864Z" fill="url(#paint3_linear_41_243)"/>
<path d="M84.744 24.5382L86.7382 14.9204H84.9109L84.0403 19.0717H79.1385L80.0035 14.9204H78.1768L75.9961 25.3699H76.9902C77.5006 25.3699 77.8986 25.034 78.0068 24.5388L78.8212 20.6565H83.72L82.7338 25.3705H83.7224C84.2347 25.3705 84.6297 25.0346 84.744 24.5394V24.5382Z" fill="#A62B44"/>
<path d="M102.765 15.6021C102.658 15.0143 102.275 14.9058 101.819 14.9058H100.696L94.4023 25.3809H95.652C96.1337 25.3809 96.4553 25.2309 96.6852 24.851L97.9892 22.6028H102.171L102.593 25.3809H104.465L102.765 15.6021ZM98.7699 21.2132L101.302 16.7552H101.327L101.973 21.2132H98.7699Z" fill="#A62B44"/>
<path d="M112.787 24.535L112.932 23.8132H107.6L109.457 14.9062H107.614L105.424 25.4028H111.523C112.116 25.4028 112.666 25.0991 112.787 24.535Z" fill="#A62B44"/>
<path d="M121.637 15.6849L121.792 14.9727H113.153L112.831 16.5519H116.288L114.448 25.3807H116.287L118.12 16.5519H120.386C120.972 16.5519 121.521 16.2489 121.637 15.6849Z" fill="#A62B44"/>
<path d="M95.8138 15.6632L95.9679 14.9199H88.3571L86.1807 25.3694H92.9233C93.4784 25.3511 93.9143 25.1529 94.0409 24.5383L94.1796 23.7852H88.3125L88.9415 20.7279H93.3806C93.9327 20.7279 94.3948 20.5791 94.5226 19.9297L94.6669 19.2425H89.2668L89.839 16.5022H94.5819C95.1933 16.5022 95.6762 16.3223 95.8138 15.6632Z" fill="#A62B44"/>
<path d="M129.356 24.5382L131.357 14.9204H129.522L128.655 19.0717H123.756L124.62 14.9204H122.784L120.616 25.3699H121.606C122.112 25.3699 122.511 25.034 122.621 24.5388L123.432 20.6565H128.33L127.352 25.3705H128.346C128.844 25.3705 129.242 25.0346 129.356 24.5394V24.5382Z" fill="#A62B44"/>
<path d="M37.4056 9.18945H45.1845C49.6908 9.18945 50.3914 11.0059 50.3914 12.8236C50.3914 15.0151 49.2237 16.506 47.3059 16.9237V16.9724C48.7811 17.3188 49.667 18.7414 49.667 20.2316C49.667 23.6103 46.9611 25.8006 42.077 25.8232H33.9258L37.4056 9.18945ZM38.9481 22.4219H42.3552C43.8738 22.4219 45.3233 22.0963 45.3233 20.3036C45.3233 18.7633 43.9208 18.6481 42.8014 18.6481H39.7416L38.9481 22.4219ZM40.3499 15.7358H43.4293C45.1839 15.7358 46.0477 15.1767 46.0477 13.8968C46.0477 12.684 44.7847 12.5925 43.8499 12.5925H40.9998L40.3499 15.7358Z" fill="#5A7FB7"/>
<path d="M68.0363 8.83984C70.9299 8.83984 75.4607 9.91181 75.4607 15.8747C75.4607 21.8376 72.0065 26.1724 66.0244 26.1724C61.3781 26.1724 58.6899 23.4467 58.6899 18.8119C58.6899 13.2905 62.2895 8.83984 68.0363 8.83984ZM66.3765 22.6077C69.5067 22.6077 71.1188 18.8796 71.1188 16.2491C71.1188 13.7789 70.2317 12.4039 67.8933 12.4039C64.5314 12.4039 63.0355 16.0851 63.0355 18.8345C63.0355 20.9778 64.0656 22.6077 66.3765 22.6077Z" fill="#5A7FB7"/>
<path d="M55.3424 23.9162L58.4193 9.19043H56.021C54.8515 9.19165 53.9412 9.95629 53.6777 11.0966L50.5977 25.823H52.9936C54.1649 25.823 55.0789 25.062 55.3424 23.9162Z" fill="#5A7FB7"/>
<path d="M132.55 25.1292C133.492 25.1292 134.255 24.3678 134.255 23.4286C134.255 22.4894 133.492 21.728 132.55 21.728C131.609 21.728 130.845 22.4894 130.845 23.4286C130.845 24.3678 131.609 25.1292 132.55 25.1292Z" stroke="#A62B44" stroke-width="0.3" stroke-miterlimit="10"/>
<path d="M132.932 24.3805L132.409 23.6293H132.089V24.3775H131.755V22.4756H132.543C132.637 22.4756 132.725 22.4897 132.806 22.5171C132.886 22.5445 132.957 22.5842 133.018 22.6354C133.077 22.6848 133.123 22.7458 133.158 22.8165C133.193 22.8878 133.21 22.9659 133.21 23.0512C133.21 23.1756 133.171 23.2848 133.094 23.3787C133.016 23.4726 132.918 23.5421 132.799 23.5866L133.346 24.3805H132.932ZM132.652 23.2976C132.689 23.2878 132.723 23.272 132.753 23.2512C132.782 23.2299 132.806 23.2031 132.825 23.1702C132.845 23.1372 132.855 23.0982 132.855 23.0519C132.855 22.961 132.824 22.8958 132.762 22.8549C132.701 22.814 132.633 22.7939 132.558 22.7939H132.088V23.3134H132.539C132.577 23.3134 132.614 23.3086 132.651 23.2988L132.652 23.2976Z" fill="#9E2C40"/>
</g>
<defs>
<linearGradient id="paint0_linear_41_243" x1="13.0391" y1="28.8574" x2="39.9588" y2="11.155" gradientUnits="userSpaceOnUse">
<stop offset="0.7" stop-color="#5A7FB7"/>
<stop offset="1" stop-color="#4972AA"/>
</linearGradient>
<linearGradient id="paint1_linear_41_243" x1="20.2437" y1="17.5654" x2="30.58" y2="32.1825" gradientUnits="userSpaceOnUse">
<stop stop-color="#A62B44"/>
<stop offset="0.48" stop-color="#A32A42"/>
<stop offset="0.78" stop-color="#9B263D"/>
<stop offset="1" stop-color="#8E2236"/>
</linearGradient>
<linearGradient id="paint2_linear_41_243" x1="15.7343" y1="11.5726" x2="35.6955" y2="3.58976" gradientUnits="userSpaceOnUse">
<stop stop-color="#A62B44"/>
<stop offset="0.43" stop-color="#A92D46"/>
<stop offset="0.77" stop-color="#B3334C"/>
<stop offset="1" stop-color="#BF3C54"/>
</linearGradient>
<linearGradient id="paint3_linear_41_243" x1="21.3878" y1="30.5723" x2="30.7155" y2="33.7989" gradientUnits="userSpaceOnUse">
<stop offset="0.5" stop-color="#5A7FB7"/>
<stop offset="1" stop-color="#779CCA"/>
</linearGradient>
<clipPath id="clip0_41_243">
<rect width="260" height="35" fill="white" transform="translate(0.5)"/>
</clipPath>
</defs>
</svg>
